<!--
MIT License

Copyright (c) 2020 Microsoft Corporation

Permission is hereby granted, free of charge, to any person obtaining a copy
of this software and associated documentation files (the "Software"), to deal
in the Software without restriction, including without limitation the rights
to use, copy, modify, merge, publish, distribute, sublicense, and/or sell
copies of the Software, and to permit persons to whom the Software is
furnished to do so, subject to the following conditions:

The above copyright notice and this permission notice shall be included in all
copies or substantial portions of the Software.

THE SOFTWARE IS PROVIDED "AS IS", WITHOUT WARRANTY OF ANY KIND, EXPRESS OR
IMPLIED, INCLUDING BUT NOT LIMITED TO THE WARRANTIES OF MERCHANTABILITY,
FITNESS FOR A PARTICULAR PURPOSE AND NONINFRINGEMENT. IN NO EVENT SHALL THE
AUTHORS OR COPYRIGHT HOLDERS BE LIABLE FOR ANY CLAIM, DAMAGES OR OTHER
LIABILITY, WHETHER IN AN ACTION OF CONTRACT, TORT OR OTHERWISE, ARISING FROM,
OUT OF OR IN CONNECTION WITH THE SOFTWARE OR THE USE OR OTHER DEALINGS IN THE
SOFTWARE.
-->
<svg viewBox="0 0 17 16" xmlns="http://www.w3.org/2000/svg">
<path d="M5.01403 0.792999C5.69601 0.276514 6.52855 -0.00205522 7.38403 -8.34785e-07C7.67948 -0.00662605 7.97183 0.0613776 8.23402 0.197718C8.49621 0.334058 8.71978 0.534329 8.88403 0.779999C9.04829 0.534329 9.27185 0.334058 9.53405 0.197718C9.79624 0.0613776 10.0886 -0.00662605 10.384 -8.34785e-07C11.2395 -0.00205522 12.0721 0.276514 12.754 0.792999C13.279 1.201 13.684 1.766 13.827 2.449C14.155 2.474 14.455 2.61 14.707 2.815C15.089 3.125 15.367 3.59 15.542 4.082C15.816 4.847 15.89 5.822 15.606 6.652C15.678 6.686 15.749 6.726 15.818 6.772C16.093 6.955 16.302 7.217 16.456 7.526C16.759 8.131 16.884 8.975 16.884 10C16.884 11.141 16.449 11.907 15.897 12.38C15.5918 12.6417 15.2316 12.8314 14.843 12.935C14.743 13.493 14.463 14.139 14.024 14.687C13.454 15.402 12.57 16 11.384 16C10.444 16 9.69603 15.48 9.21003 14.97C9.09384 14.8482 8.98498 14.7197 8.88403 14.585C8.7831 14.7197 8.67424 14.8482 8.55803 14.97C8.07203 15.48 7.32503 16 6.38403 16C5.19803 16 4.31503 15.402 3.74403 14.687C3.33379 14.1776 3.05281 13.5765 2.92503 12.935C2.53651 12.8314 2.17628 12.6417 1.87103 12.38C1.31903 11.907 0.884033 11.14 0.884033 10C0.884033 8.975 1.01003 8.13 1.31203 7.526C1.45516 7.22296 1.67512 6.96267 1.95003 6.771C2.01757 6.72629 2.08845 6.68684 2.16203 6.653C1.87803 5.821 1.95203 4.847 2.22603 4.082C2.40103 3.59 2.67903 3.125 3.06103 2.815C3.31303 2.61 3.61303 2.475 3.94103 2.449C4.08503 1.766 4.48903 1.201 5.01403 0.792999ZM8.38403 2.5V2.49L8.38203 2.44C8.36731 2.1793 8.31546 1.92204 8.22803 1.676C8.1658 1.49026 8.05982 1.32221 7.91903 1.186C7.77133 1.05738 7.57967 0.990747 7.38403 0.999999C6.75098 0.997829 6.13448 1.20216 5.62803 1.582C5.16403 1.943 4.88403 2.432 4.88403 3C4.88397 3.07918 4.86511 3.15722 4.82899 3.22769C4.79287 3.29815 4.74053 3.35903 4.67628 3.40532C4.61203 3.4516 4.53771 3.48196 4.45943 3.4939C4.38115 3.50584 4.30116 3.49902 4.22603 3.474C4.03803 3.412 3.87003 3.447 3.69103 3.591C3.49503 3.751 3.30403 4.035 3.16703 4.418C2.88803 5.2 2.91703 6.147 3.30003 6.723C3.35473 6.80503 3.38396 6.9014 3.38403 7H4.13403C4.73077 7 5.30307 7.23705 5.72502 7.65901C6.14698 8.08097 6.38403 8.65326 6.38403 9.25V9.585C6.71764 9.70295 6.99881 9.93503 7.17785 10.2402C7.35689 10.5454 7.42227 10.9041 7.36243 11.2529C7.30259 11.6016 7.1214 11.918 6.85086 12.1461C6.58033 12.3741 6.23788 12.4992 5.88403 12.4992C5.53019 12.4992 5.18774 12.3741 4.9172 12.1461C4.64667 11.918 4.46547 11.6016 4.40564 11.2529C4.3458 10.9041 4.41118 10.5454 4.59022 10.2402C4.76926 9.93503 5.05043 9.70295 5.38403 9.585V9.25C5.38403 8.56 4.82403 8 4.13403 8H2.38403C2.32425 7.9999 2.26498 7.98906 2.20903 7.968L2.20603 7.974C2.00803 8.369 1.88403 9.025 1.88403 10C1.88403 10.859 2.19903 11.343 2.52203 11.62C2.86903 11.918 3.25403 12 3.38403 12C3.51664 12 3.64382 12.0527 3.73759 12.1464C3.83135 12.2402 3.88403 12.3674 3.88403 12.5C3.88403 12.868 4.08403 13.511 4.52403 14.063C4.95303 14.598 5.57003 15 6.38403 15C6.94403 15 7.44603 14.687 7.83403 14.28C8.02503 14.08 8.17403 13.873 8.27103 13.703C8.31519 13.6276 8.35299 13.5487 8.38403 13.467V5.5H7.29903C7.18109 5.83361 6.949 6.11478 6.64379 6.29381C6.33859 6.47285 5.97991 6.53823 5.63117 6.4784C5.28242 6.41856 4.96605 6.23736 4.73798 5.96683C4.50991 5.69629 4.38482 5.35384 4.38482 5C4.38482 4.64616 4.50991 4.3037 4.73798 4.03317C4.96605 3.76263 5.28242 3.58144 5.63117 3.5216C5.97991 3.46177 6.33859 3.52714 6.64379 3.70618C6.949 3.88522 7.18109 4.16639 7.29903 4.5H8.38403V2.5ZM9.38403 12.499V13.466C9.41509 13.5477 9.45289 13.6266 9.49703 13.702C9.59503 13.872 9.74303 14.079 9.93303 14.279C10.322 14.686 10.825 14.999 11.384 14.999C12.198 14.999 12.815 14.597 13.244 14.062C13.684 13.51 13.884 12.867 13.884 12.499C13.884 12.3664 13.9367 12.2392 14.0305 12.1454C14.1242 12.0517 14.2514 11.999 14.384 11.999C14.514 11.999 14.899 11.917 15.246 11.619C15.569 11.342 15.884 10.858 15.884 9.999C15.884 9.024 15.759 8.369 15.562 7.973C15.4961 7.82554 15.3927 7.69796 15.262 7.603C15.1494 7.53102 15.0176 7.49509 14.884 7.5C14.7936 7.49995 14.7049 7.47538 14.6273 7.42889C14.5497 7.3824 14.4862 7.31573 14.4435 7.236C14.4008 7.15627 14.3805 7.06645 14.3849 6.97611C14.3892 6.88577 14.4179 6.79829 14.468 6.723C14.852 6.147 14.88 5.2 14.601 4.418C14.464 4.035 14.273 3.75 14.077 3.591C13.898 3.447 13.73 3.411 13.542 3.474C13.4669 3.49902 13.3869 3.50584 13.3086 3.4939C13.2304 3.48196 13.156 3.4516 13.0918 3.40532C13.0275 3.35903 12.9752 3.29815 12.9391 3.22769C12.903 3.15722 12.8841 3.07918 12.884 3C12.884 2.432 12.604 1.943 12.139 1.582C11.6329 1.20236 11.0167 0.998046 10.384 0.999999C10.1884 0.990747 9.99674 1.05738 9.84903 1.186C9.70782 1.32205 9.60149 1.49013 9.53903 1.676C9.44383 1.9372 9.39149 2.21208 9.38403 2.49V11.5H10.134C10.824 11.5 11.384 10.94 11.384 10.25V8.415C11.0504 8.29705 10.7693 8.06496 10.5902 7.75976C10.4112 7.45455 10.3458 7.09588 10.4056 6.74713C10.4655 6.39838 10.6467 6.08202 10.9172 5.85395C11.1877 5.62588 11.5302 5.50079 11.884 5.50079C12.2379 5.50079 12.5803 5.62588 12.8509 5.85395C13.1214 6.08202 13.3026 6.39838 13.3624 6.74713C13.4223 7.09588 13.3569 7.45455 13.1778 7.75976C12.9988 8.06496 12.7176 8.29705 12.384 8.415V10.25C12.384 10.8467 12.147 11.419 11.725 11.841C11.3031 12.2629 10.7308 12.5 10.134 12.5L9.38403 12.499ZM5.38403 5C5.38403 5.13261 5.43671 5.25978 5.53048 5.35355C5.62425 5.44732 5.75142 5.5 5.88403 5.5C6.01664 5.5 6.14382 5.44732 6.23759 5.35355C6.33135 5.25978 6.38403 5.13261 6.38403 5C6.38403 4.86739 6.33135 4.74021 6.23759 4.64645C6.14382 4.55268 6.01664 4.5 5.88403 4.5C5.75142 4.5 5.62425 4.55268 5.53048 4.64645C5.43671 4.74021 5.38403 4.86739 5.38403 5ZM11.884 7.5C12.0166 7.5 12.1438 7.44732 12.2376 7.35355C12.3314 7.25978 12.384 7.13261 12.384 7C12.384 6.86739 12.3314 6.74021 12.2376 6.64645C12.1438 6.55268 12.0166 6.5 11.884 6.5C11.7514 6.5 11.6242 6.55268 11.5305 6.64645C11.4367 6.74021 11.384 6.86739 11.384 7C11.384 7.13261 11.4367 7.25978 11.5305 7.35355C11.6242 7.44732 11.7514 7.5 11.884 7.5ZM5.88403 10.5C5.75142 10.5 5.62425 10.5527 5.53048 10.6464C5.43671 10.7402 5.38403 10.8674 5.38403 11C5.38403 11.1326 5.43671 11.2598 5.53048 11.3536C5.62425 11.4473 5.75142 11.5 5.88403 11.5C6.01664 11.5 6.14382 11.4473 6.23759 11.3536C6.33135 11.2598 6.38403 11.1326 6.38403 11C6.38403 10.8674 6.33135 10.7402 6.23759 10.6464C6.14382 10.5527 6.01664 10.5 5.88403 10.5Z"/>
</svg>
