<!--
MIT License

Copyright (c) 2021 Luca Burgio

Permission is hereby granted, free of charge, to any person obtaining a copy
of this software and associated documentation files (the "Software"), to deal
in the Software without restriction, including without limitation the rights
to use, copy, modify, merge, publish, distribute, sublicense, and/or sell
copies of the Software, and to permit persons to whom the Software is
furnished to do so, subject to the following conditions:

The above copyright notice and this permission notice shall be included in all
copies or substantial portions of the Software.

THE SOFTWARE IS PROVIDED "AS IS", WITHOUT WARRANTY OF ANY KIND, EXPRESS OR
IMPLIED, INCLUDING BUT NOT LIMITED TO THE WARRANTIES OF MERCHANTABILITY,
FITNESS FOR A PARTICULAR PURPOSE AND NONINFRINGEMENT. IN NO EVENT SHALL THE
AUTHORS OR COPYRIGHT HOLDERS BE LIABLE FOR ANY CLAIM, DAMAGES OR OTHER
LIABILITY, WHETHER IN AN ACTION OF CONTRACT, TORT OR OTHERWISE, ARISING FROM,
OUT OF OR IN CONNECTION WITH THE SOFTWARE OR THE USE OR OTHER DEALINGS IN THE
SOFTWARE.
-->
<svg viewBox="0 0 22 24" fill="none" xmlns="http://www.w3.org/2000/svg">
<path fill-rule="evenodd" clip-rule="evenodd" d="M0.442855 0.442854C0.726409 0.1593 1.11099 0 1.512 0H14.5622C14.9629 0.000353079 15.3478 0.159746 15.6311 0.44315"/>
<path fill-rule="evenodd" clip-rule="evenodd" d="M14.28 0.0899729C14.6942 0.0899729 15.03 0.425759 15.03 0.839973V4.56997H18.76C19.1742 4.56997 19.51 4.90576 19.51 5.31997C19.51 5.73419 19.1742 6.06997 18.76 6.06997H14.952C14.5749 6.06997 14.2132 5.92016 13.9465 5.65348C13.6798 5.3868 13.53 5.02511 13.53 4.64797V0.839973C13.53 0.425759 13.8658 0.0899729 14.28 0.0899729ZM17.1097 15.9896C17.4026 15.6967 17.8774 15.6967 18.1703 15.9896L21.5303 19.3496C21.671 19.4903 21.75 19.6811 21.75 19.88C21.75 20.0789 21.671 20.2696 21.5303 20.4103L18.1703 23.7703C17.8774 24.0632 17.4026 24.0632 17.1097 23.7703C16.8168 23.4774 16.8168 23.0025 17.1097 22.7096L19.1893 20.63H14.28C13.8658 20.63 13.53 20.2942 13.53 19.88C13.53 19.4658 13.8658 19.13 14.28 19.13H19.1893L17.1097 17.0503C16.8168 16.7574 16.8168 16.2825 17.1097 15.9896Z"/>
<path d="M1.512 0C1.11099 0 0.726409 0.1593 0.442855 0.442854C0.1593 0.726409 0 1.11099 0 1.512V22.568C0 22.969 0.159299 23.3536 0.442855 23.6371C0.726411 23.9207 1.11099 24.08 1.512 24.08H12.04C12.5039 24.08 12.88 23.7039 12.88 23.24C12.88 22.7761 12.5039 22.4 12.04 22.4H1.68V1.68H14.4921L17.92 5.10794V13.16C17.92 13.6239 18.2961 14 18.76 14C19.2239 14 19.6 13.6239 19.6 13.16V5.03954C19.6002 4.84063 19.5611 4.64364 19.485 4.45985C19.4089 4.27622 19.297 4.10902 19.1565 3.96854L15.6311 0.44315C15.3478 0.159746 14.9629 0.000353079 14.5622 0H1.512Z"/>
</svg>
