<svg xmlns="http://www.w3.org/2000/svg" viewBox="0 0 50 21" fill="none"><path d="M.5 15.062l3.378-9.116h1.11l3.385 9.116H7.088l-.615-1.778H2.431l-.62 1.777zm2.232-2.68h3.453L4.468 7.396zM10.077 17.633V8.38h.928l.138.504c.192-.172.455-.32.79-.441.334-.126.68-.19 1.04-.19.823 0 1.448.202 1.874.606.43.403.646.939.646 1.607v2.427c0 .69-.234 1.246-.702 1.67-.468.425-1.124.637-1.968.637-.585 0-1.108-.118-1.567-.353v2.786zm1.179-3.7c.422.24.894.36 1.416.36.522 0 .926-.112 1.21-.335.288-.222.432-.536.432-.939v-2.647c0-.387-.142-.685-.426-.896-.28-.21-.625-.315-1.034-.315-.405 0-.752.084-1.04.252-.285.168-.47.32-.558.454zM17.586 17.633V8.38h.928l.138.504c.192-.172.455-.32.79-.441.334-.126.68-.19 1.04-.19.823 0 1.448.202 1.874.606.43.403.645.939.645 1.607v2.427c0 .69-.234 1.246-.702 1.67-.468.425-1.124.637-1.968.637-.585 0-1.107-.118-1.567-.353v2.786zm1.178-3.7c.422.24.895.36 1.417.36s.925-.112 1.21-.335c.288-.222.432-.536.432-.939v-2.647c0-.387-.142-.685-.426-.896-.28-.21-.625-.315-1.034-.315-.406 0-.752.084-1.04.252-.285.168-.47.32-.559.454zM25.295 15.062V5.946h1.16l3.052 5.094 3.084-5.094h1.116v9.116h-1.191V7.995l-2.539 4.18h-.933L26.498 8.02v7.042zM38.025 15.2c-.673 0-1.195-.183-1.567-.548-.372-.37-.558-.828-.558-1.374 0-.311.065-.57.195-.776.263-.42 1.048-.821 2.356-1.204.757-.21 1.191-.39 1.304-.542.117-.151.182-.269.194-.353.013-.088.02-.227.02-.416 0-.19-.078-.374-.233-.555-.15-.18-.48-.27-.99-.27-.719 0-1.16.138-1.323.415-.083.143-.125.337-.125.58v.297h-1.134v-.303c0-.651.215-1.13.645-1.437.435-.307 1.082-.46 1.943-.46s1.475.197 1.843.592c.368.39.551.95.551 1.677v2.85c0 .348.044.575.132.68.088.1.276.151.564.151l-.138.908h-.238c-.418 0-.729-.08-.934-.24-.205-.163-.361-.416-.47-.756-.347.521-.765.849-1.253.983-.234.068-.496.101-.784.101zm.59-3.089c-.594.173-1.006.345-1.235.517-.226.173-.339.416-.339.732 0 .31.105.546.314.706.213.16.468.239.764.239.301 0 .573-.038.815-.113.242-.08.46-.196.652-.347.196-.156.324-.332.382-.53v-1.929c-.305.307-.756.549-1.354.725zM43.585 17.633V8.38h.927l.138.504c.192-.172.456-.32.79-.441.334-.126.681-.19 1.04-.19.824 0 1.448.202 1.874.606.43.403.646.939.646 1.607v2.427c0 .69-.234 1.246-.702 1.67-.468.425-1.124.637-1.968.637-.585 0-1.107-.117-1.567-.353v2.786zm1.178-3.7c.422.24.894.36 1.417.36.522 0 .925-.112 1.21-.335.287-.222.432-.536.432-.939v-2.647c0-.387-.142-.685-.427-.896-.28-.21-.624-.315-1.034-.315-.405 0-.752.084-1.04.252-.284.168-.47.32-.558.454z" fill="#eaeaea"/></svg>