<svg viewBox="0 0 73 21" fill="none" xmlns="http://www.w3.org/2000/svg">
<path d="M10.4402 21C16.2062 21 20.8804 16.299 20.8804 10.5C20.8804 4.70101 16.2062 0 10.4402 0C4.67425 0 0 4.70101 0 10.5C0 16.299 4.67425 21 10.4402 21Z" fill="#E83995"/>
<path fill-rule="evenodd" clip-rule="evenodd" d="M8.8143 4.00208C7.95854 4.00208 7.27394 4.21724 6.80327 4.6906C6.33261 5.16396 6.11867 5.85248 6.11867 6.71314V8.30535C6.11867 8.86478 6.03309 9.16601 5.86194 9.33814C5.69079 9.51027 5.39128 9.59634 4.79225 9.59634H4.57831V11.4037H4.79225C5.34849 11.4037 5.648 11.4898 5.86194 11.6619C6.03309 11.834 6.11867 12.1353 6.11867 12.6947V14.2869C6.11867 15.1476 6.33261 15.8361 6.80327 16.3095C7.27394 16.7828 7.95854 16.998 8.8143 16.998H9.41333V15.4918H8.89987C8.42921 15.4918 8.17248 15.3627 8.00133 15.1906C7.83018 14.9754 7.7446 14.6742 7.7446 14.1148V12.2213C7.7446 11.6619 7.61624 11.2316 7.31673 10.8873C7.14558 10.7152 6.93164 10.5431 6.67491 10.457C6.93164 10.3709 7.14558 10.2418 7.31673 10.0267C7.61624 9.6824 7.7446 9.25208 7.7446 8.69265V6.79921C7.7446 6.23978 7.83018 5.89552 8.00133 5.72339C8.17248 5.55126 8.42921 5.42216 8.89987 5.42216H9.41333V4.00208H8.8143Z" fill="#F1F2F2"/>
<path fill-rule="evenodd" clip-rule="evenodd" d="M12.0234 4.00208H11.4243V5.46519H11.9378C12.4085 5.46519 12.6652 5.59429 12.8363 5.76642C13.0075 5.98158 13.0931 6.28281 13.0931 6.84224V8.73568C13.0931 9.29511 13.2214 9.72544 13.5209 10.0697C13.6921 10.2418 13.906 10.414 14.1628 10.5C13.906 10.5861 13.6921 10.7152 13.5209 10.9304C13.2214 11.2746 13.0931 11.7049 13.0931 12.2644V14.1578C13.0931 14.7172 13.0075 15.0615 12.8363 15.2336C12.6652 15.4058 12.4085 15.5349 11.9378 15.5349H11.4243V16.998H12.0234C12.8791 16.998 13.5637 16.7828 14.0344 16.3095C14.5051 15.8361 14.719 15.1476 14.719 14.2869V12.6947C14.719 12.1353 14.8046 11.834 14.9757 11.6619C15.1469 11.4898 15.4464 11.4037 16.0454 11.4037H16.2594V9.59634H16.0454C15.4892 9.59634 15.1897 9.51027 14.9757 9.33814C14.8046 9.16601 14.719 8.86478 14.719 8.30535V6.71314C14.719 5.85248 14.5051 5.16396 14.0344 4.6906C13.5637 4.21724 12.8791 4.00208 12.0234 4.00208Z" fill="#F1F2F2"/>
<path d="M24.5002 15.0615L27.8785 5.94641H28.9879L32.3725 15.0615H31.0876L30.4733 13.2838H26.4306L25.8101 15.0615H24.5002ZM26.7315 12.3824H30.185L28.4677 7.39625L26.7315 12.3824Z" fill="#EAEAEA"/>
<path d="M34.0773 17.6333V8.37961H35.0049L35.1428 8.8839C35.335 8.7116 35.5983 8.56452 35.9325 8.44265C36.2668 8.31658 36.6136 8.25354 36.973 8.25354C37.7962 8.25354 38.4208 8.45526 38.847 8.85869C39.2774 9.26212 39.4926 9.79793 39.4926 10.4661V12.893C39.4926 13.5822 39.2586 14.139 38.7906 14.5635C38.3226 14.9879 37.6666 15.2001 36.8226 15.2001C36.2376 15.2001 35.7153 15.0825 35.2556 14.8471V17.6333H34.0773ZM35.2556 13.9331C35.6777 14.1726 36.1498 14.2924 36.6721 14.2924C37.1945 14.2924 37.5977 14.1811 37.8818 13.9583C38.1701 13.7356 38.3143 13.4225 38.3143 13.0191V10.3716C38.3143 9.98494 38.1722 9.68657 37.8881 9.47644C37.6081 9.26632 37.2634 9.16126 36.8539 9.16126C36.4486 9.16126 36.1018 9.24531 35.8135 9.41341C35.5293 9.5815 35.3434 9.73279 35.2556 9.86727V13.9331Z" fill="#EAEAEA"/>
<path d="M41.5861 17.6333V8.37961H42.5137L42.6516 8.8839C42.8438 8.7116 43.107 8.56452 43.4413 8.44265C43.7756 8.31658 44.1224 8.25354 44.4818 8.25354C45.3049 8.25354 45.9296 8.45526 46.3558 8.85869C46.7862 9.26212 47.0014 9.79793 47.0014 10.4661V12.893C47.0014 13.5822 46.7674 14.139 46.2994 14.5635C45.8314 14.9879 45.1754 15.2001 44.3313 15.2001C43.7463 15.2001 43.224 15.0825 42.7644 14.8471V17.6333H41.5861ZM42.7644 13.9331C43.1864 14.1726 43.6586 14.2924 44.1809 14.2924C44.7032 14.2924 45.1064 14.1811 45.3906 13.9583C45.6789 13.7356 45.823 13.4225 45.823 13.0191V10.3716C45.823 9.98494 45.681 9.68657 45.3968 9.47644C45.1169 9.26632 44.7722 9.16126 44.3627 9.16126C43.9573 9.16126 43.6105 9.24531 43.3222 9.41341C43.0381 9.5815 42.8521 9.73279 42.7644 9.86727V13.9331Z" fill="#EAEAEA"/>
<path d="M49.2954 15.0615V5.94641H50.4549L53.5073 11.0397L56.591 5.94641H57.7067V15.0615H56.5158V7.99509L53.9774 12.1744H53.0435L50.4988 8.02031V15.0615H49.2954Z" fill="#EAEAEA"/>
<path d="M62.0252 15.2001C61.3524 15.2001 60.8301 15.0173 60.4582 14.6517C60.0863 14.2819 59.9004 13.8238 59.9004 13.2775C59.9004 12.9666 59.9652 12.7081 60.0947 12.5022C60.3579 12.0819 61.1435 11.6806 62.4514 11.2982C63.2077 11.0881 63.6422 10.9074 63.7551 10.7561C63.8721 10.6048 63.9368 10.4871 63.9494 10.4031C63.9619 10.3148 63.9682 10.1761 63.9682 9.98704C63.9682 9.79793 63.8909 9.61302 63.7363 9.43232C63.5858 9.25161 63.2557 9.16126 62.746 9.16126C62.0273 9.16126 61.5864 9.29994 61.4235 9.5773C61.3399 9.72018 61.2981 9.9135 61.2981 10.1572V10.4535H60.1636V10.1509C60.1636 9.49956 60.3788 9.02048 60.8092 8.71371C61.2438 8.40693 61.8915 8.25354 62.7522 8.25354C63.613 8.25354 64.2272 8.45105 64.5949 8.84608C64.9627 9.23691 65.1465 9.79583 65.1465 10.5228V13.3721C65.1465 13.7209 65.1904 13.9478 65.2781 14.0529C65.3659 14.1537 65.5539 14.2042 65.8422 14.2042L65.7043 15.1119H65.4662C65.0483 15.1119 64.737 15.032 64.5323 14.8724C64.3275 14.7085 64.1708 14.4563 64.0622 14.1159C63.7154 14.637 63.2975 14.9648 62.8086 15.0993C62.5746 15.1665 62.3135 15.2001 62.0252 15.2001ZM62.6143 12.1114C62.021 12.2837 61.6094 12.456 61.3796 12.6283C61.1539 12.8006 61.0411 13.0443 61.0411 13.3595C61.0411 13.6705 61.1456 13.9058 61.3545 14.0655C61.5676 14.2252 61.8225 14.305 62.1192 14.305C62.42 14.305 62.6916 14.2672 62.934 14.1916C63.1763 14.1117 63.3936 13.9961 63.5858 13.8449C63.7822 13.6894 63.9097 13.5129 63.9682 13.3154V11.3864C63.6631 11.6932 63.2119 11.9349 62.6143 12.1114Z" fill="#EAEAEA"/>
<path d="M67.5847 17.6333V8.37961H68.5123L68.6502 8.8839C68.8424 8.7116 69.1056 8.56452 69.4399 8.44265C69.7742 8.31658 70.121 8.25354 70.4804 8.25354C71.3035 8.25354 71.9282 8.45526 72.3544 8.85869C72.7848 9.26212 73 9.79793 73 10.4661V12.893C73 13.5822 72.766 14.139 72.298 14.5635C71.83 14.9879 71.174 15.2001 70.3299 15.2001C69.7449 15.2001 69.2226 15.0825 68.763 14.8471V17.6333H67.5847ZM68.763 13.9331C69.185 14.1726 69.6572 14.2924 70.1795 14.2924C70.7018 14.2924 71.105 14.1811 71.3892 13.9583C71.6775 13.7356 71.8217 13.4225 71.8217 13.0191V10.3716C71.8217 9.98494 71.6796 9.68657 71.3954 9.47644C71.1155 9.26632 70.7708 9.16126 70.3613 9.16126C69.956 9.16126 69.6091 9.24531 69.3208 9.41341C69.0367 9.5815 68.8507 9.73279 68.763 9.86727V13.9331Z" fill="#EAEAEA"/>
</svg>
