<svg width="100%" height="100%" viewBox="0 0 498 498" fill="none" xmlns="http://www.w3.org/2000/svg">
<circle cx="248.959" cy="248.959" r="248.959" fill="#FF07AA"/>
<path d="M337.213 284.858L261.953 125.818L248.904 100.002L236.493 125.818L125.068 360.057H153.883L167.758 329.203L181.846 298.565L218.837 214.697L248.904 152.013L315.136 298.565L322.06 313.491L343.738 360.057H372.739L337.213 284.858Z" fill="white"/>
<path d="M337.213 284.858L261.953 125.818L248.904 100.002L236.493 125.818L125.068 360.057H153.883L167.758 329.203L181.846 298.565L218.837 214.697L248.904 152.013L315.136 298.565L322.06 313.491L343.738 360.057H372.739L337.213 284.858Z" stroke="white"/>
<rect x="125.068" y="100.002" width="260.054" height="260.054" stroke="#FF07AA"/>
</svg>
