<svg width="606" height="606" viewBox="0 0 606 606" fill="none" xmlns="http://www.w3.org/2000/svg">
<path d="M335.787 111.484C416.55 125.327 480.432 189.213 494.275 269.976L523.406 274.308C510.6 174.462 431.572 95.3419 331.771 82.3915L335.787 111.484Z" fill="#4D608F"/>
<path d="M111.483 269.966C125.328 189.202 189.213 125.32 269.978 111.477L274.31 82.3459C174.463 95.1519 95.3418 174.18 82.3906 273.981L111.483 269.966Z" fill="#4D608F"/>
<path d="M494.267 335.786C480.424 416.548 416.539 480.429 335.776 494.266L331.444 523.404C431.29 510.598 510.41 431.57 523.36 331.77L494.267 335.786Z" fill="#4D608F"/>
<path d="M269.967 494.266C189.204 480.423 125.322 416.538 111.482 335.774L82.3447 331.442C95.1507 431.289 174.182 510.408 273.983 523.359L269.967 494.266Z" fill="#4D608F"/>
<path d="M301.133 296.168V560.796L270.291 337.369L269.798 337.296L301.133 296.168L49.4045 300.518L268.384 270.289L268.471 269.705L301.133 296.168L302.763 39.0412L303.303 35.4084L335.416 268.043L301.133 296.168L564.241 302.394L570.343 303.302L337.496 335.443L301.133 296.168ZM361.361 337.223L605.752 303.486L360.46 267.018L427.577 175.255L337.249 244.57L303.488 1.53855e-05L266.822 246.625L174.403 179.029L243.209 268.692L0 302.265L246.419 338.9L178.177 432.201L268.718 362.722L302.266 605.75L338.704 360.665L431.35 428.428L361.361 337.223Z" fill="#4D608F"/>
</svg>
