<!-- iconoir -->
<!--
MIT License

Copyright (c) 2021 Luca Burgio

Permission is hereby granted, free of charge, to any person obtaining a copy
of this software and associated documentation files (the "Software"), to deal
in the Software without restriction, including without limitation the rights
to use, copy, modify, merge, publish, distribute, sublicense, and/or sell
copies of the Software, and to permit persons to whom the Software is
furnished to do so, subject to the following conditions:

The above copyright notice and this permission notice shall be included in all
copies or substantial portions of the Software.

THE SOFTWARE IS PROVIDED "AS IS", WITHOUT WARRANTY OF ANY KIND, EXPRESS OR
IMPLIED, INCLUDING BUT NOT LIMITED TO THE WARRANTIES OF MERCHANTABILITY,
FITNESS FOR A PARTICULAR PURPOSE AND NONINFRINGEMENT. IN NO EVENT SHALL THE
AUTHORS OR COPYRIGHT HOLDERS BE LIABLE FOR ANY CLAIM, DAMAGES OR OTHER
LIABILITY, WHETHER IN AN ACTION OF CONTRACT, TORT OR OTHERWISE, ARISING FROM,
OUT OF OR IN CONNECTION WITH THE SOFTWARE OR THE USE OR OTHER DEALINGS IN THE
SOFTWARE.
-->
<svg width="18" height="19" viewBox="0 0 18 19" fill="none" xmlns="http://www.w3.org/2000/svg">
<path fill-rule="evenodd" clip-rule="evenodd" d="M9 1.4375C4.54725 1.4375 0.9375 5.04725 0.9375 9.5C0.9375 13.9528 4.54725 17.5625 9 17.5625C13.4528 17.5625 17.0625 13.9528 17.0625 9.5C17.0625 5.04725 13.4528 1.4375 9 1.4375ZM5.6475 9.4775C5.54087 9.37814 5.39983 9.32405 5.25411 9.32662C5.10838 9.32919 4.96934 9.38822 4.86628 9.49128C4.76322 9.59434 4.70419 9.73338 4.70162 9.87911C4.69905 10.0248 4.75314 10.1659 4.8525 10.2725L7.1025 12.5225C7.20797 12.6278 7.35094 12.687 7.5 12.687C7.64906 12.687 7.79203 12.6278 7.8975 12.5225L13.1475 7.2725C13.2469 7.16587 13.301 7.02483 13.2984 6.87911C13.2958 6.73338 13.2368 6.59434 13.1337 6.49128C13.0307 6.38822 12.8916 6.32919 12.7459 6.32662C12.6002 6.32405 12.4591 6.37814 12.3525 6.4775L7.5 11.33L5.6475 9.4775Z" fill="#5C6997"/>
</svg>
