<svg width="20" height="20" viewBox="0 0 20 20" fill="none" xmlns="http://www.w3.org/2000/svg">
<g clip-path="url(#clip0_205_200)">
<rect width="20" height="20" rx="10" fill="#4D8125"/>
<path d="M10 18.75C7.67936 18.75 5.45376 17.8281 3.81282 16.1872C2.17187 14.5462 1.25 12.3206 1.25 10C1.25 7.67936 2.17187 5.45376 3.81282 3.81282C5.45376 2.17187 7.67936 1.25 10 1.25C12.3206 1.25 14.5462 2.17187 16.1872 3.81282C17.8281 5.45376 18.75 7.67936 18.75 10C18.75 12.3206 17.8281 14.5462 16.1872 16.1872C14.5462 17.8281 12.3206 18.75 10 18.75ZM10 20C12.6522 20 15.1957 18.9464 17.0711 17.0711C18.9464 15.1957 20 12.6522 20 10C20 7.34784 18.9464 4.8043 17.0711 2.92893C15.1957 1.05357 12.6522 0 10 0C7.34784 0 4.8043 1.05357 2.92893 2.92893C1.05357 4.8043 0 7.34784 0 10C0 12.6522 1.05357 15.1957 2.92893 17.0711C4.8043 18.9464 7.34784 20 10 20V20Z" fill="#4D8125"/>
<path d="M13.7125 6.21251C13.7036 6.22114 13.6952 6.23033 13.6875 6.24001L9.34625 11.7713L6.73 9.15377C6.55228 8.98817 6.31722 8.89801 6.07434 8.9023C5.83147 8.90658 5.59973 9.00497 5.42797 9.17674C5.2562 9.3485 5.15781 9.58024 5.15353 9.82311C5.14924 10.066 5.2394 10.301 5.405 10.4788L8.7125 13.7875C8.8016 13.8765 8.9077 13.9465 9.02448 13.9936C9.14125 14.0406 9.2663 14.0637 9.39218 14.0613C9.51805 14.059 9.64217 14.0313 9.75712 13.98C9.87207 13.9287 9.9755 13.8547 10.0612 13.7625L15.0512 7.52501C15.2212 7.34668 15.3141 7.10864 15.3099 6.86235C15.3057 6.61606 15.2047 6.38133 15.0288 6.20888C14.8529 6.03644 14.6162 5.94015 14.3699 5.94083C14.1236 5.94151 13.8874 6.0391 13.7125 6.21251V6.21251Z" fill="#CCCCCC"/>
</g>
<defs>
<clipPath id="clip0_205_200">
<rect width="20" height="20" rx="10" fill="white"/>
</clipPath>
</defs>
</svg>
