<svg viewBox="0 0 9 9" xmlns="http://www.w3.org/2000/svg">
  <path d="M4.5 0.140625C2.0918 0.140625 0.140625 2.0918 0.140625 4.5C0.140625 6.9082 2.0918 8.85938 4.5 8.85938C6.9082 8.85938 8.85938 6.9082 8.85938 4.5C8.85938 2.0918 6.9082 0.140625 4.5 0.140625ZM6.1258 5.64258L5.77424 6.08203C5.75117 6.11088 5.72264 6.13489 5.69029 6.15271C5.65793 6.17053 5.62239 6.1818 5.58567 6.18589C5.54896 6.18997 5.51181 6.18678 5.47633 6.1765C5.44085 6.16622 5.40775 6.14905 5.37891 6.12598L4.20117 5.25199C4.11888 5.18611 4.05246 5.10256 4.00682 5.00754C3.96118 4.91251 3.93749 4.80844 3.9375 4.70303V1.96875C3.9375 1.89416 3.96713 1.82262 4.01988 1.76988C4.07262 1.71713 4.14416 1.6875 4.21875 1.6875H4.78125C4.85584 1.6875 4.92738 1.71713 4.98012 1.76988C5.03287 1.82262 5.0625 1.89416 5.0625 1.96875V4.5L6.08203 5.24707C6.11089 5.27016 6.13491 5.2987 6.15273 5.33108C6.17055 5.36345 6.18181 5.39902 6.18588 5.43575C6.18994 5.47248 6.18673 5.50966 6.17642 5.54514C6.16611 5.58063 6.14891 5.61374 6.1258 5.64258Z"/>
</svg>