<?xml version="1.0" encoding="utf-8"?>
<svg xmlns="http://www.w3.org/2000/svg" viewBox="0 0 199 199">
<path d="M110.312 36.6246C136.845 41.1722 157.831 62.1598 162.379 88.6921L171.949 90.1152C167.742 57.3138 141.78 31.3216 108.993 27.0671L110.312 36.6246Z" fill="#55699C"/>
<path d="M36.6244 88.6887C41.1727 62.1563 62.16 41.17 88.6926 36.6222L90.1158 27.0522C57.3144 31.2592 31.3216 57.2213 27.0669 90.0079L36.6244 88.6887Z" fill="#55699C"/>
<path d="M162.376 110.312C157.828 136.844 136.84 157.83 110.308 162.375L108.885 171.948C141.686 167.741 167.679 141.779 171.933 108.992L162.376 110.312Z" fill="#55699C"/>
<path d="M88.689 162.375C62.1569 157.828 41.1706 136.84 36.6237 110.308L27.0518 108.885C31.2588 141.686 57.2218 167.678 90.0082 171.933L88.689 162.375Z" fill="#55699C"/>
<path d="M98.9278 97.2966V184.232L88.7955 110.832L88.6334 110.808L98.9278 97.2966L16.2303 98.7258L88.1691 88.795L88.1975 88.603L98.9278 97.2966L99.4633 12.8257L99.6406 11.6323L110.19 88.057L98.9278 97.2966L185.363 99.342L187.368 99.6401L110.874 110.199L98.9278 97.2966ZM118.714 110.784L199.001 99.7007L118.418 87.7204L140.467 57.5745L110.793 80.3458L99.7012 5.92994e-07L87.6557 81.0207L57.2946 58.8142L79.8986 88.2702L0 99.2995L80.9532 111.335L58.5343 141.986L88.2787 119.161L99.3 199L111.27 118.485L141.706 140.746L118.714 110.784Z" fill="#55699C"/>
</svg>
