<svg width="13" height="13" viewBox="0 0 13 13" fill="none" xmlns="http://www.w3.org/2000/svg">
<g clip-path="url(#clip0_47_2098)">
<path d="M12.7969 6.5C12.7969 9.97844 9.97742 12.7969 6.5 12.7969C3.02258 12.7969 0.203125 9.97844 0.203125 6.5C0.203125 3.02359 3.02258 0.203125 6.5 0.203125C9.97742 0.203125 12.7969 3.02359 12.7969 6.5ZM6.5 7.76953C5.85495 7.76953 5.33203 8.29245 5.33203 8.9375C5.33203 9.58255 5.85495 10.1055 6.5 10.1055C7.14505 10.1055 7.66797 9.58255 7.66797 8.9375C7.66797 8.29245 7.14505 7.76953 6.5 7.76953ZM5.39112 3.57129L5.57946 7.02442C5.58827 7.186 5.72188 7.3125 5.88369 7.3125H7.11631C7.27812 7.3125 7.41173 7.186 7.42054 7.02442L7.60888 3.57129C7.61841 3.39676 7.47944 3.25 7.30465 3.25H5.69532C5.52053 3.25 5.38159 3.39676 5.39112 3.57129V3.57129Z" fill="#EAEAEA"/>
</g>
<defs>
<clipPath id="clip0_47_2098">
<rect width="13" height="13" fill="white"/>
</clipPath>
</defs>
</svg>
