<svg width="16" height="14" viewBox="0 0 16 14" fill="none" xmlns="http://www.w3.org/2000/svg">
<path fill-rule="evenodd" clip-rule="evenodd" d="M8.2963 8.00027V10.8567L16 5.14263L8.2963 0V3.00049H5.7037C2.5537 3.00049 0 5.46288 0 8.50025C0 12.0407 2.6412 13.6219 3.24722 13.9406C3.32824 13.9844 3.41898 14 3.50972 14C3.53056 14 3.55115 13.999 3.57147 13.9971C2.83484 13.369 2.37037 12.4508 2.37037 11.4281C2.37037 9.5346 3.96225 7.99964 5.92593 7.99964C5.97974 7.99964 6.03328 8.00079 6.08651 8.00308C6.13151 8.00121 6.17675 8.00027 6.22222 8.00027H8.2963Z" fill="#EAEAEA"/>
</svg>
