<svg width="14" height="14" viewBox="0 0 14 14" fill="none" xmlns="http://www.w3.org/2000/svg">
<g clip-path="url(#clip0_2_58)">
<mask id="mask0_2_58" style="mask-type:luminance" maskUnits="userSpaceOnUse" x="0" y="0" width="14" height="14">
<path d="M14 0.114594H0V14H14V0.114594Z" fill="white"/>
</mask>
<g mask="url(#mask0_2_58)">
<path d="M11.8125 8.67838H10.9375C10.8215 8.67838 10.7102 8.72403 10.6281 8.80543C10.5461 8.88684 10.5 8.99723 10.5 9.1123V12.1497H1.75V3.47134H5.6875C5.80353 3.47134 5.91482 3.42562 5.99686 3.34424C6.0789 3.26288 6.125 3.15251 6.125 3.03742V2.16959C6.125 2.0545 6.0789 1.94414 5.99686 1.86276C5.91482 1.78139 5.80353 1.73567 5.6875 1.73567H1.3125C0.964408 1.73567 0.630563 1.87282 0.384422 2.11694C0.138281 2.36107 0 2.69218 0 3.03742V12.5836C0 12.9289 0.138281 13.2599 0.384422 13.5041C0.630563 13.7482 0.964408 13.8854 1.3125 13.8854H10.9375C11.2856 13.8854 11.6195 13.7482 11.8656 13.5041C12.1118 13.2599 12.25 12.9289 12.25 12.5836V9.1123C12.25 8.99723 12.2039 8.88684 12.1219 8.80543C12.0398 8.72403 11.9285 8.67838 11.8125 8.67838ZM13.3438 0H9.84375C9.25942 0 8.96735 0.702675 9.37895 1.11191L10.3559 2.0809L3.69141 8.68836C3.63023 8.74885 3.58168 8.82071 3.54856 8.89985C3.51544 8.97891 3.49839 9.06379 3.49839 9.14944C3.49839 9.2351 3.51544 9.31989 3.54856 9.39903C3.58168 9.47818 3.63023 9.54995 3.69141 9.61044L4.31129 10.2242C4.37226 10.2848 4.4447 10.333 4.52447 10.3659C4.60424 10.3987 4.68976 10.4156 4.77613 10.4156C4.86251 10.4156 4.94803 10.3987 5.02779 10.3659C5.10757 10.333 5.18001 10.2848 5.24098 10.2242L11.9022 3.61562L12.8789 4.58325C13.2891 4.99005 14 4.7053 14 4.12222V0.650876C14 0.478253 13.9309 0.3127 13.8078 0.190637C13.6847 0.0685746 13.5178 0 13.3438 0Z" fill="black"/>
</g>
</g>
<defs>
<clipPath id="clip0_2_58">
<rect width="14" height="14" fill="white"/>
</clipPath>
</defs>
</svg>
