<svg width="14" height="14" viewBox="0 0 14 14" fill="none" xmlns="http://www.w3.org/2000/svg">
<g clip-path="url(#clip0_33_274)">
<path d="M11.8125 8.75001H10.9375C10.8215 8.75001 10.7102 8.79604 10.6281 8.87811C10.5461 8.96019 10.5 9.07149 10.5 9.18751V12.25H1.75V3.49999H5.6875C5.80353 3.49999 5.91482 3.4539 5.99686 3.37185C6.0789 3.28981 6.125 3.17853 6.125 3.06249V2.18749C6.125 2.07146 6.0789 1.96019 5.99686 1.87814C5.91482 1.79609 5.80353 1.75 5.6875 1.75H1.3125C0.964408 1.75 0.630563 1.88828 0.384422 2.13442C0.138281 2.38055 0 2.7144 0 3.06249V12.6875C0 13.0356 0.138281 13.3694 0.384422 13.6155C0.630563 13.8617 0.964408 14 1.3125 14H10.9375C11.2856 14 11.6195 13.8617 11.8656 13.6155C12.1118 13.3694 12.25 13.0356 12.25 12.6875V9.18751C12.25 9.07149 12.2039 8.96019 12.1219 8.87811C12.0398 8.79604 11.9285 8.75001 11.8125 8.75001ZM13.3438 0H9.84375C9.25942 0 8.96735 0.708475 9.37895 1.12109L10.3559 2.09808L3.69141 8.76007C3.63023 8.82106 3.58168 8.89351 3.54856 8.97331C3.51544 9.05302 3.49839 9.1386 3.49839 9.22496C3.49839 9.31132 3.51544 9.39681 3.54856 9.47661C3.58168 9.55641 3.63023 9.62877 3.69141 9.68976L4.31129 10.3086C4.37226 10.3697 4.4447 10.4183 4.52447 10.4514C4.60424 10.4845 4.68976 10.5016 4.77613 10.5016C4.86251 10.5016 4.94803 10.4845 5.02779 10.4514C5.10757 10.4183 5.18001 10.3697 5.24098 10.3086L11.9022 3.64546L12.879 4.62108C13.2891 5.03124 14 4.74413 14 4.15624V0.656248C14 0.482201 13.9309 0.315281 13.8078 0.192211C13.6847 0.0691406 13.5178 0 13.3438 0Z"/>
</g>
<defs>
<clipPath id="clip0_33_274">
<rect width="14" height="14" fill="white"/>
</clipPath>
</defs>
</svg>
