<svg width="16" height="17" viewBox="0 0 16 17" xmlns="http://www.w3.org/2000/svg">
<g clip-path="url(#clip0_202_455)">
<path d="M13.5 10.1392H12.5C12.3674 10.1392 12.2402 10.1918 12.1464 10.2856C12.0527 10.3794 12 10.5066 12 10.6392V14.1392H2V4.13916H6.5C6.63261 4.13916 6.75979 4.08648 6.85355 3.99271C6.94732 3.89895 7 3.77177 7 3.63916V2.63916C7 2.50655 6.94732 2.37938 6.85355 2.28561C6.75979 2.19184 6.63261 2.13916 6.5 2.13916H1.5C1.10218 2.13916 0.720644 2.2972 0.43934 2.5785C0.158035 2.8598 0 3.24134 0 3.63916L0 14.6392C0 15.037 0.158035 15.4185 0.43934 15.6998C0.720644 15.9811 1.10218 16.1392 1.5 16.1392H12.5C12.8978 16.1392 13.2794 15.9811 13.5607 15.6998C13.842 15.4185 14 15.037 14 14.6392V10.6392C14 10.5066 13.9473 10.3794 13.8536 10.2856C13.7598 10.1918 13.6326 10.1392 13.5 10.1392ZM15.25 0.13916H11.25C10.5822 0.13916 10.2484 0.948848 10.7188 1.42041L11.8353 2.53697L4.21875 10.1507C4.14883 10.2204 4.09335 10.3032 4.0555 10.3944C4.01764 10.4855 3.99816 10.5833 3.99816 10.682C3.99816 10.7807 4.01764 10.8784 4.0555 10.9696C4.09335 11.0608 4.14883 11.1435 4.21875 11.2132L4.92719 11.9204C4.99687 11.9903 5.07966 12.0458 5.17082 12.0837C5.26199 12.1215 5.35973 12.141 5.45844 12.141C5.55715 12.141 5.65489 12.1215 5.74605 12.0837C5.83722 12.0458 5.92001 11.9903 5.98969 11.9204L13.6025 4.30541L14.7188 5.42041C15.1875 5.88916 16 5.56104 16 4.88916V0.88916C16 0.690248 15.921 0.499482 15.7803 0.35883C15.6397 0.218178 15.4489 0.13916 15.25 0.13916V0.13916Z"/>
</g>
<defs>
<clipPath id="clip0_202_455">
<rect width="16" height="16" transform="translate(0 0.13916)"/>
</clipPath>
</defs>
</svg>
