<!-- FontAwesome: https://raw.githubusercontent.com/FortAwesome/Font-Awesome/6.x/LICENSE.txt -->
<svg width="100%" height="100%" viewBox="0 0 179 188" xmlns="http://www.w3.org/2000/svg">
<path d="M0 43.2033V170.368C0 174.524 3.55203 177.366 6.81816 175.824L49.7222 152.75V11.75L6.25257 32.2941C4.40719 33.1663 2.82525 34.6716 1.71078 36.6161C0.59632 38.5605 0.000441971 40.8549 0 43.2033H0ZM59.6667 152.75L119.333 176.25V35.25L59.6667 11.75V152.75ZM172.182 12.1759L129.278 35.25V176.25L172.747 155.706C174.593 154.834 176.175 153.329 177.29 151.384C178.404 149.44 179 147.145 179 144.797V17.6323C179 13.4758 175.448 10.6338 172.182 12.1759V12.1759Z" fill="black"/>
</svg>
