<!-- FontAwesome: https://raw.githubusercontent.com/FortAwesome/Font-Awesome/5.x/LICENSE.txt -->
<svg width="100%" height="100%" viewBox="0 0 226 226" xmlns="http://www.w3.org/2000/svg">
<g clip-path="url(#clip0_1_7)">
<path d="M220.703 98.875H207.3C201.159 57.5263 168.474 24.8406 127.125 18.6997V5.29688C127.125 2.37168 124.753 0 121.828 0H104.172C101.247 0 98.875 2.37168 98.875 5.29688V18.6997C57.5263 24.8406 24.8406 57.5263 18.6997 98.875H5.29688C2.37168 98.875 0 101.247 0 104.172V121.828C0 124.753 2.37168 127.125 5.29688 127.125H18.6997C24.8406 168.474 57.5263 201.159 98.875 207.3V220.703C98.875 223.628 101.247 226 104.172 226H121.828C124.753 226 127.125 223.628 127.125 220.703V207.3C168.474 201.159 201.159 168.474 207.3 127.125H220.703C223.628 127.125 226 124.753 226 121.828V104.172C226 101.247 223.628 98.875 220.703 98.875ZM127.125 178.608V160.672C127.125 157.747 124.753 155.375 121.828 155.375H104.172C101.247 155.375 98.875 157.747 98.875 160.672V178.608C73.1966 173.134 52.873 152.834 47.392 127.125H65.3281C68.2533 127.125 70.625 124.753 70.625 121.828V104.172C70.625 101.247 68.2533 98.875 65.3281 98.875H47.392C52.8663 73.1966 73.1662 52.873 98.875 47.392V65.3281C98.875 68.2533 101.247 70.625 104.172 70.625H121.828C124.753 70.625 127.125 68.2533 127.125 65.3281V47.392C152.803 52.8663 173.127 73.1662 178.608 98.875H160.672C157.747 98.875 155.375 101.247 155.375 104.172V121.828C155.375 124.753 157.747 127.125 160.672 127.125H178.608C173.134 152.803 152.834 173.127 127.125 178.608ZM127.125 113C127.125 120.801 120.801 127.125 113 127.125C105.199 127.125 98.875 120.801 98.875 113C98.875 105.199 105.199 98.875 113 98.875C120.801 98.875 127.125 105.199 127.125 113Z" fill="black"/>
</g>
<defs>
<clipPath id="clip0_1_7">
<rect width="226" height="226" fill="white"/>
</clipPath>
</defs>
</svg>
