<svg width="15" height="14" viewBox="0 0 15 14" fill="none" xmlns="http://www.w3.org/2000/svg">
<path fill-rule="evenodd" clip-rule="evenodd" d="M4.28571 2C4.28571 0.895432 5.18114 0 6.28571 0H13C14.1046 0 15 0.895431 15 2V5.2103C15 6.31487 14.1046 7.2103 13 7.2103L7.85714 7.2103C7.85714 6.28624 7.14286 5.40773 6.78571 5.04721C6.29014 4.54696 5.70333 4.32617 4.70904 4.32617C4.58825 4.32617 4.45371 4.32069 4.31162 4.31489L4.28571 4.31384V2ZM7.64793 4.115C7.78189 3.97978 7.85714 3.79638 7.85714 3.60515C7.85714 3.41392 7.78189 3.23052 7.64793 3.09531C7.51398 2.96009 7.3323 2.88412 7.14286 2.88412C6.95342 2.88412 6.77173 2.96009 6.63778 3.09531C6.50383 3.23052 6.42857 3.41392 6.42857 3.60515C6.42857 3.79638 6.50383 3.97978 6.63778 4.115C6.77173 4.25021 6.95342 4.32618 7.14286 4.32618C7.3323 4.32618 7.51398 4.25021 7.64793 4.115ZM10.5051 4.115C10.639 3.97978 10.7143 3.79638 10.7143 3.60515C10.7143 3.41392 10.639 3.23052 10.5051 3.09531C10.3711 2.96009 10.1894 2.88412 10 2.88412C9.81056 2.88412 9.62888 2.96009 9.49492 3.09531C9.36097 3.23052 9.28571 3.41392 9.28571 3.60515C9.28571 3.79638 9.36097 3.97978 9.49492 4.115C9.62888 4.25021 9.81056 4.32618 10 4.32618C10.1894 4.32618 10.3711 4.25021 10.5051 4.115ZM13.3622 4.115C13.4962 3.97978 13.5714 3.79638 13.5714 3.60515C13.5714 3.41392 13.4962 3.23052 13.3622 3.09531C13.2283 2.96009 13.0466 2.88412 12.8571 2.88412C12.6677 2.88412 12.486 2.96009 12.3521 3.09531C12.2181 3.23052 12.1429 3.41392 12.1429 3.60515C12.1429 3.79638 12.2181 3.97978 12.3521 4.115C12.486 4.25021 12.6677 4.32618 12.8571 4.32618C13.0466 4.32618 13.2283 4.25021 13.3622 4.115Z" fill="#EAEAEA"/>
<path d="M0.77381 14C0.77381 14 0 14 0 13.2189C0 11.5365 0.773809 10.0944 4.64286 10.0944C8.51191 10.0944 9.28571 11.5365 9.28571 13.2189C9.28571 14 8.51191 14 8.51191 14H0.77381ZM4.64286 9.73391C5.25854 9.73391 5.849 9.48702 6.28436 9.04756C6.71971 8.60809 6.96429 8.01205 6.96429 7.39056C6.96429 6.76906 6.71971 6.17302 6.28436 5.73356C5.849 5.2941 5.25854 5.04721 4.64286 5.04721C4.02718 5.04721 3.43671 5.2941 3.00136 5.73356C2.56601 6.17302 2.32143 6.76906 2.32143 7.39056C2.32143 8.01205 2.56601 8.60809 3.00136 9.04756C3.43671 9.48702 4.02718 9.73391 4.64286 9.73391Z" fill="#EAEAEA"/>
<path d="M7.85714 8.29184L10 7.2103H7.85714V8.29184Z" fill="#EAEAEA"/>
</svg>
