<!-- https://raw.githubusercontent.com/file-icons/icons/master/LICENSE.md -->
<svg width="100%" height="100%" viewBox="0 0 199 199" xmlns="http://www.w3.org/2000/svg">
<g clip-path="url(#clip0_1_5)">
<path d="M0.0792891 114.416L52.5784 114.415C52.9928 118.483 54.1041 122.45 55.8634 126.141L10.8595 153.252C4.95557 143.071 1.23054 130.121 0.0792891 114.416ZM51.307 190.907L71.2875 142.385C69.23 141.289 67.2853 139.993 65.4815 138.516L28.375 175.623C35.9502 182.447 43.7516 187.559 51.307 190.907V190.907ZM25.8086 173.166L62.8428 136.131C60.9255 134.202 59.1574 131.914 57.5308 129.284L12.6365 156.329C16.7141 162.963 21.2448 168.707 25.8086 173.166V173.166ZM147.85 175.625L110.721 138.497C110.315 138.825 109.903 139.145 109.483 139.455L136.577 184.433C140.359 182.079 144.114 179.06 147.85 175.625V175.625ZM133.571 186.326L106.533 141.442C96.4411 147.078 85.8094 148.265 74.5037 143.905L54.5645 192.327C81.8492 203.392 110.129 200.222 133.571 186.326V186.326ZM66.74 82.2701L39.6465 37.293C35.696 39.8283 31.9434 42.7756 28.3727 46.1003L65.5013 83.229C65.9094 82.9032 66.3224 82.5836 66.74 82.2701V82.2701ZM0 110.863L52.3782 110.862C52.4913 101.597 55.7635 93.1071 62.8444 85.5964L25.809 48.561C8.71247 66.6778 0.199 87.4729 0 110.863ZM88.1096 75.1294L88.1119 22.7528C70.7274 22.8593 55.4615 27.5436 42.6529 35.3998L69.69 80.2836C74.7727 77.2998 80.8309 75.2387 88.1092 75.1298L88.1096 75.1294ZM160.56 60.7027L121.907 99.3569C122.779 101.935 123.359 104.602 123.637 107.309H176.143C175.8 91.3814 170.545 75.8504 160.56 60.7027V60.7027ZM176.215 110.862H123.843C123.661 120.672 119.995 129.613 113.378 136.131L150.415 173.166C167.446 156.405 175.726 135.485 176.215 110.862V110.862ZM91.6644 22.8305L91.662 75.335C94.4146 75.6468 97.058 76.2453 99.6166 77.0666L138.256 38.4268C124.602 28.8752 108.507 23.5165 91.6644 22.8305V22.8305ZM167.498 1.00932C152.276 5.46234 145.914 22.4574 152.425 35.4736L99.0367 88.862C86.441 82.5822 69.9244 88.2518 64.9133 102.867C58.8049 120.684 74.3358 138.548 92.802 134.946C109.13 131.76 117.02 113.884 110.085 99.9613L163.523 46.524C176.994 53.2192 194.435 46.11 198.269 30.3342C202.711 12.0523 185.575 -4.27856 167.498 1.00932V1.00932Z" fill="black"/>
</g>
<defs>
<clipPath id="clip0_1_5">
<rect width="199" height="199" fill="white"/>
</clipPath>
</defs>
</svg>
