<svg viewBox="0 0 26 26" fill="none" xmlns="http://www.w3.org/2000/svg">
  <path d="M10.0804 16.6918C10.0804 17.7531 9.49 19.4898 8.0925 19.4898C6.695 19.4898 6.10458 17.7531 6.10458 16.6918C6.10458 15.6305 6.695 13.8938 8.0925 13.8938C9.49 13.8938 10.0804 15.6305 10.0804 16.6918ZM26 14.1273C26 15.7473 25.8267 17.4637 25.0521 18.9516C22.9992 22.8414 17.355 22.75 13.3142 22.75C9.20833 22.75 3.22833 22.8871 1.09417 18.9516C0.303333 17.4789 0 15.7473 0 14.1273C0 11.9996 0.752917 9.98867 2.24792 8.35859C1.96625 7.55625 1.83083 6.71328 1.83083 5.88047C1.83083 4.78867 2.09625 4.24023 2.62167 3.25C5.07542 3.25 6.64625 3.70703 8.515 5.07812C10.0858 4.72773 11.7 4.57031 13.3196 4.57031C14.7821 4.57031 16.2554 4.71758 17.6746 5.0375C19.5162 3.68164 21.0871 3.25 23.5138 3.25C24.0446 4.24023 24.3046 4.78867 24.3046 5.88047C24.3046 6.71328 24.1637 7.54102 23.8875 8.32812C25.3771 9.97344 26 11.9996 26 14.1273ZM22.5171 16.6918C22.5171 14.4625 21.0708 12.4973 18.5358 12.4973C17.5121 12.4973 16.5317 12.6699 15.5025 12.802C14.6954 12.9188 13.8883 12.9645 13.0596 12.9645C12.2363 12.9645 11.4292 12.9188 10.6167 12.802C9.60375 12.6699 8.6125 12.4973 7.58333 12.4973C5.04833 12.4973 3.60208 14.4625 3.60208 16.6918C3.60208 21.1504 7.95708 21.8359 11.7487 21.8359H14.3596C18.1675 21.8359 22.5171 21.1555 22.5171 16.6918ZM18.0429 13.8938C16.6454 13.8938 16.055 15.6305 16.055 16.6918C16.055 17.7531 16.6454 19.4898 18.0429 19.4898C19.4404 19.4898 20.0308 17.7531 20.0308 16.6918C20.0308 15.6305 19.4404 13.8938 18.0429 13.8938Z" fill="#EAEAEA"/>
</svg>
