<svg viewBox="0 0 26 26" fill="none" xmlns="http://www.w3.org/2000/svg">
  <path d="M5.34223 1.26444C5.18481 0.812488 4.54497 0.812488 4.38247 1.26444L1.51332 10.141H8.21645C8.21137 10.141 5.34223 1.26444 5.34223 1.26444ZM0.0457462 14.6098C-0.086285 15.016 0.0609806 15.468 0.406293 15.7269L12.995 25.0707L1.50825 10.141L0.0457462 14.6098ZM8.21137 10.141L13 25.0707L17.7887 10.141H8.21137ZM25.9543 14.6098L24.4918 10.141L13 25.0707L25.5887 15.7269C25.9391 15.468 26.0813 15.016 25.9543 14.6098ZM21.6176 1.26444C21.4602 0.812488 20.8204 0.812488 20.6579 1.26444L17.7836 10.141H24.4868L21.6176 1.26444Z" fill="#EAEAEA"/>
</svg>
