<svg width="16" height="16" viewBox="0 0 16 16" xmlns="http://www.w3.org/2000/svg">
<path d="M7.75 0C3.47009 0 0 3.47134 0 7.75C0 12.0312 3.47009 15.5 7.75 15.5C12.0299 15.5 15.5 12.0312 15.5 7.75C15.5 3.47134 12.0299 0 7.75 0ZM7.75 3.4375C8.47487 3.4375 9.0625 4.02513 9.0625 4.75C9.0625 5.47487 8.47487 6.0625 7.75 6.0625C7.02513 6.0625 6.4375 5.47487 6.4375 4.75C6.4375 4.02513 7.02513 3.4375 7.75 3.4375ZM9.5 11.375C9.5 11.5821 9.33209 11.75 9.125 11.75H6.375C6.16791 11.75 6 11.5821 6 11.375V10.625C6 10.4179 6.16791 10.25 6.375 10.25H6.75V8.25H6.375C6.16791 8.25 6 8.08209 6 7.875V7.125C6 6.91791 6.16791 6.75 6.375 6.75H8.375C8.58209 6.75 8.75 6.91791 8.75 7.125V10.25H9.125C9.33209 10.25 9.5 10.4179 9.5 10.625V11.375Z"/>
</svg>