<svg width="100%" height="100%" viewBox="0 0 16 16" fill="none" xmlns="http://www.w3.org/2000/svg">
<g clip-path="url(#clip0_168_1364)">
<path d="M8 15C11.866 15 15 11.866 15 8C15 4.13401 11.866 1 8 1C4.13401 1 1 4.13401 1 8C1 11.866 4.13401 15 8 15Z" fill="#E13ECB"/>
<path fill-rule="evenodd" clip-rule="evenodd" d="M8.1998 3.71001L7.99319 3.30127L7.79479 3.71404L7.44583 4.43991L7.44543 4.44074L4.31249 11.0268L4.15894 11.3497H4.51641H5.3266H5.47264L5.53253 11.2164L5.92187 10.3507L5.92227 10.3498L6.31797 9.48924H6.31802L6.31942 9.48604L7.35808 7.13115L7.99219 5.80909L9.65481 9.48789L9.65571 9.48992L9.8504 9.90956L9.85054 9.90987L10.46 11.2191L10.5208 11.3497H10.6647H11.4802H11.8366L11.6844 11.0274L10.6854 8.91298L10.6854 8.91285L8.56931 4.44115L8.5694 4.44112L8.56674 4.43587L8.1998 3.71001Z" fill="white"/>
</g>
<defs>
<clipPath id="clip0_168_1364">
<rect width="14" height="14" fill="white" transform="translate(1 1)"/>
</clipPath>
</defs>
</svg>
