<svg width="100%" height="100%" viewBox="0 0 16 16" fill="none" xmlns="http://www.w3.org/2000/svg">
<path fill-rule="evenodd" clip-rule="evenodd" d="M15 8C15 11.866 11.866 15 8 15C4.13401 15 1 11.866 1 8C1 4.13401 4.13401 1 8 1C11.866 1 15 4.13401 15 8ZM7.99323 3.30118L8.19984 3.70991L8.56677 4.43578L8.56944 4.44103L8.56935 4.44106L10.6854 8.91275L10.6855 8.91289L11.6844 11.0273L11.8367 11.3496H11.4803H10.6648H10.5208L10.4601 11.2191L9.85057 9.90978L9.85044 9.90946L9.65575 9.48983L9.65485 9.48779L7.99223 5.809L7.35812 7.13105L6.31946 9.48594L6.31806 9.48915H6.31801L5.92231 10.3497L5.9219 10.3506L5.53257 11.2163L5.47268 11.3496H5.32664H4.51644H4.15897L4.31253 11.0268L7.44546 4.44065L7.44587 4.43981L7.79483 3.71395L7.99323 3.30118Z" fill="white"/>
</svg>
