<svg viewBox="0 0 24 24" fill="none" xmlns="http://www.w3.org/2000/svg">
<path fill-rule="evenodd" clip-rule="evenodd" d="M1.03374 1.03374C1.69563 0.371847 2.59335 0 3.52941 0H9.17647C9.56632 0 9.88235 0.316034 9.88235 0.705882C9.88235 1.09573 9.56632 1.41176 9.17647 1.41176H3.52941C2.96778 1.41176 2.42914 1.63487 2.03201 2.03201C1.63487 2.42914 1.41176 2.96778 1.41176 3.52941V20.4706C1.41176 21.0322 1.63487 21.5709 2.03201 21.968C2.42915 22.3651 2.96778 22.5882 3.52941 22.5882H20.4706C21.0322 22.5882 21.5709 22.3651 21.968 21.968C22.3651 21.5709 22.5882 21.0322 22.5882 20.4706V14.8235C22.5882 14.4337 22.9043 14.1176 23.2941 14.1176C23.684 14.1176 24 14.4337 24 14.8235V20.4706C24 21.4066 23.6282 22.3044 22.9663 22.9663C22.3044 23.6282 21.4066 24 20.4706 24H3.52941C2.59335 24 1.69563 23.6282 1.03374 22.9663C0.371848 22.3044 0 21.4066 0 20.4706V3.52941C0 2.59335 0.371847 1.69563 1.03374 1.03374ZM15.5294 0.705882C15.5294 0.316034 15.8454 0 16.2353 0H23.2941C23.684 0 24 0.316034 24 0.705882V7.76471C24 8.15455 23.684 8.47059 23.2941 8.47059C22.9043 8.47059 22.5882 8.15455 22.5882 7.76471V2.41003L12.4991 12.4991C12.2235 12.7748 11.7765 12.7748 11.5009 12.4991C11.2252 12.2235 11.2252 11.7765 11.5009 11.5009L21.59 1.41176H16.2353C15.8454 1.41176 15.5294 1.09573 15.5294 0.705882Z"/>
</svg>
