<svg width="32" height="32" viewBox="0 0 32 32" fill="none" xmlns="http://www.w3.org/2000/svg">
<path d="M16.1 19.2C16.772 19.2 17.108 18.72 17.208 17.946C17.288 16.878 17.604 16.316 18.902 15.426C20.248 14.476 21 13.246 21 11.454C21 8.804 19.16 7 16.476 7C14.436 7 12.892 7.984 12.276 9.58C12.0894 10.0159 11.9954 10.4858 12 10.96C12 11.746 12.406 12.24 13.09 12.24C13.634 12.24 14 11.946 14.218 11.22C14.534 10.036 15.268 9.39 16.366 9.39C17.586 9.39 18.426 10.282 18.426 11.558C18.426 12.684 18.01 13.328 16.782 14.208C15.544 15.074 14.93 16.036 14.93 17.488V17.71C14.93 18.566 15.346 19.2 16.1 19.2Z" fill="#808B98"/>
<path d="M20.546 5.02598L18.704 3.13798L20.134 1.74198L21.378 3.01598L23.158 2.99398C23.9285 2.98486 24.693 3.12989 25.4067 3.42055C26.1203 3.71121 26.7686 4.14163 27.3135 4.6865C27.8583 5.23136 28.2887 5.87967 28.5794 6.5933C28.8701 7.30693 29.0151 8.07148 29.006 8.84198L28.986 10.622L30.258 11.866C30.8089 12.4043 31.2467 13.0473 31.5455 13.7573C31.8444 14.4672 31.9984 15.2297 31.9984 16C31.9984 16.7703 31.8444 17.5328 31.5455 18.2427C31.2467 18.9526 30.8089 19.5956 30.258 20.134L28.984 21.378L29.006 23.158C29.0151 23.9285 28.8701 24.693 28.5794 25.4067C28.2887 26.1203 27.8583 26.7686 27.3135 27.3135C26.7686 27.8583 26.1203 28.2887 25.4067 28.5794C24.693 28.8701 23.9285 29.0151 23.158 29.006L21.378 28.986L20.134 30.258C19.5956 30.8089 18.9526 31.2467 18.2427 31.5455C17.5328 31.8444 16.7703 31.9984 16 31.9984C15.2297 31.9984 14.4672 31.8444 13.7573 31.5455C13.0473 31.2467 12.4043 30.8089 11.866 30.258L10.622 28.984L8.84198 29.006C8.07148 29.0151 7.30693 28.8701 6.5933 28.5794C5.87967 28.2887 5.23136 27.8583 4.6865 27.3135C4.14163 26.7686 3.71121 26.1203 3.42055 25.4067C3.12989 24.693 2.98486 23.9285 2.99398 23.158L3.01398 21.378L1.74198 20.134C1.19106 19.5956 0.753299 18.9526 0.454423 18.2427C0.155548 17.5328 0.00158691 16.7703 0.00158691 16C0.00158691 15.2297 0.155548 14.4672 0.454423 13.7573C0.753299 13.0473 1.19106 12.4043 1.74198 11.866L3.01598 10.622L2.99398 8.84198C2.98486 8.07148 3.12989 7.30693 3.42055 6.5933C3.71121 5.87967 4.14163 5.23136 4.6865 4.6865C5.23136 4.14163 5.87967 3.71121 6.5933 3.42055C7.30693 3.12989 8.07148 2.98486 8.84198 2.99398L10.622 3.01398L11.866 1.74198C12.4043 1.19106 13.0473 0.753299 13.7573 0.454423C14.4672 0.155548 15.2297 0.00158691 16 0.00158691C16.7703 0.00158691 17.5328 0.155548 18.2427 0.454423C18.9526 0.753299 19.5956 1.19106 20.134 1.74198L18.704 3.13798C18.3519 2.77755 17.9313 2.49115 17.467 2.29561C17.0026 2.10007 16.5038 1.99934 16 1.99934C15.4961 1.99934 14.9974 2.10007 14.533 2.29561C14.0686 2.49115 13.6481 2.77755 13.296 3.13798L11.456 5.02598L8.81598 4.99398C8.31233 4.98835 7.81264 5.08343 7.34626 5.27363C6.87988 5.46384 6.45622 5.74533 6.10016 6.10158C5.7441 6.45782 5.46282 6.88164 5.27286 7.34812C5.0829 7.8146 4.98808 8.31434 4.99398 8.81798L5.02598 11.454L3.13798 13.296C2.77755 13.6481 2.49115 14.0686 2.29561 14.533C2.10007 14.9974 1.99934 15.4961 1.99934 16C1.99934 16.5038 2.10007 17.0026 2.29561 17.467C2.49115 17.9313 2.77755 18.3519 3.13798 18.704L5.02598 20.544L4.99398 23.184C4.98835 23.6876 5.08343 24.1873 5.27363 24.6537C5.46384 25.1201 5.74533 25.5437 6.10158 25.8998C6.45782 26.2559 6.88164 26.5371 7.34812 26.7271C7.8146 26.9171 8.31434 27.0119 8.81798 27.006L11.454 26.974L13.296 28.862C13.6481 29.2224 14.0686 29.5088 14.533 29.7043C14.9974 29.8999 15.4961 30.0006 16 30.0006C16.5038 30.0006 17.0026 29.8999 17.467 29.7043C17.9313 29.5088 18.3519 29.2224 18.704 28.862L20.544 26.974L23.184 27.006C23.6876 27.0116 24.1873 26.9165 24.6537 26.7263C25.1201 26.5361 25.5437 26.2546 25.8998 25.8984C26.2559 25.5421 26.5371 25.1183 26.7271 24.6518C26.9171 24.1854 27.0119 23.6856 27.006 23.182L26.974 20.546L28.862 18.704C29.2224 18.3519 29.5088 17.9313 29.7043 17.467C29.8999 17.0026 30.0006 16.5038 30.0006 16C30.0006 15.4961 29.8999 14.9974 29.7043 14.533C29.5088 14.0686 29.2224 13.6481 28.862 13.296L26.974 11.456L27.006 8.81598C27.0116 8.31233 26.9165 7.81264 26.7263 7.34626C26.5361 6.87988 26.2546 6.45622 25.8984 6.10016C25.5421 5.7441 25.1183 5.46282 24.6518 5.27286C24.1854 5.0829 23.6856 4.98808 23.182 4.99398L20.546 5.02598V5.02598Z" fill="#808B98"/>
<path d="M14.002 22C14.002 21.4696 14.2127 20.9609 14.5877 20.5858C14.9628 20.2107 15.4715 20 16.002 20C16.5324 20 17.0411 20.2107 17.4162 20.5858C17.7912 20.9609 18.002 21.4696 18.002 22C18.002 22.5304 17.7912 23.0391 17.4162 23.4142C17.0411 23.7893 16.5324 24 16.002 24C15.4715 24 14.9628 23.7893 14.5877 23.4142C14.2127 23.0391 14.002 22.5304 14.002 22V22Z" fill="#808B98"/>
</svg>
