
<!--
The MIT License (MIT)

Copyright (c) 2019-2024 The Bootstrap Authors

Permission is hereby granted, free of charge, to any person obtaining a copy
of this software and associated documentation files (the "Software"), to deal
in the Software without restriction, including without limitation the rights
to use, copy, modify, merge, publish, distribute, sublicense, and/or sell
copies of the Software, and to permit persons to whom the Software is
furnished to do so, subject to the following conditions:

The above copyright notice and this permission notice shall be included in
all copies or substantial portions of the Software.

THE SOFTWARE IS PROVIDED "AS IS", WITHOUT WARRANTY OF ANY KIND, EXPRESS OR
IMPLIED, INCLUDING BUT NOT LIMITED TO THE WARRANTIES OF MERCHANTABILITY,
FITNESS FOR A PARTICULAR PURPOSE AND NONINFRINGEMENT. IN NO EVENT SHALL THE
AUTHORS OR COPYRIGHT HOLDERS BE LIABLE FOR ANY CLAIM, DAMAGES OR OTHER
LIABILITY, WHETHER IN AN ACTION OF CONTRACT, TORT OR OTHERWISE, ARISING FROM,
OUT OF OR IN CONNECTION WITH THE SOFTWARE OR THE USE OR OTHER DEALINGS IN
THE SOFTWARE.
-->
<svg viewBox="0 0 16 16" xmlns="http://www.w3.org/2000/svg">
<path d="M9.828 0.721986C9.89371 0.721868 9.95879 0.734702 10.0195 0.759754C10.0803 0.784806 10.1355 0.821584 10.182 0.867986L15.132 5.81799C15.2257 5.91175 15.2784 6.0389 15.2784 6.17149C15.2784 6.30407 15.2257 6.43122 15.132 6.52499C14.652 7.00499 14.06 7.11299 13.629 7.11299C13.452 7.11299 13.294 7.09499 13.169 7.07399L10.035 10.208C10.1172 10.5405 10.1707 10.8794 10.195 11.221C10.241 11.923 10.163 12.908 9.47501 13.596C9.38124 13.6897 9.25409 13.7424 9.1215 13.7424C8.98892 13.7424 8.86177 13.6897 8.768 13.596L5.939 10.768L2.757 13.95C2.562 14.145 1.538 14.852 1.343 14.657C1.148 14.462 1.855 13.437 2.05 13.243L5.232 10.061L2.404 7.23199C2.31027 7.13822 2.25761 7.01107 2.25761 6.87849C2.25761 6.7459 2.31027 6.61875 2.404 6.52499C3.092 5.83699 4.077 5.75799 4.779 5.80499C5.12062 5.82931 5.45952 5.88284 5.792 5.96499L8.926 2.83199C8.90082 2.67958 8.88745 2.52545 8.886 2.37099C8.886 1.94099 8.99401 1.34899 9.47501 0.867986C9.56871 0.774517 9.69565 0.722014 9.828 0.721986ZM9.95 2.83199V2.83399C9.97888 2.92196 9.98277 3.01621 9.96123 3.10626C9.93969 3.19631 9.89357 3.27861 9.828 3.34399L6.293 6.87799C6.22732 6.94339 6.14475 6.98924 6.05452 7.01043C5.96428 7.03162 5.86993 7.02731 5.782 6.99799H5.78L5.766 6.99399C5.67078 6.9658 5.57474 6.94045 5.478 6.91799C5.22638 6.85962 4.97062 6.82083 4.713 6.80199C4.291 6.77399 3.877 6.80999 3.538 6.95199L9.048 12.461C9.189 12.121 9.225 11.708 9.197 11.286C9.17094 10.9288 9.10657 10.5754 9.005 10.232L9.001 10.219C8.97148 10.1309 8.96706 10.0354 8.98826 9.94494C9.00945 9.8545 9.05542 9.77176 9.121 9.70599L12.657 6.17099C12.7251 6.10248 12.8116 6.05516 12.906 6.03475C13.0004 6.01435 13.0987 6.02172 13.189 6.05599L13.285 6.07799C13.372 6.09499 13.493 6.11199 13.629 6.11199C13.7437 6.11332 13.858 6.09999 13.972 6.07199L9.927 2.02799C9.899 2.14265 9.88567 2.25699 9.887 2.37099C9.88773 2.52635 9.90857 2.68097 9.94901 2.83099L9.95 2.83199Z" />
</svg>
