<svg width="61" height="61" viewBox="0 0 61 61" fill="none" xmlns="http://www.w3.org/2000/svg">
  <path class="segment" data-index="0" d="M61 29C61 23.7872 59.6417 18.6643 57.0589 14.1363C54.4762 9.60822 49.9869 5.83132 45.5 3.17777C41.0131 0.52422 36.2122 0.0818802 31 0C25.7878 -0.0818802 22.068 0.666467 17.5 3.17777L20 7.50003L22.5 11.5C25.4183 9.89567 27.9713 9.94772 31.301 10C34.6308 10.0523 37.8895 10.8084 40.7559 12.5036C43.6224 14.1988 45.9976 16.6117 47.6476 19.5044C49.2976 22.3971 50 25.6699 50 29H61Z" fill="#585858"/>
  <path class="segment" data-index="1" d="M16.5 56.8754C21 59.5 26.1541 60.5637 31.3665 60.5C36.579 60.4363 41.6849 59.5133 46.181 56.8754C50.6772 54.2375 54.4084 50.4736 57.0069 45.9546C59.6054 41.4357 60.9818 37.2128 61 32H50C49.9884 35.3302 49.2744 37.6668 47.6143 40.5537C45.9543 43.4406 43.5706 45.8452 40.6983 47.5303C37.826 49.2155 34.6965 50.4593 31.3665 50.5C28.0366 50.5407 24.4126 50.1145 21.5 48.5L16.5 56.8754Z" fill="#585858"/>
  <path class="segment" data-index="2" d="M15 4.5C10.4855 7.10642 6.72816 10.3634 4.09814 14.8642C1.46811 19.3649 0.056234 24.4733 0.00164538 29.6858C-0.0529433 34.8984 1.25164 40.0352 3.78683 44.59C6.32202 49.1449 9.54112 52.7996 14 55.5L19.5 47C16.6515 45.2749 14.8735 42.2306 13.2539 39.3208C11.6343 36.4109 10.8009 33.1293 10.8357 29.7993C10.8706 26.4693 11.7726 23.2058 13.4528 20.3306C15.1329 17.4553 17.616 14.6651 20.5 13L15 4.5Z" fill="#585858"/>
  <rect class="check" x="19.9344" y="30" width="11.328" height="3" transform="rotate(40.1526 19.9344 30)" fill="#585858"/>
  <rect class="check" x="43.8776" y="20.9635" width="25.3775" height="3" transform="rotate(130.881 43.8776 20.9635)" fill="#585858"/>
</svg>
