<svg width="67" height="67" viewBox="0 0 67 67" fill="none" xmlns="http://www.w3.org/2000/svg">
<mask id="path-1-outside-1_1_10" maskUnits="userSpaceOnUse" x="38" y="32" width="29" height="34" fill="black">
<rect fill="white" x="38" y="32" width="29" height="34"/>
<path d="M66 33.5C66 40.3633 63.8272 47.0505 59.7931 52.603C55.7589 58.1556 50.0705 62.2885 43.5431 64.4093L40.0473 53.6504C44.3026 52.2678 48.011 49.5735 50.641 45.9536C53.2709 42.3338 54.6874 37.9743 54.6874 33.5H66Z"/>
</mask>
<path class="completed" d="M66 33.5C66 40.3633 63.8272 47.0505 59.7931 52.603C55.7589 58.1556 50.0705 62.2885 43.5431 64.4093L40.0473 53.6504C44.3026 52.2678 48.011 49.5735 50.641 45.9536C53.2709 42.3338 54.6874 37.9743 54.6874 33.5H66Z" fill="#585858"/>
<path d="M66 33.5C66 40.3633 63.8272 47.0505 59.7931 52.603C55.7589 58.1556 50.0705 62.2885 43.5431 64.4093L40.0473 53.6504C44.3026 52.2678 48.011 49.5735 50.641 45.9536C53.2709 42.3338 54.6874 37.9743 54.6874 33.5H66Z" stroke="black" stroke-width="2" mask="url(#path-1-outside-1_1_10)"/>
<mask id="path-2-outside-2_1_10" maskUnits="userSpaceOnUse" x="5" y="44" width="40" height="23" fill="black">
<rect fill="white" x="5" y="44" width="40" height="23"/>
<path d="M43.5431 64.4093C37.0156 66.5302 29.9844 66.5302 23.457 64.4093C16.9296 62.2885 11.2411 58.1556 7.20697 52.6031L16.359 45.9537C18.989 49.5735 22.6974 52.2678 26.9527 53.6504C31.2081 55.0331 35.7919 55.0331 40.0473 53.6504L43.5431 64.4093Z"/>
</mask>
<path d="M43.5431 64.4093C37.0156 66.5302 29.9844 66.5302 23.457 64.4093C16.9296 62.2885 11.2411 58.1556 7.20697 52.6031L16.359 45.9537C18.989 49.5735 22.6974 52.2678 26.9527 53.6504C31.2081 55.0331 35.7919 55.0331 40.0473 53.6504L43.5431 64.4093Z" fill="#585858"/>
<path d="M43.5431 64.4093C37.0156 66.5302 29.9844 66.5302 23.457 64.4093C16.9296 62.2885 11.2411 58.1556 7.20697 52.6031L16.359 45.9537C18.989 49.5735 22.6974 52.2678 26.9527 53.6504C31.2081 55.0331 35.7919 55.0331 40.0473 53.6504L43.5431 64.4093Z" stroke="black" stroke-width="2" mask="url(#path-2-outside-2_1_10)"/>
<mask id="path-3-outside-3_1_10" maskUnits="userSpaceOnUse" x="0" y="13" width="18" height="41" fill="black">
<rect fill="white" y="13" width="18" height="41"/>
<path d="M7.20695 52.603C3.1728 47.0505 1.00002 40.3634 1 33.5001C0.999981 26.6368 3.17273 19.9497 7.20684 14.3971L16.359 21.0465C13.729 24.6663 12.3126 29.0257 12.3126 33.5001C12.3126 37.9744 13.7291 42.3338 16.359 45.9536L7.20695 52.603Z"/>
</mask>
<path d="M7.20695 52.603C3.1728 47.0505 1.00002 40.3634 1 33.5001C0.999981 26.6368 3.17273 19.9497 7.20684 14.3971L16.359 21.0465C13.729 24.6663 12.3126 29.0257 12.3126 33.5001C12.3126 37.9744 13.7291 42.3338 16.359 45.9536L7.20695 52.603Z" fill="#585858"/>
<path d="M7.20695 52.603C3.1728 47.0505 1.00002 40.3634 1 33.5001C0.999981 26.6368 3.17273 19.9497 7.20684 14.3971L16.359 21.0465C13.729 24.6663 12.3126 29.0257 12.3126 33.5001C12.3126 37.9744 13.7291 42.3338 16.359 45.9536L7.20695 52.603Z" stroke="black" stroke-width="2" mask="url(#path-3-outside-3_1_10)"/>
<mask id="path-4-outside-4_1_10" maskUnits="userSpaceOnUse" x="5" y="0" width="40" height="23" fill="black">
<rect fill="white" x="5" width="40" height="23"/>
<path d="M7.20695 14.397C11.2411 8.84448 16.9294 4.71162 23.4568 2.59072C29.9841 0.469818 37.0153 0.469759 43.5427 2.59055L40.047 13.3495C35.7917 11.9669 31.2079 11.967 26.9526 13.3496C22.6973 14.7323 18.989 17.4266 16.359 21.0464L7.20695 14.397Z"/>
</mask>
<path d="M7.20695 14.397C11.2411 8.84448 16.9294 4.71162 23.4568 2.59072C29.9841 0.469818 37.0153 0.469759 43.5427 2.59055L40.047 13.3495C35.7917 11.9669 31.2079 11.967 26.9526 13.3496C22.6973 14.7323 18.989 17.4266 16.359 21.0464L7.20695 14.397Z" fill="#585858"/>
<path d="M7.20695 14.397C11.2411 8.84448 16.9294 4.71162 23.4568 2.59072C29.9841 0.469818 37.0153 0.469759 43.5427 2.59055L40.047 13.3495C35.7917 11.9669 31.2079 11.967 26.9526 13.3496C22.6973 14.7323 18.989 17.4266 16.359 21.0464L7.20695 14.397Z" stroke="black" stroke-width="2" mask="url(#path-4-outside-4_1_10)"/>
<mask id="path-5-outside-5_1_10" maskUnits="userSpaceOnUse" x="38" y="1" width="29" height="34" fill="black">
<rect fill="white" x="38" y="1" width="29" height="34"/>
<path d="M43.5431 2.59066C50.0704 4.71153 55.7588 8.84435 59.7929 14.3968C63.8271 19.9493 65.9999 26.6363 66 33.4996L54.6874 33.4997C54.6874 29.0254 53.2708 24.666 50.6409 21.0462C48.0109 17.4265 44.3026 14.7322 40.0473 13.3496L43.5431 2.59066Z"/>
</mask>
<path class="in-progress" d="M43.5431 2.59066C50.0704 4.71153 55.7588 8.84435 59.7929 14.3968C63.8271 19.9493 65.9999 26.6363 66 33.4996L54.6874 33.4997C54.6874 29.0254 53.2708 24.666 50.6409 21.0462C48.0109 17.4265 44.3026 14.7322 40.0473 13.3496L43.5431 2.59066Z" fill="#585858"/>
<path d="M43.5431 2.59066C50.0704 4.71153 55.7588 8.84435 59.7929 14.3968C63.8271 19.9493 65.9999 26.6363 66 33.4996L54.6874 33.4997C54.6874 29.0254 53.2708 24.666 50.6409 21.0462C48.0109 17.4265 44.3026 14.7322 40.0473 13.3496L43.5431 2.59066Z" stroke="black" stroke-width="2" mask="url(#path-5-outside-5_1_10)"/>
</svg>
