<svg width="63" height="63" viewBox="0 0 63 63" fill="none" xmlns="http://www.w3.org/2000/svg">
<path class="segment" data-index="0" d="M63 30C63 26.0603 62.224 22.1593 60.7164 18.5195C59.2087 14.8797 56.999 11.5726 54.2132 8.7868C51.4274 6.00104 48.1203 3.79125 44.4805 2.28361C40.8407 0.775973 36.9397 -1.72208e-07 33 0L33 10.8347C35.5168 10.8347 38.009 11.3304 40.3342 12.2936C42.6595 13.2567 44.7723 14.6684 46.5519 16.4481C48.3316 18.2277 49.7433 20.3405 50.7064 22.6658C51.6696 24.991 52.1653 27.4832 52.1653 30H63Z" fill="#585858"/>
<path class="segment" data-index="1" d="M63 33C63 36.9397 62.224 40.8407 60.7164 44.4805C59.2087 48.1203 56.999 51.4274 54.2132 54.2132C51.4274 56.999 48.1203 59.2087 44.4805 60.7164C40.8407 62.224 36.9397 63 33 63L33 52.1653C35.5168 52.1653 38.009 51.6696 40.3342 50.7064C42.6595 49.7433 44.7723 48.3316 46.5519 46.5519C48.3316 44.7723 49.7433 42.6595 50.7064 40.3342C51.6696 38.009 52.1653 35.5168 52.1653 33H63Z" fill="#585858"/>
<path class="segment" data-index="2" d="M0 33C-3.44416e-07 36.9397 0.775972 40.8407 2.28361 44.4805C3.79125 48.1203 6.00104 51.4274 8.7868 54.2132C11.5726 56.999 14.8797 59.2087 18.5195 60.7164C22.1593 62.224 26.0603 63 30 63L30 52.1653C27.4832 52.1653 24.991 51.6696 22.6658 50.7064C20.3405 49.7433 18.2277 48.3316 16.4481 46.5519C14.6684 44.7723 13.2567 42.6595 12.2936 40.3342C11.3304 38.009 10.8347 35.5168 10.8347 33L0 33Z" fill="#585858"/>
<path class="segment" data-index="3" d="M30 0C26.0603 -4.69799e-08 22.1593 0.775973 18.5195 2.28361C14.8797 3.79126 11.5726 6.00104 8.7868 8.7868C6.00104 11.5726 3.79125 14.8797 2.28361 18.5195C0.775972 22.1593 -5.94871e-07 26.0603 0 30L10.8347 30C10.8347 27.4832 11.3304 24.991 12.2936 22.6658C13.2567 20.3405 14.6684 18.2277 16.4481 16.4481C18.2277 14.6684 20.3405 13.2567 22.6658 12.2936C24.991 11.3304 27.4832 10.8347 30 10.8347L30 0Z" fill="#585858"/>
<rect class="check" x="19.9344" y="33" width="11.328" height="3" transform="rotate(40.1526 19.9344 33)" fill="#585858"/>
<rect class="check" x="43.8777" y="23.9635" width="25.3775" height="3" transform="rotate(130.881 43.8777 23.9635)" fill="#585858"/>
</svg>
