<svg width="64" height="64" viewBox="0 0 64 64" fill="none" xmlns="http://www.w3.org/2000/svg">
<path class="check"  d="M27.875 38.9287L21.4463 32.5L19.2571 34.6737L27.875 43.2917L45.1738 25.6737L43 23.5L27.875 38.9287Z" fill="#585858"/>
<path class="segment" data-index="4" d="M13.4141 6.34902C18.5073 2.60998 24.6007 0.493614 30.8995 0.262469L30.9507 10.6398C29.1136 10.7371 27.2588 11.0777 25.4278 11.6827C19.0975 13.7742 14.4209 18.5718 12.2581 24.367L2.36844 21.2076C4.47612 15.2674 8.32086 10.0881 13.4141 6.34902Z" fill="#585858"/>
<path class="segment" data-index="3" d="M1.75979 23.1127C0.0331917 29.1746 0.163028 35.6238 2.14517 41.6231C4.12731 47.6225 7.8651 52.8796 12.8632 56.7198L18.9232 48.2918C15.7996 45.8182 13.3398 42.4344 11.9964 38.3684C10.6531 34.3024 10.6128 30.1192 11.6479 26.2716L1.75979 23.1127Z" fill="#585858"/>
<path class="segment" data-index="0" d="M32.9507 10.6295C41.1572 10.9791 48.6988 16.1304 51.7778 24.1719L61.636 20.9148C59.4698 14.9957 55.574 9.85458 50.4441 6.16605C45.3142 2.47752 39.2002 0.421458 32.8994 0.252563L32.9507 10.6295Z" fill="#585858"/>
<path class="segment" data-index="2" d="M20.5479 49.458L14.4871 57.8873C19.7188 61.4027 25.8924 63.2721 32.2106 63.2408C38.5289 63.2096 44.6837 61.2793 49.8804 57.7125L43.7393 49.3472C42.2058 50.3635 40.5132 51.1949 38.6822 51.7998C32.3518 53.8913 25.7375 52.8241 20.5479 49.458Z" fill="#585858"/>
<path class="segment" data-index="1" d="M62.061 41.3272C60.1382 47.3459 56.4526 52.6396 51.4926 56.529L45.3517 48.1639C51.7347 42.9941 54.723 34.3639 52.4052 26.0709L62.2635 22.8138C64.0499 28.8584 63.9838 35.3085 62.061 41.3272Z" fill="#585858"/>
</svg>
