<!--
@fluentui/react-icons-mdl2

Copyright (c) Microsoft Corporation

All rights reserved.

MIT License

Permission is hereby granted, free of charge, to any person obtaining a copy of this software and associated documentation files (the ""Software""), to deal in the Software without restriction, including without limitation the rights to use, copy, modify, merge, publish, distribute, sublicense, and/or sell copies of the Software, and to permit persons to whom the Software is furnished to do so, subject to the following conditions:

The above copyright notice and this permission notice shall be included in all copies or substantial portions of the Software.

THE SOFTWARE IS PROVIDED _AS IS_, WITHOUT WARRANTY OF ANY KIND, EXPRESS OR IMPLIED, INCLUDING BUT NOT LIMITED TO THE WARRANTIES OF MERCHANTABILITY, FITNESS FOR A PARTICULAR PURPOSE AND NONINFRINGEMENT. IN NO EVENT SHALL THE AUTHORS OR COPYRIGHT HOLDERS BE LIABLE FOR ANY CLAIM, DAMAGES OR OTHER LIABILITY, WHETHER IN AN ACTION OF CONTRACT, TORT OR OTHERWISE, ARISING FROM, OUT OF OR IN CONNECTION WITH THE SOFTWARE OR THE USE OR OTHER DEALINGS IN THE SOFTWARE.
-->
<svg viewBox="0 0 24 24" xmlns="http://www.w3.org/2000/svg">
<path d="M1.5 10.5C1.90625 10.5 2.29297 10.4219 2.66016 10.2656C3.02734 10.1094 3.34375 9.89453 3.60938 9.62109C3.875 9.34766 4.08984 9.03125 4.25391 8.67188C4.41797 8.3125 4.5 7.92188 4.5 7.5C4.5 6.94531 4.48828 6.39062 4.46484 5.83594C4.44141 5.28125 4.45703 4.74219 4.51172 4.21875C4.56641 3.69531 4.69141 3.18359 4.88672 2.68359C5.08203 2.18359 5.39062 1.72656 5.8125 1.3125C6.23438 0.890625 6.72266 0.566406 7.27734 0.339844C7.83203 0.113281 8.40625 0 9 0V1.5C8.58594 1.5 8.19922 1.57812 7.83984 1.73438C7.48047 1.89062 7.16406 2.10547 6.89062 2.37891C6.61719 2.65234 6.40234 2.97266 6.24609 3.33984C6.08984 3.70703 6.00781 4.09375 6 4.5C6 4.9375 6.00781 5.36719 6.02344 5.78906C6.03906 6.21094 6.04297 6.62891 6.03516 7.04297C6.02734 7.45703 5.98828 7.85547 5.91797 8.23828C5.84766 8.62109 5.74219 8.99219 5.60156 9.35156C5.46094 9.71094 5.25781 10.0469 4.99219 10.3594C4.72656 10.6719 4.39453 10.9688 3.99609 11.25C4.40234 11.5234 4.73438 11.8203 4.99219 12.1406C5.25 12.4609 5.45312 12.7969 5.60156 13.1484C5.75 13.5 5.85547 13.8672 5.91797 14.25C5.98047 14.6328 6.01562 15.0312 6.02344 15.4453C6.03125 15.8594 6.03125 16.2773 6.02344 16.6992C6.01562 17.1211 6.00781 17.5547 6 18C6 18.4141 6.07812 18.8008 6.23438 19.1602C6.39062 19.5195 6.60547 19.8359 6.87891 20.1094C7.15234 20.3828 7.46875 20.5977 7.82812 20.7539C8.1875 20.9102 8.57812 20.9922 9 21V22.5C8.40625 22.5 7.83203 22.3867 7.27734 22.1602C6.72266 21.9336 6.23438 21.6094 5.8125 21.1875C5.39062 20.7656 5.08594 20.3086 4.89844 19.8164C4.71094 19.3242 4.58594 18.8164 4.52344 18.293C4.46094 17.7695 4.44141 17.2266 4.46484 16.6641C4.48828 16.1016 4.5 15.5469 4.5 15C4.5 14.5938 4.42188 14.207 4.26562 13.8398C4.10938 13.4727 3.89453 13.1562 3.62109 12.8906C3.34766 12.625 3.02734 12.4102 2.66016 12.2461C2.29297 12.082 1.90625 12 1.5 12V10.5ZM15 0C15.5938 0 16.168 0.113281 16.7227 0.339844C17.2773 0.566406 17.7656 0.890625 18.1875 1.3125C18.6094 1.73438 18.9141 2.19141 19.1016 2.68359C19.2891 3.17578 19.4141 3.68359 19.4766 4.20703C19.5391 4.73047 19.5586 5.27344 19.5352 5.83594C19.5117 6.39844 19.5 6.95312 19.5 7.5C19.5 7.91406 19.5781 8.30078 19.7344 8.66016C19.8906 9.01953 20.1055 9.33594 20.3789 9.60938C20.6523 9.88281 20.9688 10.0977 21.3281 10.2539C21.6875 10.4102 22.0781 10.4922 22.5 10.5V12C22.0859 12 21.6992 12.0781 21.3398 12.2344C20.9805 12.3906 20.6641 12.6055 20.3906 12.8789C20.1172 13.1523 19.9023 13.4727 19.7461 13.8398C19.5898 14.207 19.5078 14.5938 19.5 15C19.5 15.5547 19.5117 16.1094 19.5352 16.6641C19.5586 17.2188 19.543 17.7578 19.4883 18.2812C19.4336 18.8047 19.3086 19.3164 19.1133 19.8164C18.918 20.3164 18.6094 20.7734 18.1875 21.1875C17.7656 21.6094 17.2773 21.9336 16.7227 22.1602C16.168 22.3867 15.5938 22.5 15 22.5V21C15.4062 21 15.793 20.9219 16.1602 20.7656C16.5273 20.6094 16.8438 20.3945 17.1094 20.1211C17.375 19.8477 17.5898 19.5312 17.7539 19.1719C17.918 18.8125 18 18.4219 18 18C18 17.5625 17.9922 17.1328 17.9766 16.7109C17.9609 16.2891 17.957 15.8711 17.9648 15.457C17.9727 15.043 18.0117 14.6445 18.082 14.2617C18.1523 13.8789 18.2578 13.5078 18.3984 13.1484C18.5391 12.7891 18.7422 12.4531 19.0078 12.1406C19.2734 11.8281 19.6055 11.5312 20.0039 11.25C19.5977 10.9766 19.2656 10.6797 19.0078 10.3594C18.75 10.0391 18.5469 9.70312 18.3984 9.35156C18.25 9 18.1445 8.63281 18.082 8.25C18.0195 7.86719 17.9844 7.46875 17.9766 7.05469C17.9688 6.64062 17.9688 6.22266 17.9766 5.80078C17.9844 5.37891 17.9922 4.94531 18 4.5C18 4.09375 17.9219 3.70703 17.7656 3.33984C17.6094 2.97266 17.3945 2.65625 17.1211 2.39062C16.8477 2.125 16.5273 1.91016 16.1602 1.74609C15.793 1.58203 15.4062 1.5 15 1.5V0Z"/>
</svg>
