<!--
MIT License

Copyright (c) 2020 Microsoft Corporation

Permission is hereby granted, free of charge, to any person obtaining a copy
of this software and associated documentation files (the "Software"), to deal
in the Software without restriction, including without limitation the rights
to use, copy, modify, merge, publish, distribute, sublicense, and/or sell
copies of the Software, and to permit persons to whom the Software is
furnished to do so, subject to the following conditions:

The above copyright notice and this permission notice shall be included in all
copies or substantial portions of the Software.

THE SOFTWARE IS PROVIDED "AS IS", WITHOUT WARRANTY OF ANY KIND, EXPRESS OR
IMPLIED, INCLUDING BUT NOT LIMITED TO THE WARRANTIES OF MERCHANTABILITY,
FITNESS FOR A PARTICULAR PURPOSE AND NONINFRINGEMENT. IN NO EVENT SHALL THE
AUTHORS OR COPYRIGHT HOLDERS BE LIABLE FOR ANY CLAIM, DAMAGES OR OTHER
LIABILITY, WHETHER IN AN ACTION OF CONTRACT, TORT OR OTHERWISE, ARISING FROM,
OUT OF OR IN CONNECTION WITH THE SOFTWARE OR THE USE OR OTHER DEALINGS IN THE
SOFTWARE.
-->
<svg viewBox="0 0 24 24" xmlns="http://www.w3.org/2000/svg">
<path d="M3 6.75C3 5.75544 3.39509 4.80161 4.09835 4.09835C4.80161 3.39509 5.75544 3 6.75 3H17.25C18.2446 3 19.1984 3.39509 19.9016 4.09835C20.6049 4.80161 21 5.75544 21 6.75V17.25C21 18.2446 20.6049 19.1984 19.9016 19.9016C19.1984 20.6049 18.2446 21 17.25 21H6.75C5.75544 21 4.80161 20.6049 4.09835 19.9016C3.39509 19.1984 3 18.2446 3 17.25V6.75ZM4.5 9V17.25C4.5 17.8467 4.73705 18.419 5.15901 18.841C5.58097 19.2629 6.15326 19.5 6.75 19.5H17.25C17.8467 19.5 18.419 19.2629 18.841 18.841C19.2629 18.419 19.5 17.8467 19.5 17.25V9H4.5Z"/>
</svg>
