<!--
MIT License

Copyright (c) 2021 Gerrit Halfmann

Permission is hereby granted, free of charge, to any person obtaining a copy
of this software and associated documentation files (the "Software"), to deal
in the Software without restriction, including without limitation the rights
to use, copy, modify, merge, publish, distribute, sublicense, and/or sell
copies of the Software, and to permit persons to whom the Software is
furnished to do so, subject to the following conditions:

The above copyright notice and this permission notice shall be included in all
copies or substantial portions of the Software.

THE SOFTWARE IS PROVIDED "AS IS", WITHOUT WARRANTY OF ANY KIND, EXPRESS OR
IMPLIED, INCLUDING BUT NOT LIMITED TO THE WARRANTIES OF MERCHANTABILITY,
FITNESS FOR A PARTICULAR PURPOSE AND NONINFRINGEMENT. IN NO EVENT SHALL THE
AUTHORS OR COPYRIGHT HOLDERS BE LIABLE FOR ANY CLAIM, DAMAGES OR OTHER
LIABILITY, WHETHER IN AN ACTION OF CONTRACT, TORT OR OTHERWISE, ARISING FROM,
OUT OF OR IN CONNECTION WITH THE SOFTWARE OR THE USE OR OTHER DEALINGS IN THE
SOFTWARE.
-->
<svg viewBox="0 0 24 24" xmlns="http://www.w3.org/2000/svg">
<path fill-rule="evenodd" clip-rule="evenodd" d="M12 21L12.708 21.706C12.6151 21.7993 12.5047 21.8733 12.3831 21.9238C12.2615 21.9743 12.1312 22.0003 11.9995 22.0003C11.8678 22.0003 11.7375 21.9743 11.6159 21.9238C11.4943 21.8733 11.3839 21.7993 11.291 21.706L11.285 21.699L11.268 21.682L11.206 21.619C10.8535 21.2559 10.5068 20.8872 10.166 20.513C9.3104 19.5755 8.49113 18.6054 7.71 17.605C6.818 16.455 5.906 15.155 5.213 13.871C4.535 12.612 4 11.248 4 10C4 5.461 7.592 2 12 2C16.408 2 20 5.461 20 10C20 11.248 19.465 12.612 18.787 13.87C18.094 15.156 17.183 16.455 16.29 17.605C15.1974 19.0046 14.0304 20.3446 12.794 21.619L12.732 21.682L12.715 21.699L12.709 21.705L12 21ZM12 13C12.7956 13 13.5587 12.6839 14.1213 12.1213C14.6839 11.5587 15 10.7956 15 10C15 9.20435 14.6839 8.44129 14.1213 7.87868C13.5587 7.31607 12.7956 7 12 7C11.2044 7 10.4413 7.31607 9.87868 7.87868C9.31607 8.44129 9 9.20435 9 10C9 10.7956 9.31607 11.5587 9.87868 12.1213C10.4413 12.6839 11.2044 13 12 13Z"/>
</svg>
