<svg viewBox="0 0 14 14" xmlns="http://www.w3.org/2000/svg">
<path d="M7.01284 1.13809e-05C8.88334 0.00337025 10.5816 0.740458 11.8355 1.9387L12.8436 0.930616C13.2703 0.50387 14 0.806112 14 1.40964V5.19356C14 5.56769 13.6967 5.87097 13.3226 5.87097H9.53866C8.93513 5.87097 8.63289 5.14131 9.05964 4.71454L10.2381 3.53611C9.3669 2.72041 8.23965 2.26857 7.04206 2.25824C4.43405 2.23572 2.23568 4.3463 2.25823 7.04088C2.27963 9.59703 4.35197 11.7419 7 11.7419C8.16084 11.7419 9.25798 11.3276 10.1226 10.569C10.2565 10.4515 10.4586 10.4587 10.5846 10.5846L11.7041 11.7041C11.8416 11.8416 11.8348 12.0658 11.6905 12.1961C10.4493 13.3173 8.80436 14 7 14C3.13402 14 2.8226e-05 10.866 1.89608e-10 7.00006C-2.82256e-05 3.13852 3.1513 -0.00690394 7.01284 1.13809e-05Z"/>
</svg>