<svg viewBox="0 0 15 15" xmlns="http://www.w3.org/2000/svg"><path fill-rule="evenodd" clip-rule="evenodd" d="M3.884 4.517a4.69 4.69 0 0 1 8.21 2.046h.953A5.627 5.627 0 0 0 3.161 3.92a.469.469 0 1 0 .723.597ZM1.953 8.438H.5a.234.234 0 0 1-.18-.384L2.164 5.84a.234.234 0 0 1 .36 0l1.843 2.213a.234.234 0 0 1-.18.384h-1.28a4.69 4.69 0 0 0 8.209 2.045.468.468 0 1 1 .723.596 5.627 5.627 0 0 1-9.886-2.641Zm12.546-1.875h-3.686a.234.234 0 0 0-.18.384l1.843 2.213a.234.234 0 0 0 .36 0l1.843-2.213a.234.234 0 0 0-.18-.384Z"/></svg>