<svg fill="none" xmlns="http://www.w3.org/2000/svg">
<path d="M3.4997 3.5C2.8857 2.616 3.4257 1.538 4.3577 1L7.9997 7.226L11.6417 1C12.5737 1.538 13.1137 2.616 12.4997 3.5L8.8097 8.61L10.3657 11.271C10.917 10.9902 11.5529 10.9238 12.1504 11.0847C12.7479 11.2456 13.2645 11.6223 13.6002 12.142C13.936 12.6617 14.0671 13.2875 13.9682 13.8983C13.8693 14.5091 13.5474 15.0615 13.0648 15.4487C12.5822 15.8359 11.9731 16.0303 11.3554 15.9945C10.7377 15.9586 10.1552 15.6949 9.72068 15.2544C9.28613 14.814 9.03036 14.228 9.00284 13.6099C8.97532 12.9917 9.17801 12.3853 9.5717 11.908L7.9997 9.73L6.4277 11.907C6.82139 12.3843 7.02408 12.9907 6.99656 13.6089C6.96904 14.227 6.71327 14.813 6.27872 15.2534C5.84417 15.6939 5.26171 15.9576 4.644 15.9935C4.02629 16.0293 3.41723 15.8349 2.9346 15.4477C2.45197 15.0605 2.13008 14.5081 2.03117 13.8973C1.93227 13.2865 2.06339 12.6607 2.39916 12.141C2.73494 11.6213 3.25152 11.2446 3.84898 11.0837C4.44645 10.9228 5.08235 10.9892 5.6337 11.27L7.1897 8.61L3.4997 3.5ZM5.9997 13.5C5.9997 13.1022 5.84166 12.7206 5.56036 12.4393C5.27905 12.158 4.89752 12 4.4997 12C4.10187 12 3.72034 12.158 3.43904 12.4393C3.15773 12.7206 2.9997 13.1022 2.9997 13.5C2.9997 13.8978 3.15773 14.2794 3.43904 14.5607C3.72034 14.842 4.10187 15 4.4997 15C4.89752 15 5.27905 14.842 5.56036 14.5607C5.84166 14.2794 5.9997 13.8978 5.9997 13.5ZM12.9997 13.5C12.9997 13.1022 12.8417 12.7206 12.5604 12.4393C12.2791 12.158 11.8975 12 11.4997 12C11.1019 12 10.7203 12.158 10.439 12.4393C10.1577 12.7206 9.9997 13.1022 9.9997 13.5C9.9997 13.8978 10.1577 14.2794 10.439 14.5607C10.7203 14.842 11.1019 15 11.4997 15C11.8975 15 12.2791 14.842 12.5604 14.5607C12.8417 14.2794 12.9997 13.8978 12.9997 13.5Z" fill="#EAEAEA"/>
</svg>
