<svg width="12" height="12" viewBox="0 0 12 12" xmlns="http://www.w3.org/2000/svg">
<path d="M11.8359 10.3758L9.49922 8.03906C9.39375 7.93359 9.25078 7.875 9.10078 7.875H8.71875C9.36563 7.04766 9.75 6.00703 9.75 4.875C9.75 2.18203 7.56797 0 4.875 0C2.18203 0 0 2.18203 0 4.875C0 7.56797 2.18203 9.75 4.875 9.75C6.00703 9.75 7.04766 9.36563 7.875 8.71875V9.10078C7.875 9.25078 7.93359 9.39375 8.03906 9.49922L10.3758 11.8359C10.5961 12.0562 10.9523 12.0562 11.1703 11.8359L11.8336 11.1727C12.0539 10.9523 12.0539 10.5961 11.8359 10.3758ZM4.875 7.875C3.21797 7.875 1.875 6.53438 1.875 4.875C1.875 3.21797 3.21562 1.875 4.875 1.875C6.53203 1.875 7.875 3.21562 7.875 4.875C7.875 6.53203 6.53438 7.875 4.875 7.875Z"/>
</svg>