<svg viewBox="0 0 24 24" fill="none" xmlns="http://www.w3.org/2000/svg">
<path d="M12 2C12.1857 2.0001 12.3676 2.05188 12.5255 2.14955C12.6834 2.24722 12.811 2.38692 12.894 2.553L21.894 20.553C21.9783 20.7219 22.013 20.9113 21.9942 21.0991C21.9754 21.2869 21.9038 21.4656 21.7877 21.6145C21.6716 21.7633 21.5157 21.8763 21.3381 21.9403C21.1605 22.0042 20.9684 22.0166 20.784 21.976L12 20.024L3.21701 21.976C3.03257 22.0169 2.84034 22.0046 2.66256 21.9408C2.48478 21.8769 2.32874 21.764 2.21248 21.6151C2.09623 21.4662 2.02453 21.2874 2.00569 21.0994C1.98685 20.9115 2.02163 20.722 2.10601 20.553L11.106 2.553C11.189 2.38692 11.3166 2.24722 11.4745 2.14955C11.6324 2.05188 11.8143 2.0001 12 2ZM13 18.198L19.166 19.568L13 7.236V18.198ZM11 7.236L4.83401 19.568L11 18.198V7.236Z"/>
</svg>
