<svg fill="none" xmlns="http://www.w3.org/2000/svg">
<path d="M16.5 37.7915V4.86816C16.5 4.86816 20.0392 8.62249 22.9662 8.64989C25.6395 8.67492 29.4324 7.09271 29.4324 7.09271V26.0014C29.4324 29.9166 20.8108 35.9377 16.5 37.7915Z" fill="#746DD9"/>
<path d="M16.5 37.7915V4.86816C16.5 4.86816 12.9608 8.62249 10.0338 8.64989C7.36046 8.67492 3.56757 7.09271 3.56757 7.09271V26.0014C3.56757 29.9166 12.1892 35.9377 16.5 37.7915Z" fill="#A79FE9"/>
<path fill-rule="evenodd" clip-rule="evenodd" d="M17.7989 1.37788L17.7986 1.37751L17.7981 1.37705L16.5 0L15.2019 1.37705L15.2014 1.37751L15.2006 1.37835L15.197 1.38213C15.192 1.38733 15.1834 1.39637 15.1711 1.409C15.1467 1.43427 15.108 1.47383 15.0563 1.52564C14.9528 1.62939 14.7976 1.78157 14.6 1.96606C14.2027 2.33693 13.6438 2.82869 12.9952 3.31725C11.5961 4.37107 10.1643 5.11166 9.12516 5.12139C7.8907 5.13295 6.26852 4.75981 4.84514 4.32424C4.15683 4.11361 3.55656 3.90159 3.12936 3.74254C2.9163 3.66321 2.74768 3.59758 2.63428 3.55259C2.57761 3.53011 2.53483 3.51282 2.50729 3.50161L2.47762 3.48945L2.4719 3.48709C2.47198 3.48713 2.47178 3.48704 2.4719 3.48709C2.47176 3.48703 2.47133 3.48685 2.47127 3.48683L0 2.45593V26.6457C0 28.3553 0.907932 30.01 1.97567 31.405C3.08341 32.8523 4.57297 34.289 6.16452 35.6041C9.33899 38.2274 13.1612 40.5642 15.7939 41.6964L16.5 42L17.2061 41.6964C19.8388 40.5642 23.661 38.2274 26.8355 35.6041C28.427 34.289 29.9166 32.8523 31.0243 31.405C32.0921 30.01 33 28.3553 33 26.6457V2.45594L30.529 3.48673L30.5285 3.48694L30.5224 3.48945L30.4927 3.50161C30.4652 3.51282 30.4224 3.53011 30.3657 3.55259C30.2523 3.59758 30.0837 3.66321 29.8706 3.74254C29.4434 3.90159 28.8432 4.11361 28.1549 4.32424C26.7315 4.75981 25.1093 5.13295 23.8748 5.12139C22.8357 5.11166 21.4039 4.37107 20.0048 3.31725C19.3562 2.82869 18.7973 2.33693 18.4 1.96606C18.2024 1.78157 18.0472 1.62939 17.9437 1.52564C17.892 1.47383 17.8533 1.43427 17.8289 1.409C17.8166 1.39637 17.808 1.38733 17.803 1.38213L17.7994 1.37835L17.7989 1.37788ZM29.4324 5.7843C30.4941 5.43021 31.2162 5.12898 31.2162 5.12898V26.6457C31.2162 31.101 21.4054 37.9526 16.5 40.0621C11.5946 37.9526 1.78378 31.101 1.78378 26.6457V5.12898C1.78378 5.12898 2.5059 5.43021 3.56757 5.7843C5.10146 6.29587 7.34414 6.91778 9.14189 6.90095C11.2973 6.88078 13.7444 5.0846 15.2031 3.81946C15.9985 3.12958 16.5 2.5976 16.5 2.5976C16.5 2.5976 17.0015 3.12958 17.7969 3.81946C19.2556 5.0846 21.7027 6.88078 23.8581 6.90095C25.6559 6.91778 27.8985 6.29587 29.4324 5.7843Z" fill="#635BB4"/>
</svg>
