<svg xmlns="http://www.w3.org/2000/svg" viewBox="0 0 22 29" fill="none">
<g clip-path="url(#clip0_1_16)">
<path d="M11 25.5526V3.7421C11 3.7421 13.3595 6.2292 15.3108 6.24736C17.093 6.26392 19.6216 5.21578 19.6216 5.21578V17.7421C19.6216 20.3358 13.8739 24.3245 11 25.5526Z" fill="#746DD9"/>
<path d="M11 25.5526V3.7421C11 3.7421 8.64054 6.2292 6.68923 6.24736C4.90702 6.26392 2.37842 5.21578 2.37842 5.21578V17.7421C2.37842 20.3358 8.12616 24.3245 11 25.5526Z" fill="#A79FE9"/>
<path fill-rule="evenodd" clip-rule="evenodd" d="M11.866 1.42992L11.8657 1.42967L11.8654 1.42936L11 0.51712L10.1346 1.42936L10.1343 1.42967L10.1337 1.43023L10.1313 1.43273C10.128 1.43618 10.1223 1.44217 10.1141 1.45053C10.0978 1.46727 10.072 1.49348 10.0375 1.5278C9.96853 1.59653 9.8651 1.69735 9.73333 1.81956C9.46844 2.06525 9.0959 2.39102 8.66345 2.71468C7.73071 3.4128 6.77618 3.90341 6.08345 3.90986C5.26047 3.91753 4.17902 3.67033 3.23011 3.38178C2.77122 3.24224 2.37104 3.10178 2.08624 2.99642C1.9442 2.94386 1.83179 2.90039 1.75618 2.87058C1.71841 2.85569 1.68989 2.84424 1.67153 2.83681L1.65175 2.82876L1.64793 2.82719C1.64785 2.82716 1.64799 2.82722 1.64793 2.82719C1.64784 2.82715 1.64755 2.82703 1.64751 2.82702L0 2.14409V18.169C0 19.3015 0.605288 20.3977 1.31711 21.3218C2.05561 22.2806 3.04864 23.2323 4.10969 24.1036C6.226 25.8414 8.77413 27.3895 10.5293 28.1395L11 28.3406L11.4707 28.1395C13.2259 27.3895 15.774 25.8414 17.8903 24.1036C18.9514 23.2323 19.9444 22.2806 20.6829 21.3218C21.3947 20.3977 22 19.3015 22 18.169V2.14409L20.3526 2.82695L20.3523 2.82709L20.3482 2.82876L20.3285 2.83681C20.3101 2.84424 20.2816 2.85569 20.2438 2.87058C20.1682 2.90039 20.0558 2.94386 19.9137 2.99642C19.629 3.10178 19.2288 3.24224 18.7699 3.38178C17.821 3.67033 16.7395 3.91753 15.9166 3.90986C15.2238 3.90341 14.2693 3.4128 13.3365 2.71468C12.9041 2.39102 12.5316 2.06525 12.2667 1.81956C12.1349 1.69735 12.0315 1.59653 11.9625 1.5278C11.928 1.49348 11.9022 1.46727 11.8859 1.45053C11.8777 1.44217 11.872 1.43618 11.8687 1.43273L11.8663 1.43023L11.866 1.42992ZM19.6216 4.34902C20.3294 4.11444 20.8108 3.91487 20.8108 3.91487V18.169C20.8108 21.1204 14.2703 25.6594 11 27.0568C7.72973 25.6594 1.18919 21.1204 1.18919 18.169V3.91487C1.18919 3.91487 1.6706 4.11444 2.37838 4.34902C3.40096 4.68791 4.8961 5.09989 6.09459 5.08875C7.53152 5.0754 9.16294 3.88549 10.1354 3.04737C10.6657 2.59035 11 2.23794 11 2.23794C11 2.23794 11.3343 2.59035 11.8646 3.04738C12.8371 3.88549 14.4685 5.0754 15.9054 5.08875C17.1039 5.09989 18.599 4.68791 19.6216 4.34902Z" fill="#635BB4"/>
</g>
<defs>
<clipPath id="clip0_1_16">
<rect width="22" height="28" fill="white" transform="translate(0 0.5)"/>
</clipPath>
</defs>
</svg>