<svg width="25" height="25" viewBox="0 0 25 25" fill="none" xmlns="http://www.w3.org/2000/svg">
<path d="M5.27049 15.8041C5.27049 17.2572 4.09706 18.4315 2.6452 18.4315C1.19333 18.4315 0.0198975 17.2572 0.0198975 15.8041C0.0198975 14.3511 1.19333 13.1768 2.6452 13.1768H5.27049V15.8041ZM6.58314 15.8041C6.58314 14.3511 7.75657 13.1768 9.20844 13.1768C10.6603 13.1768 11.8337 14.3511 11.8337 15.8041V22.3726C11.8337 23.8256 10.6603 25 9.20844 25C7.75657 25 6.58314 23.8256 6.58314 22.3726V15.8041Z" fill="#E01E5A"/>
<path d="M9.20843 5.25478C7.75656 5.25478 6.58313 4.08041 6.58313 2.62739C6.58313 1.17436 7.75656 0 9.20843 0C10.6603 0 11.8337 1.17436 11.8337 2.62739V5.25478H9.20843ZM9.20843 6.58838C10.6603 6.58838 11.8337 7.76274 11.8337 9.21576C11.8337 10.6688 10.6603 11.8432 9.20843 11.8432H2.6253C1.17343 11.8432 0 10.6688 0 9.21576C0 7.76274 1.17343 6.58838 2.6253 6.58838H9.20843Z" fill="#36C5F0"/>
<path d="M19.7295 9.21576C19.7295 7.76274 20.9029 6.58838 22.3548 6.58838C23.8067 6.58838 24.9801 7.76274 24.9801 9.21576C24.9801 10.6688 23.8067 11.8432 22.3548 11.8432H19.7295V9.21576ZM18.4169 9.21576C18.4169 10.6688 17.2434 11.8432 15.7916 11.8432C14.3397 11.8432 13.1663 10.6688 13.1663 9.21576V2.62739C13.1663 1.17436 14.3397 0 15.7916 0C17.2434 0 18.4169 1.17436 18.4169 2.62739V9.21576V9.21576Z" fill="#2EB67D"/>
<path d="M15.7916 19.7452C17.2434 19.7452 18.4169 20.9196 18.4169 22.3726C18.4169 23.8256 17.2434 25 15.7916 25C14.3397 25 13.1663 23.8256 13.1663 22.3726V19.7452H15.7916ZM15.7916 18.4315C14.3397 18.4315 13.1663 17.2572 13.1663 15.8041C13.1663 14.3511 14.3397 13.1768 15.7916 13.1768H22.3747C23.8266 13.1768 25 14.3511 25 15.8041C25 17.2572 23.8266 18.4315 22.3747 18.4315H15.7916Z" fill="#ECB22E"/>
</svg>
