<svg viewBox="0 0 25 24" xmlns="http://www.w3.org/2000/svg">
<path d="M7.88403 11V19C7.88403 19.2652 7.77868 19.5196 7.59114 19.7071C7.4036 19.8946 7.14925 20 6.88403 20H4.88403C4.61882 20 4.36446 19.8946 4.17693 19.7071C3.98939 19.5196 3.88403 19.2652 3.88403 19V12C3.88403 11.7348 3.98939 11.4804 4.17693 11.2929C4.36446 11.1054 4.61882 11 4.88403 11H7.88403ZM7.88403 11C8.9449 11 9.96232 10.5786 10.7125 9.82843C11.4626 9.07828 11.884 8.06087 11.884 7V6C11.884 5.46957 12.0947 4.96086 12.4698 4.58579C12.8449 4.21071 13.3536 4 13.884 4C14.4145 4 14.9232 4.21071 15.2982 4.58579C15.6733 4.96086 15.884 5.46957 15.884 6V11H18.884C19.4145 11 19.9232 11.2107 20.2982 11.5858C20.6733 11.9609 20.884 12.4696 20.884 13L19.884 18C19.7402 18.6135 19.4674 19.1402 19.1067 19.501C18.746 19.8617 18.3169 20.0368 17.884 20H10.884C10.0884 20 9.32532 19.6839 8.76271 19.1213C8.2001 18.5587 7.88403 17.7956 7.88403 17" stroke-width="2" stroke-linecap="round" stroke-linejoin="round"/>
</svg>
