<svg viewBox="0 0 396 396" xmlns="http://www.w3.org/2000/svg">
<path d="M312.985 372.551L312.985 195.332L352.903 195.332C365.942 195.332 372.981 185.769 372.981 176.773C372.981 173.13 371.9 167.682 366.746 162.416L214.652 7.01296C210.226 2.49211 204.312 0.000389356 198.005 0.00038908C191.697 0.000388804 185.783 2.48997 181.349 7.0151L29.2557 162.416C24.1028 167.679 23.0196 173.127 23.0196 176.772C23.0225 185.769 30.0587 195.33 43.0978 195.33L80.6724 195.33L80.6724 372.548C80.6724 385.478 91.1913 396 104.122 396L289.536 396C302.466 396.001 312.985 385.481 312.985 372.551ZM113.49 363.185L113.49 162.514L75.0777 162.514L198.003 36.9186L320.925 162.514L280.167 162.514L280.167 363.185L113.49 363.185Z" fill="white"/>
</svg>
