<svg xmlns="http://www.w3.org/2000/svg" viewBox="0 0 512 512" style="enable-background:new 0 0 512 512;" xml:space="preserve">
<g>
	<path d="M292.57,124.87v206.35c0,20.18-16.36,36.57-36.57,36.57c-20.18,0-36.57-16.39-36.57-36.57V124.87l-40.96,41.03
		c-14.32,14.29-37.5,14.29-51.78,0c-14.29-14.32-14.29-37.5,0.04-51.78L230.14,10.73c14.21-14.25,37.28-14.32,51.57-0.14l0.14,0.14
		l103.46,103.42c14.29,14.32,14.29,37.5,0,51.78c-14.32,14.29-37.5,14.29-51.78-0.04L292.57,124.87z M109.72,219.44
		c20.21,0,36.57,16.39,36.57,36.57c0,20.21-16.36,36.57-36.57,36.57H73.15v146.28h365.7V292.58h-36.57
		c-20.18,0-36.57-16.36-36.57-36.57c0-20.18,16.39-36.57,36.57-36.57h36.57c40.43,0,73.14,32.75,73.14,73.14v146.28
		c0,40.39-32.71,73.14-73.14,73.14H73.15c-40.39,0-73.14-32.75-73.14-73.14V292.58c0-40.39,32.75-73.14,73.14-73.14H109.72z"/>
</g>
</svg>
