<svg width="442" height="377" viewBox="0 0 442 377" fill="none" xmlns="http://www.w3.org/2000/svg">
<path d="M352.274 252.477V296.721C352.274 316.257 345.335 333.053 331.279 346.888C317.444 360.988 300.604 367.927 281.112 367.927H75.6262C56.0898 367.927 39.2938 360.988 25.194 346.888C11.3594 333.053 4.42001 316.213 4.42001 296.721V91.2792C4.42001 71.7428 11.3594 54.9468 25.194 41.1122C39.2938 27.0124 56.0898 20.1172 75.6262 20.1172H249.686C253.885 20.1172 257.332 23.3438 257.332 28.029V43.8526C257.332 48.5378 253.885 51.7644 249.686 51.7644H75.6262C64.753 51.7644 55.3384 55.7424 47.6918 63.389C40.0452 71.0356 36.0672 80.4502 36.0672 91.3234V296.765C36.0672 307.638 40.0452 317.053 47.6918 324.699C55.3384 332.346 64.753 336.324 75.6262 336.324H281.068C291.941 336.324 301.356 332.346 309.002 324.699C316.649 317.053 320.627 307.638 320.627 296.765V252.477C320.627 247.791 323.853 244.83 328.539 244.83H344.362C349.047 244.786 352.274 247.791 352.274 252.477ZM434.619 127.877L353.777 208.453C347.368 215.393 336.981 209.956 336.981 201.514V161.204H301.4C291.013 161.204 277.399 161.69 260.338 162.441C243.277 163.193 226.481 166.154 209.641 171.104C193.066 176.055 179.717 181.712 169.595 188.166C159.695 194.575 152.799 201.028 148.6 207.437C144.622 213.625 141.175 222.023 137.948 232.41C134.722 242.797 133.263 253.184 133.263 263.792C133.263 269.494 133.528 276.168 134.014 283.328C134.014 284.566 134.766 289.251 134.766 291.24C134.766 294.201 132.777 296.677 129.815 296.677C127.826 296.677 126.368 295.704 125.351 293.936C123.627 291.726 120.887 284.787 119.428 282.091C106.08 252.167 101.881 221.537 107.052 190.376C109.793 168.85 120.887 148.076 140.689 128.319C172.778 96.4506 226.437 80.406 301.356 80.406H336.937V39.8746C336.937 31.2114 347.324 26.261 353.733 32.7142L434.574 113.556C438.552 117.711 438.552 123.899 434.619 127.877Z" fill="white"/>
</svg>
