<!--
https://github.com/phosphor-icons/core

MIT License

Copyright (c) 2023 Phosphor Icons

Permission is hereby granted, free of charge, to any person obtaining a copy
of this software and associated documentation files (the "Software"), to deal
in the Software without restriction, including without limitation the rights
to use, copy, modify, merge, publish, distribute, sublicense, and/or sell
copies of the Software, and to permit persons to whom the Software is
furnished to do so, subject to the following conditions:

The above copyright notice and this permission notice shall be included in all
copies or substantial portions of the Software.

THE SOFTWARE IS PROVIDED "AS IS", WITHOUT WARRANTY OF ANY KIND, EXPRESS OR
IMPLIED, INCLUDING BUT NOT LIMITED TO THE WARRANTIES OF MERCHANTABILITY,
FITNESS FOR A PARTICULAR PURPOSE AND NONINFRINGEMENT. IN NO EVENT SHALL THE
AUTHORS OR COPYRIGHT HOLDERS BE LIABLE FOR ANY CLAIM, DAMAGES OR OTHER
LIABILITY, WHETHER IN AN ACTION OF CONTRACT, TORT OR OTHERWISE, ARISING FROM,
OUT OF OR IN CONNECTION WITH THE SOFTWARE OR THE USE OR OTHER DEALINGS IN THE
SOFTWARE.
-->
<svg width="14" height="14" viewBox="0 0 14 14" fill="none" xmlns="http://www.w3.org/2000/svg">
<path d="M13.5 5C13.5008 5.74838 13.3149 6.48514 12.9591 7.14357C12.6034 7.80199 12.089 8.3613 11.4627 8.77086C10.8363 9.18042 10.1177 9.42729 9.37183 9.48912C8.626 9.55096 7.87653 9.42581 7.19126 9.125L3.93751 12.8887C3.93001 12.8975 3.92126 12.9069 3.91314 12.915C3.53802 13.2901 3.02926 13.5009 2.49876 13.5009C1.96827 13.5009 1.4595 13.2901 1.08439 12.915C0.709273 12.5399 0.498535 12.0311 0.498535 11.5006C0.498535 10.9701 0.709273 10.4614 1.08439 10.0862C1.09314 10.0781 1.10189 10.0694 1.11126 10.0619L4.87501 6.80875C4.5378 6.03738 4.42351 5.18694 4.5451 4.35392C4.6667 3.52089 5.0193 2.73861 5.56293 2.09581C6.10656 1.45301 6.81945 0.975417 7.62073 0.717215C8.42201 0.459012 9.27961 0.430529 10.0963 0.634998C10.1804 0.656097 10.2577 0.698747 10.3204 0.758751C10.3831 0.818755 10.4291 0.894047 10.4539 0.977222C10.4787 1.0604 10.4814 1.14859 10.4617 1.23313C10.4421 1.31767 10.4008 1.39564 10.3419 1.45937L8.00001 4L8.35376 5.64687L10 6L12.5406 3.655C12.6044 3.59609 12.6823 3.55479 12.7669 3.53515C12.8514 3.51551 12.9396 3.51822 13.0228 3.543C13.106 3.56778 13.1813 3.61379 13.2413 3.67649C13.3013 3.73919 13.3439 3.81644 13.365 3.90062C13.4547 4.26019 13.5001 4.6294 13.5 5Z" fill="black"/>
</svg>
