<svg width="12" height="12" viewBox="0 0 12 12" xmlns="http://www.w3.org/2000/svg">
<path d="M2.16784 2.16784C2.22091 2.11464 2.28396 2.07243 2.35336 2.04363C2.42277 2.01482 2.49718 2 2.57233 2C2.64747 2 2.72188 2.01482 2.79129 2.04363C2.8607 2.07243 2.92374 2.11464 2.97681 2.16784L6.00015 5.19233L9.02349 2.16784C9.07661 2.11472 9.13967 2.07259 9.20907 2.04384C9.27847 2.0151 9.35286 2.0003 9.42797 2.0003C9.50309 2.0003 9.57748 2.0151 9.64688 2.04384C9.71628 2.07259 9.77934 2.11472 9.83246 2.16784C9.88558 2.22096 9.92771 2.28402 9.95646 2.35342C9.98521 2.42282 10 2.49721 10 2.57233C10 2.64744 9.98521 2.72183 9.95646 2.79123C9.92771 2.86063 9.88558 2.92369 9.83246 2.97681L6.80797 6.00015L9.83246 9.02349C9.88558 9.07661 9.92771 9.13967 9.95646 9.20907C9.98521 9.27847 10 9.35286 10 9.42797C10 9.50309 9.98521 9.57748 9.95646 9.64688C9.92771 9.71628 9.88558 9.77934 9.83246 9.83246C9.77934 9.88558 9.71628 9.92771 9.64688 9.95646C9.57748 9.98521 9.50309 10 9.42797 10C9.35286 10 9.27847 9.98521 9.20907 9.95646C9.13967 9.92771 9.07661 9.88558 9.02349 9.83246L6.00015 6.80797L2.97681 9.83246C2.92369 9.88558 2.86063 9.92771 2.79123 9.95646C2.72183 9.98521 2.64744 10 2.57233 10C2.49721 10 2.42282 9.98521 2.35342 9.95646C2.28402 9.92771 2.22096 9.88558 2.16784 9.83246C2.11472 9.77934 2.07259 9.71628 2.04384 9.64688C2.0151 9.57748 2.0003 9.50309 2.0003 9.42797C2.0003 9.35286 2.0151 9.27847 2.04384 9.20907C2.07259 9.13967 2.11472 9.07661 2.16784 9.02349L5.19233 6.00015L2.16784 2.97681C2.11464 2.92374 2.07243 2.8607 2.04363 2.79129C2.01482 2.72188 2 2.64747 2 2.57233C2 2.49718 2.01482 2.42277 2.04363 2.35336C2.07243 2.28396 2.11464 2.22091 2.16784 2.16784Z" fill="white"/>
</svg>
