<svg width="12" height="12" viewBox="0 0 12 12" xmlns="http://www.w3.org/2000/svg">
<path d="M2.40735 2.40735C2.4571 2.35747 2.51621 2.3179 2.58128 2.2909C2.64635 2.2639 2.71611 2.25 2.78655 2.25C2.857 2.25 2.92676 2.2639 2.99183 2.2909C3.0569 2.3179 3.11601 2.35747 3.16576 2.40735L6.00014 5.24281L8.83452 2.40735C8.88432 2.35755 8.94344 2.31805 9.0085 2.2911C9.07357 2.26415 9.1433 2.25028 9.21373 2.25028C9.28415 2.25028 9.35389 2.26415 9.41895 2.2911C9.48401 2.31805 9.54313 2.35755 9.59293 2.40735C9.64273 2.45715 9.68223 2.51627 9.70918 2.58133C9.73613 2.6464 9.75 2.71613 9.75 2.78655C9.75 2.85698 9.73613 2.92671 9.70918 2.99178C9.68223 3.05684 9.64273 3.11596 9.59293 3.16576L6.75748 6.00014L9.59293 8.83452C9.64273 8.88432 9.68223 8.94344 9.70918 9.0085C9.73613 9.07357 9.75 9.1433 9.75 9.21373C9.75 9.28415 9.73613 9.35389 9.70918 9.41895C9.68223 9.48401 9.64273 9.54313 9.59293 9.59293C9.54313 9.64273 9.48401 9.68223 9.41895 9.70918C9.35389 9.73613 9.28415 9.75 9.21373 9.75C9.1433 9.75 9.07357 9.73613 9.0085 9.70918C8.94344 9.68223 8.88432 9.64273 8.83452 9.59293L6.00014 6.75748L3.16576 9.59293C3.11596 9.64273 3.05684 9.68223 2.99178 9.70918C2.92671 9.73613 2.85698 9.75 2.78655 9.75C2.71613 9.75 2.6464 9.73613 2.58133 9.70918C2.51627 9.68223 2.45715 9.64273 2.40735 9.59293C2.35755 9.54313 2.31805 9.48401 2.2911 9.41895C2.26415 9.35389 2.25028 9.28415 2.25028 9.21373C2.25028 9.1433 2.26415 9.07357 2.2911 9.0085C2.31805 8.94344 2.35755 8.88432 2.40735 8.83452L5.24281 6.00014L2.40735 3.16576C2.35747 3.11601 2.3179 3.0569 2.2909 2.99183C2.2639 2.92676 2.25 2.857 2.25 2.78655C2.25 2.71611 2.2639 2.64635 2.2909 2.58128C2.3179 2.51621 2.35747 2.4571 2.40735 2.40735Z" fill="white" fill-opacity="0.35"/>
</svg>
