<svg width="16" height="16" viewBox="0 0 16 16" fill="none" xmlns="http://www.w3.org/2000/svg">
<g clip-path="url(#clip0)">
<path d="M8.051 1.99902H8.14C8.962 2.00202 13.127 2.03202 14.25 2.33402C14.5895 2.42619 14.8989 2.60585 15.1472 2.85503C15.3955 3.10422 15.574 3.41421 15.665 3.75402C15.766 4.13402 15.837 4.63702 15.885 5.15602L15.895 5.26002L15.917 5.52002L15.925 5.62402C15.99 6.53802 15.998 7.39402 15.999 7.58102V7.65602C15.998 7.85002 15.989 8.76402 15.917 9.71602L15.909 9.82102L15.9 9.92502C15.85 10.497 15.776 11.065 15.665 11.483C15.5743 11.823 15.3958 12.1331 15.1475 12.3823C14.8991 12.6316 14.5896 12.8111 14.25 12.903C13.09 13.215 8.681 13.237 8.07 13.238H7.928C7.619 13.238 6.341 13.232 5.001 13.186L4.831 13.18L4.744 13.176L4.573 13.169L4.402 13.162C3.292 13.113 2.235 13.034 1.748 12.902C1.40849 12.8102 1.09907 12.6308 0.850724 12.3818C0.602384 12.1327 0.423847 11.8228 0.333 11.483C0.222 11.066 0.148 10.497 0.098 9.92502L0.09 9.82002L0.082 9.71602C0.0326476 9.03842 0.00529987 8.3594 0 7.68002L0 7.55702C0.002 7.34202 0.01 6.59902 0.064 5.77902L0.071 5.67602L0.074 5.62402L0.082 5.52002L0.104 5.26002L0.114 5.15602C0.162 4.63702 0.233 4.13302 0.334 3.75402C0.424694 3.41407 0.603162 3.10393 0.851513 2.85471C1.09986 2.60548 1.40937 2.42592 1.749 2.33402C2.236 2.20402 3.293 2.12402 4.403 2.07402L4.573 2.06702L4.745 2.06102L4.831 2.05802L5.002 2.05102C5.95371 2.0204 6.90581 2.0034 7.858 2.00002H8.051V1.99902ZM6.4 5.20902V10.027L10.557 7.61902L6.4 5.20902Z" fill="white"/>
</g>
<defs>
<clipPath id="clip0">
<rect width="16" height="16" fill="white"/>
</clipPath>
</defs>
</svg>
