<!-- Ant Design Icons -->
<!--
MIT LICENSE

Copyright (c) 2018-present Ant UED, https://xtech.antfin.com/

Permission is hereby granted, free of charge, to any person obtaining
a copy of this software and associated documentation files (the
"Software"), to deal in the Software without restriction, including
without limitation the rights to use, copy, modify, merge, publish,
distribute, sublicense, and/or sell copies of the Software, and to
permit persons to whom the Software is furnished to do so, subject to
the following conditions:

The above copyright notice and this permission notice shall be
included in all copies or substantial portions of the Software.

THE SOFTWARE IS PROVIDED "AS IS", WITHOUT WARRANTY OF ANY KIND,
EXPRESS OR IMPLIED, INCLUDING BUT NOT LIMITED TO THE WARRANTIES OF
MERCHANTABILITY, FITNESS FOR A PARTICULAR PURPOSE AND
NONINFRINGEMENT. IN NO EVENT SHALL THE AUTHORS OR COPYRIGHT HOLDERS BE
LIABLE FOR ANY CLAIM, DAMAGES OR OTHER LIABILITY, WHETHER IN AN ACTION
OF CONTRACT, TORT OR OTHERWISE, ARISING FROM, OUT OF OR IN CONNECTION
WITH THE SOFTWARE OR THE USE OR OTHER DEALINGS IN THE SOFTWARE.
-->
<svg width="64" height="65" viewBox="0 0 64 65" fill="none" xmlns="http://www.w3.org/2000/svg">
<g clip-path="url(#clip0_2_148)">
<path fill-rule="evenodd" clip-rule="evenodd" d="M23.4442 49.9993C23.4442 49.9993 20.9516 51.4243 25.212 51.8993C30.375 52.4743 33.0075 52.3993 38.692 51.3369C38.692 51.3369 40.1927 52.2618 42.2782 53.0618C29.5357 58.4242 13.4358 52.7493 23.4442 49.9993ZM21.8927 42.9869C21.8927 42.9869 19.1077 45.0119 23.3679 45.4494C28.8745 46.0119 33.2364 46.0494 40.7649 44.6244C40.7649 44.6244 41.8077 45.6619 43.4483 46.2244C28.0224 50.6618 10.8543 46.5869 21.8927 42.9869ZM35.0168 31.0996C38.1579 34.6496 34.1901 37.8495 34.1901 37.8495C34.1901 37.8495 42.1638 33.7995 38.5013 28.7372C35.0803 24.0121 32.4606 21.6622 46.6529 13.5748C46.6656 13.5748 24.3726 19.0498 35.0168 31.0996ZM51.8797 55.1742C51.8797 55.1742 53.7237 56.6617 49.8576 57.8242C42.4944 60.0117 19.2349 60.6742 12.7746 57.9117C10.4473 56.9242 14.8093 55.5367 16.1828 55.2492C17.607 54.9492 18.4337 54.9992 18.4337 54.9992C15.8521 53.2117 1.73609 58.5117 11.2612 60.0242C37.2295 64.1742 58.6197 58.1617 51.8797 55.1742ZM24.6397 35.7246C24.6397 35.7246 12.8 38.487 20.443 39.487C23.6731 39.912 30.108 39.812 36.0978 39.3245C40.9939 38.9245 45.9153 38.0495 45.9153 38.0495C45.9153 38.0495 44.1858 38.7745 42.9395 39.612C30.9218 42.7245 7.71315 41.2745 14.3896 38.0995C20.0486 35.4245 24.6396 35.7245 24.6396 35.7245M45.8772 47.3869C58.0983 41.1494 52.4392 35.1496 48.497 35.962C47.5304 36.162 47.0981 36.337 47.0981 36.337C47.0981 36.337 47.4541 35.787 48.1409 35.5495C55.9364 32.8495 61.9389 43.4994 45.6229 47.7119C45.6229 47.6994 45.8136 47.5369 45.8772 47.3869ZM38.5013 0.5C38.5013 0.5 45.2667 7.15 32.0792 17.3747C21.5112 25.5747 29.6629 30.2621 32.0792 35.5996C25.9113 30.1246 21.3841 25.3121 24.4235 20.8247C28.8872 14.2623 41.2355 11.0624 38.5013 0.5ZM25.8477 64.2992C37.5729 65.0367 55.5803 63.8867 56 58.4367C56 58.4367 55.1861 60.4992 46.3096 62.1492C36.3012 63.9992 23.9529 63.7867 16.6406 62.5992C16.6406 62.5867 18.1412 63.8117 25.8477 64.2992Z" fill="#BCBFC5"/>
</g>
<defs>
<clipPath id="clip0_2_148">
<rect width="64" height="64" fill="white" transform="translate(0 0.5)"/>
</clipPath>
</defs>
</svg>
