<!-- teenyicons -->
<!--
MIT License

Copyright (c) 2020, Anja van Staden

Permission is hereby granted, free of charge, to any person obtaining a copy
of this software and associated documentation files (the "Software"), to deal
in the Software without restriction, including without limitation the rights
to use, copy, modify, merge, publish, distribute, sublicense, and/or sell
copies of the Software, and to permit persons to whom the Software is
furnished to do so, subject to the following conditions:

The above copyright notice and this permission notice shall be included in all
copies or substantial portions of the Software.

THE SOFTWARE IS PROVIDED "AS IS", WITHOUT WARRANTY OF ANY KIND, EXPRESS OR
IMPLIED, INCLUDING BUT NOT LIMITED TO THE WARRANTIES OF MERCHANTABILITY,
FITNESS FOR A PARTICULAR PURPOSE AND NONINFRINGEMENT. IN NO EVENT SHALL THE
AUTHORS OR COPYRIGHT HOLDERS BE LIABLE FOR ANY CLAIM, DAMAGES OR OTHER
LIABILITY, WHETHER IN AN ACTION OF CONTRACT, TORT OR OTHERWISE, ARISING FROM,
OUT OF OR IN CONNECTION WITH THE SOFTWARE OR THE USE OR OTHER DEALINGS IN THE
SOFTWARE.
-->
<svg width="64" height="65" viewBox="0 0 64 65" fill="none" xmlns="http://www.w3.org/2000/svg">
<path d="M25.6 11.1667L27.5 11.1667M19.2 19.7L19.2 6.9C19.2 5.76841 19.6495 4.68316 20.4497 3.88301C21.2498 3.08285 22.3351 2.63333 23.4667 2.63333H40.5333C41.6649 2.63333 42.7502 3.08285 43.5503 3.88301C44.3505 4.68316 44.8 5.76841 44.8 6.9V28.2333C44.8 29.3649 44.3505 30.4502 43.5503 31.2503C42.7502 32.0505 41.6649 32.5 40.5333 32.5H23.4667C22.3351 32.5 21.2498 32.9495 20.4497 33.7497C19.6495 34.5498 19.2 35.6351 19.2 36.7667V58.1C19.2 59.2316 19.6495 60.3168 20.4497 61.117C21.2498 61.9171 22.3351 62.3667 23.4667 62.3667H40.5333C41.6649 62.3667 42.7502 61.9171 43.5503 61.117C44.3505 60.3168 44.8 59.2316 44.8 58.1L44.8 45.3M34.1333 19.7H6.4C5.26841 19.7 4.18316 20.1495 3.38301 20.9497C2.58285 21.7498 2.13333 22.8351 2.13333 23.9667V45.3C2.13333 46.4316 2.58285 47.5168 3.38301 48.317C4.18316 49.1171 5.26841 49.5667 6.4 49.5667H19.2M29.8667 45.3H57.6C58.7316 45.3 59.8168 44.8505 60.617 44.0503C61.4171 43.2502 61.8667 42.1649 61.8667 41.0333V19.7C61.8667 18.5684 61.4171 17.4832 60.617 16.683C59.8168 15.8829 58.7316 15.4333 57.6 15.4333H44.8M36.5 53.8333L38.4 53.8333" stroke="#C7CACF"/>
</svg>
