<svg viewBox="-32 0 384 384" xmlns="http://www.w3.org/2000/svg"><path d="M304 384c8.832 0 16-7.168 16-16V96c0-4.238-1.688-8.313-4.688-11.313l-80-80c-3-3-7.074-4.687-11.312-4.687H16C7.168 0 0 7.168 0 16v352c0 8.832 7.168 16 16 16zM32 32h185.375L288 102.625V352H32zm0 0"/><path d="M240 112H80c-8.832 0-16 7.168-16 16v64c0 8.832 7.168 16 16 16h160c8.832 0 16-7.168 16-16v-64c0-8.832-7.168-16-16-16zm-16 64H96v-32h128zm0 0M80 264h96c8.832 0 16-7.168 16-16s-7.168-16-16-16H80c-8.832 0-16 7.168-16 16s7.168 16 16 16zm0 0M224 288H80c-8.832 0-16 7.168-16 16s7.168 16 16 16h144c8.832 0 16-7.168 16-16s-7.168-16-16-16zm0 0"/></svg>