<svg viewBox="0 0 95.103 95.103" xmlns="http://www.w3.org/2000/svg"><path d="M47.561 0C25.928 0 8.39 6.393 8.39 14.283v11.72c0 7.891 17.538 14.282 39.171 14.282 21.632 0 39.17-6.392 39.17-14.282v-11.72C86.731 6.393 69.193 0 47.561 0z"/><path d="M47.561 47.115c-20.654 0-37.682-5.832-39.171-13.227-.071.353 0 19.355 0 19.355 0 7.892 17.538 14.283 39.171 14.283 21.632 0 39.17-6.393 39.17-14.283 0 0 .044-19.003-.026-19.355-1.491 7.396-18.491 13.227-39.144 13.227z"/><path d="M86.694 61.464C85.206 68.855 68.215 74.69 47.561 74.69S9.875 68.854 8.386 61.464L8.39 80.82c0 7.891 17.538 14.282 39.171 14.282 21.632 0 39.17-6.393 39.17-14.282l-.037-19.356z"/></svg>