<svg viewBox="0 0 22 22" xmlns="http://www.w3.org/2000/svg">
<circle cx="11" cy="11" r="10.5" stroke="#707070"/>
<path d="M9.93294 14.256V11.304C10.9169 11.256 11.6849 11.016 12.2369 10.584C12.8009 10.152 13.0829 9.558 13.0829 8.802V8.55C13.0829 7.938 12.8909 7.452 12.5069 7.092C12.1229 6.72 11.6069 6.534 10.9589 6.534C10.2629 6.534 9.70494 6.732 9.28494 7.128C8.87694 7.524 8.60094 8.028 8.45694 8.64L7.12494 8.136C7.23294 7.752 7.38894 7.386 7.59294 7.038C7.80894 6.678 8.07294 6.366 8.38494 6.102C8.70894 5.826 9.08694 5.61 9.51894 5.454C9.95094 5.298 10.4489 5.22 11.0129 5.22C12.1289 5.22 13.0109 5.526 13.6589 6.138C14.3069 6.75 14.6309 7.578 14.6309 8.622C14.6309 9.198 14.5289 9.702 14.3249 10.134C14.1329 10.554 13.8809 10.914 13.5689 11.214C13.2569 11.514 12.9029 11.754 12.5069 11.934C12.1109 12.114 11.7149 12.24 11.3189 12.312V14.256H9.93294ZM10.6349 18.216C10.2509 18.216 9.96894 18.12 9.78894 17.928C9.62094 17.736 9.53694 17.484 9.53694 17.172V16.938C9.53694 16.626 9.62094 16.374 9.78894 16.182C9.96894 15.99 10.2509 15.894 10.6349 15.894C11.0189 15.894 11.2949 15.99 11.4629 16.182C11.6429 16.374 11.7329 16.626 11.7329 16.938V17.172C11.7329 17.484 11.6429 17.736 11.4629 17.928C11.2949 18.12 11.0189 18.216 10.6349 18.216Z" fill="white"/>
</svg>
