<svg fill="none" height="24" viewBox="0 0 24 24" width="24" xmlns="http://www.w3.org/2000/svg"><path d="m24 12c0 3.1826-1.2643 6.2348-3.5147 8.4853-2.2505 2.2504-5.3027 3.5147-8.4853 3.5147s-6.23484-1.2643-8.48528-3.5147c-2.25044-2.2505-3.51472-5.3027-3.51472-8.4853s1.26428-6.23484 3.51472-8.48528 5.30268-3.51472 8.48528-3.51472 6.2348 1.26428 8.4853 3.51472c2.2504 2.25044 3.5147 5.30268 3.5147 8.48528zm-15.756-2.9505h1.2375c.207 0 .372-.1695.399-.375.135-.984.81-1.701 2.013-1.701 1.029 0 1.971.5145 1.971 1.752 0 .9525-.561 1.3905-1.4475 2.0565-1.0095.7335-1.809 1.59-1.752 2.9805l.0045.3255c.0016.0984.0418.1923.1119.2613.0702.069.1647.1077.2631.1077h1.2165c.0995 0 .1948-.0395.2652-.1098.0703-.0704.1098-.1657.1098-.2652v-.1575c0-1.077.4095-1.3905 1.515-2.229.9135-.6945 1.866-1.4655 1.866-3.084 0-2.2665-1.914-3.3615-4.0095-3.3615-1.9005 0-3.9825.885-4.125 3.429-.00205.04844.00582.09679.02315.14207.01732.04529.04372.08655.07758.12125.03386.03471.07446.06212.11931.08055.04484.01843.09298.02749.14146.02663zm3.4875 9.6645c.915 0 1.5435-.591 1.5435-1.3905 0-.828-.63-1.41-1.5435-1.41-.876 0-1.5135.582-1.5135 1.41 0 .7995.6375 1.3905 1.515 1.3905z" fill="#a26eff"/></svg>