<svg viewBox="0 0 23 19" fill="none" xmlns="http://www.w3.org/2000/svg">
<path d="M19.4248 0.886617C19.8223 0.50619 20.3512 0.295874 20.8999 0.300049C21.4487 0.304223 21.9744 0.522562 22.366 0.908992C22.7577 1.29542 22.9848 1.81972 22.9993 2.37125C23.0138 2.92278 22.8146 3.45841 22.4438 3.86511L11.1862 18.02C10.9926 18.2297 10.759 18.3979 10.4993 18.5146C10.2396 18.6314 9.95908 18.6943 9.67462 18.6996C9.39016 18.7049 9.10756 18.6525 8.84372 18.5455C8.57988 18.4384 8.34021 18.279 8.13905 18.0768L0.673503 10.571C0.465599 10.3762 0.298846 10.1413 0.183189 9.88035C0.0675327 9.61938 0.00534242 9.33766 0.000329319 9.052C-0.00468378 8.76634 0.0475831 8.48259 0.154011 8.21768C0.260439 7.95277 0.418848 7.71213 0.619787 7.5101C0.820727 7.30808 1.06008 7.14882 1.32357 7.04181C1.58706 6.93481 1.86929 6.88226 2.15341 6.8873C2.43754 6.89234 2.71775 6.95487 2.97732 7.07115C3.23689 7.18743 3.47051 7.35508 3.66423 7.56411L9.57234 13.5012L19.3712 0.949024C19.3889 0.927184 19.4077 0.906349 19.4276 0.886617H19.4248Z" fill="url(#paint0_linear)"/>
<defs>
<linearGradient id="paint0_linear" x1="0" y1="18.7" x2="35.1075" y2="18.7" gradientUnits="userSpaceOnUse">
<stop stop-color="#8FC216"/>
<stop offset="1" stop-color="#719501"/>
</linearGradient>
</defs>
</svg>