<svg viewBox="0 0 12 13" xmlns="http://www.w3.org/2000/svg"><path d="M5.814.189a.375.375 0 0 1 .372 0l2.813 1.607a.375.375 0 0 1 .188.325v2.997l2.624 1.5a.375.375 0 0 1 .189.324v3.214a.375.375 0 0 1-.189.326l-2.813 1.607a.375.375 0 0 1-.371 0L6 10.589l-2.627 1.5a.376.376 0 0 1-.372 0L.19 10.483A.374.374 0 0 1 0 10.157V6.942a.375.375 0 0 1 .189-.325l2.623-1.5V2.122a.375.375 0 0 1 .19-.325L5.813.189ZM3.187 5.767 1.131 6.942l2.056 1.176 2.057-1.176-2.056-1.175ZM5.626 7.59 3.562 8.767v2.35L5.626 9.94V7.59Zm.75 2.35 2.063 1.179v-2.35l-2.063-1.18V9.94Zm.381-2.997 2.056 1.176 2.057-1.176-2.056-1.175-2.057 1.175Zm1.681-1.824v-2.35L6.376 3.945v2.35l2.063-1.178ZM5.626 6.297v-2.35l-2.063-1.18v2.35l2.063 1.18ZM3.943 2.12 6 3.297 8.056 2.12 6 .946 3.943 2.121ZM11.25 7.59 9.187 8.767v2.35L11.25 9.94V7.59Zm-8.438 3.529v-2.35L.75 7.587V9.94l2.063 1.179Z"/></svg>