<svg width="38" height="12" viewBox="0 0 38 12" fill="none" xmlns="http://www.w3.org/2000/svg">
<path d="M4.37114e-07 7L6.11959e-07 5L10 -1.74846e-07L12 0L12 12L10 12L4.37114e-07 7Z" fill="#6FDDD6"/>
<path fill-rule="evenodd" clip-rule="evenodd" d="M11.9643 7L11 7L11 5L11.9643 5L11.9643 7ZM15.8214 7L13.8929 7L13.8929 5L15.8214 5L15.8214 7ZM19.6786 7L17.75 7L17.75 5L19.6786 5L19.6786 7ZM23.5357 7L21.6071 7L21.6071 5L23.5357 5L23.5357 7ZM27.3929 7L25.4643 7L25.4643 5L27.3929 5L27.3929 7ZM31.25 7L29.3214 7L29.3214 5L31.25 5L31.25 7ZM35.1071 7L33.1786 7L33.1786 5L35.1071 5L35.1071 7ZM38 7L37.0357 7L37.0357 5L38 5L38 7Z" fill="#6FDDD6"/>
</svg>
