<svg fill="none" viewBox="0 0 286 35" xmlns="http://www.w3.org/2000/svg" xmlns:xlink="http://www.w3.org/1999/xlink"><clipPath id="a"><path d="m0 0h286v35h-286z"/></clipPath><g clip-path="url(#a)" clip-rule="evenodd" fill="#ff07aa" fill-rule="evenodd"><path d="m48.4379-.00002836h9.7858c1.616-.01770194 3.2275.17345936 4.7946.56875036 1.3332.329296 2.5887.917698 3.6952 1.731768 1.0186.76212 1.8338 1.76388 2.3737 2.91667.5802 1.2966.8638 2.70664.83 4.12708.0372 1.42926-.2556 2.84786-.8555 4.14536-.5553 1.1493-1.3766 2.1492-2.3955 2.9166-1.1175.8163-2.3803 1.4115-3.7207 1.7537-1.5719.4121-3.1917.6119-4.8164.5942h-6.1672v16.2459h-3.524zm3.4257 15.87032836h5.9706c2.7692 0 4.8735-.5445 6.3127-1.6334 1.4393-1.0888 2.1565-2.6687 2.1516-4.73953 0-2.17292-.7427-3.7625-2.228-4.76875-1.4854-1.00625-3.5642-1.51181-6.2363-1.51667h-5.9706z"/><path d="m85.488-.00002836h9.7859c1.616-.01770194 3.2275.17345936 4.7951.56875036 1.329.330948 2.582.917908 3.687 1.728128 1.017.76374 1.832 1.76508 2.374 2.91666.58 1.29802.863 2.70916.83 4.13073.04 1.42876-.251 2.84726-.848 4.14536-.555 1.1493-1.377 2.1492-2.396 2.9166-1.117.8163-2.38 1.4115-3.7203 1.7537-1.5719.4121-3.1917.6119-4.8165.5942h-6.1671v16.2459h-3.5241zm3.4258 15.87032836h5.9705c2.7717 0 4.876-.5445 6.3127-1.6334 1.437-1.0888 2.154-2.6687 2.152-4.73953 0-2.17292-.743-3.7625-2.228-4.76875-1.4857-1.00625-3.5645-1.51181-6.2367-1.51667h-5.9705z"/><path d="m126.572 31.8354h17.613l-1.529 3.1646h-19.605v-35h3.521z"/><path d="m233.718 29.8083h.098v-29.8083h3.55v35h-4.438l-20.311-30.10729h-.098v30.10729h-3.55v-35h4.438z"/><path d="m256.511 0h11.435c2.191.0104783 4.365.379945 6.437 1.09375 2.133.71226 4.11 1.82598 5.825 3.28125 1.77 1.51401 3.202 3.38334 4.205 5.48698 1.112 2.39542 1.66 5.01492 1.602 7.65622 0 2.9337-.534 5.4858-1.602 7.6563-1.007 2.0957-2.439 3.9582-4.205 5.4687-1.715 1.4553-3.692 2.569-5.825 3.2813-2.073.7076-4.247 1.0709-6.437 1.0755h-11.435zm3.401 31.8865h6.942c2.32.0511 4.626-.3693 6.779-1.236 1.8-.7382 3.428-1.8403 4.784-3.2375 1.251-1.3138 2.219-2.8712 2.843-4.5755 1.261-3.4111 1.261-7.1618 0-10.5729-.625-1.7038-1.593-3.2611-2.843-4.57554-1.356-1.39717-2.984-2.49931-4.784-3.2375-2.153-.86791-4.459-1.2896-6.779-1.23958h-6.942z"/><path d="m29.0008 24.8792-10.2882-21.40472-1.7839-3.47448-1.6965 3.47448-15.2322 31.52552h3.9391l1.89674-4.1526 1.92587-4.1234 5.05679-11.2875 4.1102-8.4365 9.0541 19.724.9465 2.0088 2.9635 6.2672h3.9646z"/><path d="m188.094 24.8792-10.292-21.40472-1.78-3.47448-1.697 3.47448-15.232 31.52552h3.939l1.897-4.1526 1.926-4.1234 5.057-11.2875 4.11-8.4365 9.054 19.724.946 2.0088 2.964 6.2672h3.965z"/></g></svg>