<svg viewBox="0 0 12 12" xmlns="http://www.w3.org/2000/svg">
  <path fill-rule="evenodd" clip-rule="evenodd" d="M11.3609 11.6841C11.5071 11.8294 11.7441 11.8294 11.8904 11.6841C12.0366 11.5388 12.0366 11.3032 11.8904 11.1579L6.63357 5.9339L11.7573 0.842079C11.9035 0.696789 11.9035 0.461228 11.7573 0.315938C11.6111 0.170648 11.3741 0.170648 11.2279 0.315938L6.10413 5.40776L0.772131 0.108967C0.62593 -0.0363224 0.388892 -0.0363225 0.242692 0.108967C0.0964912 0.254257 0.0964914 0.489819 0.242692 0.635108L5.57469 5.9339L0.10965 11.3649C-0.0365501 11.5102 -0.0365502 11.7457 0.10965 11.891C0.255851 12.0363 0.492889 12.0363 0.639089 11.891L6.10413 6.46004L11.3609 11.6841Z"/>
</svg>
