<svg width="687" height="293" viewBox="0 0 687 293" fill="none" xmlns="http://www.w3.org/2000/svg">
<g opacity="0.3">
<mask id="path-1-inside-1" fill="white">
<path d="M133.744 138.405L143.622 140.957L168.475 172.393"/>
</mask>
<path d="M143.622 140.957L144.255 140.457L144.086 140.244L143.824 140.176L143.622 140.957ZM133.542 139.186L143.421 141.737L143.824 140.176L133.945 137.625L133.542 139.186ZM142.99 141.457L167.843 172.893L169.108 171.893L144.255 140.457L142.99 141.457Z" fill="#808B98" mask="url(#path-1-inside-1)"/>
<mask id="path-3-inside-2" fill="white">
<path d="M121.35 126.266L143.567 62.5252H174.462H205.357H241.006H276.655H311.486H346.317H377.135H407.953H440.009H472.064L489.748 78.1565"/>
</mask>
<path d="M143.567 62.5252V61.7191H142.995L142.806 62.2599L143.567 62.5252ZM472.064 62.5252L472.598 61.9212L472.369 61.7191H472.064V62.5252ZM122.111 126.532L144.329 62.7906L142.806 62.2599L120.589 126.001L122.111 126.532ZM143.567 63.3314H174.462V61.7191H143.567V63.3314ZM174.462 63.3314H205.357V61.7191H174.462V63.3314ZM205.357 63.3314H241.006V61.7191H205.357V63.3314ZM241.006 63.3314H276.655V61.7191H241.006V63.3314ZM276.655 63.3314H311.486V61.7191H276.655V63.3314ZM311.486 63.3314H346.317V61.7191H311.486V63.3314ZM346.317 63.3314H377.135V61.7191H346.317V63.3314ZM377.135 63.3314H407.953V61.7191H377.135V63.3314ZM407.953 63.3314H440.009V61.7191H407.953V63.3314ZM440.009 63.3314H472.064V61.7191H440.009V63.3314ZM471.53 63.1292L489.214 78.7605L490.282 77.5525L472.598 61.9212L471.53 63.1292Z" fill="#808B98" mask="url(#path-3-inside-2)"/>
<mask id="path-5-inside-3" fill="white">
<path d="M175.778 171.771L205.357 0H241.006H276.655H311.486H346.317H377.135H407.953H440.008H472.064H498.393H524.722H551.033H577.344H609.822H642.301L656.777 15.9252"/>
</mask>
<path d="M205.357 0V-0.806146H204.678L204.563 -0.136805L205.357 0ZM642.301 0L642.897 -0.542238L642.658 -0.806146H642.301V0ZM176.573 171.908L206.152 0.136805L204.563 -0.136805L174.984 171.634L176.573 171.908ZM205.357 0.806146H241.006V-0.806146H205.357V0.806146ZM241.006 0.806146H276.655V-0.806146H241.006V0.806146ZM276.655 0.806146H311.486V-0.806146H276.655V0.806146ZM311.486 0.806146H346.317V-0.806146H311.486V0.806146ZM346.317 0.806146H377.135V-0.806146H346.317V0.806146ZM377.135 0.806146H407.953V-0.806146H377.135V0.806146ZM407.953 0.806146H440.008V-0.806146H407.953V0.806146ZM440.008 0.806146H472.064V-0.806146H440.008V0.806146ZM472.064 0.806146H498.393V-0.806146H472.064V0.806146ZM498.393 0.806146H524.722V-0.806146H498.393V0.806146ZM524.722 0.806146H551.033V-0.806146H524.722V0.806146ZM551.033 0.806146H577.344V-0.806146H551.033V0.806146ZM577.344 0.806146H609.822V-0.806146H577.344V0.806146ZM609.822 0.806146H642.301V-0.806146H609.822V0.806146ZM641.704 0.542238L656.18 16.4674L657.373 15.3829L642.897 -0.542238L641.704 0.542238Z" fill="#808B98" mask="url(#path-5-inside-3)"/>
<mask id="path-7-inside-4" fill="white">
<path d="M177.73 171.771L205.357 107.161L215.236 110.049"/>
</mask>
<path d="M205.357 107.161L205.584 106.387L204.897 106.187L204.616 106.844L205.357 107.161ZM178.471 172.088L206.099 107.478L204.616 106.844L176.989 171.454L178.471 172.088ZM205.131 107.935L215.01 110.823L215.462 109.275L205.584 106.387L205.131 107.935Z" fill="#808B98" mask="url(#path-7-inside-4)"/>
<mask id="path-9-inside-5" fill="white">
<path d="M182.701 171.771L205.357 150.755H241.006H276.655L286.534 152.726"/>
</mask>
<path d="M205.357 150.755V149.949H205.041L204.809 150.164L205.357 150.755ZM276.655 150.755L276.813 149.965L276.735 149.949H276.655V150.755ZM183.249 172.362L205.906 151.346L204.809 150.164L182.153 171.18L183.249 172.362ZM205.357 151.561H241.006V149.949H205.357V151.561ZM241.006 151.561H276.655V149.949H241.006V151.561ZM276.498 151.546L286.376 153.516L286.692 151.935L276.813 149.965L276.498 151.546Z" fill="#808B98" mask="url(#path-9-inside-5)"/>
<mask id="path-11-inside-6" fill="white">
<path d="M177.336 171.771L205.357 97.2614H241.006H276.655H311.486H346.317H377.135H407.953L437.7 195.739"/>
</mask>
<path d="M205.357 97.2614V96.4552H204.799L204.603 96.9776L205.357 97.2614ZM407.953 97.2614L408.724 97.0282L408.551 96.4552H407.953V97.2614ZM178.091 172.054L206.112 97.5451L204.603 96.9776L176.582 171.487L178.091 172.054ZM205.357 98.0675H241.006V96.4552H205.357V98.0675ZM241.006 98.0675H276.655V96.4552H241.006V98.0675ZM276.655 98.0675H311.486V96.4552H276.655V98.0675ZM311.486 98.0675H346.317V96.4552H311.486V98.0675ZM346.317 98.0675H377.135V96.4552H346.317V98.0675ZM377.135 98.0675H407.953V96.4552H377.135V98.0675ZM407.181 97.4945L436.928 195.972L438.472 195.505L408.724 97.0282L407.181 97.4945Z" fill="#808B98" mask="url(#path-11-inside-6)"/>
<mask id="path-13-inside-7" fill="white">
<path d="M195.479 178.113L205.357 177.502H241.006H276.655H311.486H346.317L360.185 183.755"/>
</mask>
<path d="M205.357 177.502V176.696H205.333L205.308 176.697L205.357 177.502ZM346.317 177.502L346.649 176.767L346.491 176.696H346.317V177.502ZM195.529 178.918L205.407 178.307L205.308 176.697L195.429 177.308L195.529 178.918ZM205.357 178.308H241.006V176.696H205.357V178.308ZM241.006 178.308H276.655V176.696H241.006V178.308ZM276.655 178.308H311.486V176.696H276.655V178.308ZM311.486 178.308H346.317V176.696H311.486V178.308ZM345.986 178.237L359.854 184.489L360.517 183.02L346.649 176.767L345.986 178.237Z" fill="#808B98" mask="url(#path-13-inside-7)"/>
<mask id="path-15-inside-8" fill="white">
<path d="M171.226 187.055L143.567 252.359L120.291 141.55"/>
</mask>
<path d="M143.567 252.359L142.779 252.524L143.307 255.041L144.31 252.673L143.567 252.359ZM170.484 186.74L142.825 252.044L144.31 252.673L171.968 187.369L170.484 186.74ZM144.356 252.193L121.08 141.384L119.502 141.716L142.779 252.524L144.356 252.193Z" fill="#808B98" mask="url(#path-15-inside-8)"/>
<mask id="path-17-inside-9" fill="white">
<path d="M84.0561 116.138L93.8048 114.109H118.686H143.568H174.463H205.358L215.236 115.071"/>
</mask>
<path d="M93.8048 114.109V113.302H93.7218L93.6405 113.319L93.8048 114.109ZM205.358 114.109L205.436 113.306L205.397 113.302H205.358V114.109ZM84.2204 116.927L93.9692 114.898L93.6405 113.319L83.8918 115.349L84.2204 116.927ZM93.8048 114.915H118.686V113.302H93.8048V114.915ZM118.686 114.915H143.568V113.302H118.686V114.915ZM143.568 114.915H174.463V113.302H143.568V114.915ZM174.463 114.915H205.358V113.302H174.463V114.915ZM205.279 114.911L215.158 115.873L215.314 114.269L205.436 113.306L205.279 114.911Z" fill="#808B98" mask="url(#path-17-inside-9)"/>
<mask id="path-19-inside-10" fill="white">
<path d="M75.9758 130.344L93.8046 133.908H103.683"/>
</mask>
<path d="M93.8046 133.908L93.6466 134.699L93.7248 134.714H93.8046V133.908ZM75.8178 131.135L93.6466 134.699L93.9626 133.118L76.1338 129.554L75.8178 131.135ZM93.8046 134.714H103.683V133.102H93.8046V134.714Z" fill="#808B98" mask="url(#path-19-inside-10)"/>
<mask id="path-21-inside-11" fill="white">
<path d="M49.1217 131.303L93.8044 194.87H118.686H143.567L159.188 187.055"/>
</mask>
<path d="M93.8044 194.87L93.1449 195.334L93.3857 195.676H93.8044V194.87ZM143.567 194.87V195.676H143.758L143.928 195.591L143.567 194.87ZM48.4622 131.766L93.1449 195.334L94.4639 194.407L49.7813 130.839L48.4622 131.766ZM93.8044 195.676H118.686V194.064H93.8044V195.676ZM118.686 195.676H143.567V194.064H118.686V195.676ZM143.928 195.591L159.549 187.776L158.828 186.334L143.207 194.149L143.928 195.591Z" fill="#808B98" mask="url(#path-21-inside-11)"/>
<mask id="path-23-inside-12" fill="white">
<path d="M47.037 116.019L93.8046 6.94719H118.686H143.567H174.462H205.357H241.006H276.655H311.486H346.317H377.135H407.953H440.009H472.064H498.393H524.723H551.033H577.344H609.823H642.301L652.525 17.6442"/>
</mask>
<path d="M93.8046 6.94719V6.14104H93.2731L93.0637 6.6295L93.8046 6.94719ZM642.301 6.94719L642.884 6.39021L642.646 6.14104H642.301V6.94719ZM47.7779 116.337L94.5455 7.26487L93.0637 6.6295L46.2961 115.701L47.7779 116.337ZM93.8046 7.75333H118.686V6.14104H93.8046V7.75333ZM118.686 7.75333H143.567V6.14104H118.686V7.75333ZM143.567 7.75333H174.462V6.14104H143.567V7.75333ZM174.462 7.75333H205.357V6.14104H174.462V7.75333ZM205.357 7.75333H241.006V6.14104H205.357V7.75333ZM241.006 7.75333H276.655V6.14104H241.006V7.75333ZM276.655 7.75333H311.486V6.14104H276.655V7.75333ZM311.486 7.75333H346.317V6.14104H311.486V7.75333ZM346.317 7.75333H377.135V6.14104H346.317V7.75333ZM377.135 7.75333H407.953V6.14104H377.135V7.75333ZM407.953 7.75333H440.009V6.14104H407.953V7.75333ZM440.009 7.75333H472.064V6.14104H440.009V7.75333ZM472.064 7.75333H498.393V6.14104H472.064V7.75333ZM498.393 7.75333H524.723V6.14104H498.393V7.75333ZM524.723 7.75333H551.033V6.14104H524.723V7.75333ZM551.033 7.75333H577.344V6.14104H551.033V7.75333ZM577.344 7.75333H609.823V6.14104H577.344V7.75333ZM609.823 7.75333H642.301V6.14104H609.823V7.75333ZM641.719 7.50416L651.942 18.2011L653.107 17.0872L642.884 6.39021L641.719 7.50416Z" fill="#808B98" mask="url(#path-23-inside-12)"/>
<mask id="path-25-inside-13" fill="white">
<path d="M245.081 125.224L276.656 184.449H311.487H346.317L356.196 186.676"/>
</mask>
<path d="M276.656 184.449L275.944 184.829L276.172 185.255H276.656V184.449ZM346.317 184.449L346.495 183.663L346.407 183.643H346.317V184.449ZM244.369 125.603L275.944 184.829L277.367 184.07L245.792 124.845L244.369 125.603ZM276.656 185.255H311.487V183.643H276.656V185.255ZM311.487 185.255H346.317V183.643H311.487V185.255ZM346.14 185.236L356.019 187.463L356.373 185.89L346.495 183.663L346.14 185.236Z" fill="#808B98" mask="url(#path-25-inside-13)"/>
<mask id="path-27-inside-14" fill="white">
<path d="M243.634 109.94L276.655 13.8944H311.486H346.317H377.135H407.953H440.009H472.064H498.393H524.723H551.033H577.344H609.823H642.301L652.18 18.9343"/>
</mask>
<path d="M276.655 13.8944V13.0882H276.08L275.893 13.6323L276.655 13.8944ZM642.301 13.8944L642.668 13.1763L642.495 13.0882H642.301V13.8944ZM244.396 110.202L277.418 14.1565L275.893 13.6323L242.871 109.678L244.396 110.202ZM276.655 14.7005H311.486V13.0882H276.655V14.7005ZM311.486 14.7005H346.317V13.0882H311.486V14.7005ZM346.317 14.7005H377.135V13.0882H346.317V14.7005ZM377.135 14.7005H407.953V13.0882H377.135V14.7005ZM407.953 14.7005H440.009V13.0882H407.953V14.7005ZM440.009 14.7005H472.064V13.0882H440.009V14.7005ZM472.064 14.7005H498.393V13.0882H472.064V14.7005ZM498.393 14.7005H524.723V13.0882H498.393V14.7005ZM524.723 14.7005H551.033V13.0882H524.723V14.7005ZM551.033 14.7005H577.344V13.0882H551.033V14.7005ZM577.344 14.7005H609.823V13.0882H577.344V14.7005ZM609.823 14.7005H642.301V13.0882H609.823V14.7005ZM641.935 14.6125L651.814 19.6524L652.546 18.2162L642.668 13.1763L641.935 14.6125Z" fill="#808B98" mask="url(#path-27-inside-14)"/>
<mask id="path-29-inside-15" fill="white">
<path d="M229.301 125.224L205.357 140.855L180.586 171.771"/>
</mask>
<path d="M205.357 140.855L204.917 140.18L204.809 140.251L204.728 140.351L205.357 140.855ZM228.86 124.549L204.917 140.18L205.798 141.53L229.741 125.899L228.86 124.549ZM204.728 140.351L179.957 171.266L181.215 172.275L205.986 141.359L204.728 140.351Z" fill="#808B98" mask="url(#path-29-inside-15)"/>
<mask id="path-31-inside-16" fill="white">
<path d="M266.397 117.708H276.301H311.221H346.142H377.039H407.936L437.211 195.794"/>
</mask>
<path d="M266.397 116.902H265.591V118.514H266.397V116.902ZM407.936 117.708L408.69 117.425L408.494 116.902H407.936V117.708ZM436.456 196.077L436.739 196.831L438.249 196.265L437.966 195.511L436.456 196.077ZM266.397 118.514H276.301V116.902H266.397V118.514ZM276.301 118.514H311.221V116.902H276.301V118.514ZM311.221 118.514H346.142V116.902H311.221V118.514ZM346.142 118.514H377.039V116.902H346.142V118.514ZM377.039 118.514H407.936V116.902H377.039V118.514ZM407.181 117.991L436.456 196.077L437.966 195.511L408.69 117.425L407.181 117.991Z" fill="#808B98" mask="url(#path-31-inside-16)"/>
<mask id="path-33-inside-17" fill="white">
<path d="M247.797 125.224L276.655 157.702H286.534"/>
</mask>
<path d="M276.655 157.702L276.053 158.238L276.293 158.509H276.655V157.702ZM247.194 125.76L276.053 158.238L277.258 157.167L248.399 124.689L247.194 125.76ZM276.655 158.509H286.534V156.896H276.655V158.509Z" fill="#808B98" mask="url(#path-33-inside-17)"/>
<mask id="path-35-inside-18" fill="white">
<path d="M247.625 109.94L276.655 76.4196H311.486H346.317H377.135H407.953H440.008H472.064L481.943 79.9385"/>
</mask>
<path d="M276.655 76.4196V75.6135H276.287L276.046 75.8919L276.655 76.4196ZM472.064 76.4196L472.335 75.6602L472.203 75.6135H472.064V76.4196ZM248.234 110.468L277.265 76.9474L276.046 75.8919L247.015 109.412L248.234 110.468ZM276.655 77.2258H311.486V75.6135H276.655V77.2258ZM311.486 77.2258H346.317V75.6135H311.486V77.2258ZM346.317 77.2258H377.135V75.6135H346.317V77.2258ZM377.135 77.2258H407.953V75.6135H377.135V77.2258ZM407.953 77.2258H440.008V75.6135H407.953V77.2258ZM440.008 77.2258H472.064V75.6135H440.008V77.2258ZM471.794 77.179L481.672 80.6979L482.213 79.1791L472.335 75.6602L471.794 77.179Z" fill="#808B98" mask="url(#path-35-inside-18)"/>
<mask id="path-37-inside-19" fill="white">
<path d="M243.307 125.224L276.656 236.033L290.309 239.913"/>
</mask>
<path d="M276.656 236.033L275.884 236.265L276.011 236.687L276.435 236.808L276.656 236.033ZM242.535 125.456L275.884 236.265L277.428 235.8L244.078 124.992L242.535 125.456ZM276.435 236.808L290.089 240.689L290.53 239.138L276.876 235.257L276.435 236.808Z" fill="#808B98" mask="url(#path-37-inside-19)"/>
<mask id="path-39-inside-20" fill="white">
<path d="M245.4 109.94L276.655 55.5779H311.486H346.317H377.135H407.953H440.008H472.064H498.393H524.723H551.033H577.344L607.597 159.439"/>
</mask>
<path d="M276.655 55.5779V54.7718H276.189L275.956 55.1761L276.655 55.5779ZM577.344 55.5779L578.118 55.3525L577.949 54.7718H577.344V55.5779ZM246.099 110.342L277.354 55.9797L275.956 55.1761L244.701 109.538L246.099 110.342ZM276.655 56.3841H311.486V54.7718H276.655V56.3841ZM311.486 56.3841H346.317V54.7718H311.486V56.3841ZM346.317 56.3841H377.135V54.7718H346.317V56.3841ZM377.135 56.3841H407.953V54.7718H377.135V56.3841ZM407.953 56.3841H440.008V54.7718H407.953V56.3841ZM440.008 56.3841H472.064V54.7718H440.008V56.3841ZM472.064 56.3841H498.393V54.7718H472.064V56.3841ZM498.393 56.3841H524.723V54.7718H498.393V56.3841ZM524.723 56.3841H551.033V54.7718H524.723V56.3841ZM551.033 56.3841H577.344V54.7718H551.033V56.3841ZM576.57 55.8034L606.823 159.665L608.371 159.214L578.118 55.3525L576.57 55.8034Z" fill="#808B98" mask="url(#path-39-inside-20)"/>
<mask id="path-41-inside-21" fill="white">
<path d="M429.242 211.023L407.953 226.133H377.135H346.317H311.486H276.655H241.006H205.357L179.516 187.055"/>
</mask>
<path d="M407.953 226.133V226.939H408.21L408.42 226.79L407.953 226.133ZM205.357 226.133L204.685 226.577L204.924 226.939H205.357V226.133ZM428.775 210.365L407.486 225.475L408.42 226.79L429.708 211.68L428.775 210.365ZM407.953 225.327H377.135V226.939H407.953V225.327ZM377.135 225.327H346.317V226.939H377.135V225.327ZM346.317 225.327H311.486V226.939H346.317V225.327ZM311.486 225.327H276.655V226.939H311.486V225.327ZM276.655 225.327H241.006V226.939H276.655V225.327ZM241.006 225.327H205.357V226.939H241.006V225.327ZM206.03 225.688L180.188 186.61L178.843 187.499L204.685 226.577L206.03 225.688Z" fill="#808B98" mask="url(#path-41-inside-21)"/>
<mask id="path-43-inside-22" fill="white">
<path d="M441.351 195.739L472.064 20.8417H498.394H524.723H551.034H577.344H609.823H642.302L652.18 23.3617"/>
</mask>
<path d="M472.064 20.8417V20.0356H471.387L471.27 20.7023L472.064 20.8417ZM642.302 20.8417L642.501 20.0606L642.403 20.0356H642.302V20.8417ZM442.145 195.878L472.858 20.9811L471.27 20.7023L440.557 195.599L442.145 195.878ZM472.064 21.6479H498.394V20.0356H472.064V21.6479ZM498.394 21.6479H524.723V20.0356H498.394V21.6479ZM524.723 21.6479H551.034V20.0356H524.723V21.6479ZM551.034 21.6479H577.344V20.0356H551.034V21.6479ZM577.344 21.6479H609.823V20.0356H577.344V21.6479ZM609.823 21.6479H642.302V20.0356H609.823V21.6479ZM642.102 21.6228L651.981 24.1428L652.379 22.5805L642.501 20.0606L642.102 21.6228Z" fill="#808B98" mask="url(#path-43-inside-22)"/>
<mask id="path-45-inside-23" fill="white">
<path d="M442.05 195.739L472.064 83.3669L481.943 84.2792"/>
</mask>
<path d="M472.064 83.3669L472.139 82.5642L471.461 82.5016L471.286 83.1589L472.064 83.3669ZM442.829 195.947L472.843 83.5749L471.286 83.1589L441.271 195.531L442.829 195.947ZM471.99 84.1696L481.869 85.0819L482.017 83.4764L472.139 82.5642L471.99 84.1696Z" fill="#808B98" mask="url(#path-45-inside-23)"/>
<mask id="path-47-inside-24" fill="white">
<path d="M442.972 211.023L472.064 286.053H498.393H524.723L534.601 287.357"/>
</mask>
<path d="M472.064 286.053L471.313 286.344L471.512 286.859H472.064V286.053ZM524.723 286.053L524.828 285.254L524.776 285.247H524.723V286.053ZM442.22 211.314L471.313 286.344L472.816 285.761L443.723 210.731L442.22 211.314ZM472.064 286.859H498.393V285.247H472.064V286.859ZM498.393 286.859H524.723V285.247H498.393V286.859ZM524.617 286.852L534.496 288.156L534.707 286.558L524.828 285.254L524.617 286.852Z" fill="#808B98" mask="url(#path-47-inside-24)"/>
<mask id="path-49-inside-25" fill="white">
<path d="M313.535 150.06L346.317 27.7889H377.135H407.953H440.009H472.064H498.394H524.723H551.034H577.344H609.823H642.302H652.18"/>
</mask>
<path d="M346.317 27.7889V26.9828H345.699L345.539 27.5802L346.317 27.7889ZM314.314 150.269L347.096 27.9977L345.539 27.5802L312.757 149.852L314.314 150.269ZM346.317 28.5951H377.135V26.9828H346.317V28.5951ZM377.135 28.5951H407.953V26.9828H377.135V28.5951ZM407.953 28.5951H440.009V26.9828H407.953V28.5951ZM440.009 28.5951H472.064V26.9828H440.009V28.5951ZM472.064 28.5951H498.394V26.9828H472.064V28.5951ZM498.394 28.5951H524.723V26.9828H498.394V28.5951ZM524.723 28.5951H551.034V26.9828H524.723V28.5951ZM551.034 28.5951H577.344V26.9828H551.034V28.5951ZM577.344 28.5951H609.823V26.9828H577.344V28.5951ZM609.823 28.5951H642.302V26.9828H609.823V28.5951ZM642.302 28.5951H652.18V26.9828H642.302V28.5951Z" fill="#808B98" mask="url(#path-49-inside-25)"/>
<mask id="path-51-inside-26" fill="white">
<path d="M319.387 165.344L346.318 191.397H356.196"/>
</mask>
<path d="M346.318 191.397L345.757 191.976L345.992 192.203H346.318V191.397ZM318.826 165.924L345.757 191.976L346.878 190.817L319.947 164.765L318.826 165.924ZM346.318 192.203H356.196V190.59H346.318V192.203Z" fill="#808B98" mask="url(#path-51-inside-26)"/>
<mask id="path-53-inside-27" fill="white">
<path d="M316.367 165.344L346.318 212.238H377.135H407.953L417.832 209.509"/>
</mask>
<path d="M346.318 212.238L345.638 212.672L345.876 213.044H346.318V212.238ZM407.953 212.238V213.044H408.063L408.168 213.015L407.953 212.238ZM315.688 165.778L345.638 212.672L346.997 211.804L317.047 164.91L315.688 165.778ZM346.318 213.044H377.135V211.432H346.318V213.044ZM377.135 213.044H407.953V211.432H377.135V213.044ZM408.168 213.015L418.046 210.286L417.617 208.732L407.738 211.461L408.168 213.015Z" fill="#808B98" mask="url(#path-53-inside-27)"/>
<mask id="path-55-inside-28" fill="white">
<path d="M360.185 199.039L346.317 205.291H311.486H276.655H241.006H205.357L183.586 187.055"/>
</mask>
<path d="M346.317 205.291V206.097H346.491L346.649 206.026L346.317 205.291ZM205.357 205.291L204.84 205.909L205.064 206.097H205.357V205.291ZM359.854 198.304L345.986 204.556L346.649 206.026L360.517 199.774L359.854 198.304ZM346.317 204.485H311.486V206.097H346.317V204.485ZM311.486 204.485H276.655V206.097H311.486V204.485ZM276.655 204.485H241.006V206.097H276.655V204.485ZM241.006 204.485H205.357V206.097H241.006V204.485ZM205.875 204.673L184.103 186.437L183.068 187.673L204.84 205.909L205.875 204.673Z" fill="#808B98" mask="url(#path-55-inside-28)"/>
<mask id="path-57-inside-29" fill="white">
<path d="M378.639 183.755L407.953 34.7362H440.009H472.065H498.394H524.723H551.034H577.345H609.823H642.302L652.18 32.2162"/>
</mask>
<path d="M407.953 34.7362V33.93H407.29L407.162 34.5806L407.953 34.7362ZM642.302 34.7362V35.5423H642.403L642.501 35.5173L642.302 34.7362ZM379.43 183.91L408.744 34.8918L407.162 34.5806L377.848 183.599L379.43 183.91ZM407.953 35.5423H440.009V33.93H407.953V35.5423ZM440.009 35.5423H472.065V33.93H440.009V35.5423ZM472.065 35.5423H498.394V33.93H472.065V35.5423ZM498.394 35.5423H524.723V33.93H498.394V35.5423ZM524.723 35.5423H551.034V33.93H524.723V35.5423ZM551.034 35.5423H577.345V33.93H551.034V35.5423ZM577.345 35.5423H609.823V33.93H577.345V35.5423ZM609.823 35.5423H642.302V33.93H609.823V35.5423ZM642.501 35.5173L652.38 32.9973L651.981 31.4351L642.103 33.9551L642.501 35.5173Z" fill="#808B98" mask="url(#path-57-inside-29)"/>
<mask id="path-59-inside-30" fill="white">
<path d="M496.682 93.4404L472.064 203.381H462.186"/>
</mask>
<path d="M472.064 203.381V204.187H472.71L472.851 203.557L472.064 203.381ZM495.896 93.2643L471.278 203.204L472.851 203.557L497.469 93.6166L495.896 93.2643ZM472.064 202.574H462.186V204.187H472.064V202.574Z" fill="#808B98" mask="url(#path-59-inside-30)"/>
<mask id="path-61-inside-31" fill="white">
<path d="M497.163 93.4404L472.064 249.406H440.008H407.953L381.195 199.039"/>
</mask>
<path d="M472.064 249.406V250.212H472.751L472.86 249.534L472.064 249.406ZM407.953 249.406L407.241 249.784L407.468 250.212H407.953V249.406ZM496.368 93.3123L471.268 249.278L472.86 249.534L497.959 93.5685L496.368 93.3123ZM472.064 248.6H440.008V250.212H472.064V248.6ZM440.008 248.6H407.953V250.212H440.008V248.6ZM408.664 249.028L381.906 198.66L380.483 199.417L407.241 249.784L408.664 249.028Z" fill="#808B98" mask="url(#path-61-inside-31)"/>
<mask id="path-63-inside-32" fill="white">
<path d="M499.365 93.4404L524.723 293L534.602 291.696"/>
</mask>
<path d="M524.723 293L523.923 293.102L524.025 293.905L524.829 293.799L524.723 293ZM498.565 93.542L523.923 293.102L525.523 292.898L500.165 93.3388L498.565 93.542ZM524.829 293.799L534.707 292.495L534.496 290.897L524.618 292.201L524.829 293.799Z" fill="#808B98" mask="url(#path-63-inside-32)"/>
<mask id="path-65-inside-33" fill="white">
<path d="M607.393 174.723L577.344 269.206H551.034H524.723H498.394H472.064H440.009H407.953H377.135H346.317H311.486H276.656H241.007H205.358L177.092 187.055"/>
</mask>
<path d="M577.344 269.206V270.012H577.934L578.113 269.45L577.344 269.206ZM205.358 269.206L204.595 269.468L204.782 270.012H205.358V269.206ZM606.624 174.479L576.576 268.961L578.113 269.45L608.161 174.967L606.624 174.479ZM577.344 268.4H551.034V270.012H577.344V268.4ZM551.034 268.4H524.723V270.012H551.034V268.4ZM524.723 268.4H498.394V270.012H524.723V268.4ZM498.394 268.4H472.064V270.012H498.394V268.4ZM472.064 268.4H440.009V270.012H472.064V268.4ZM440.009 268.4H407.953V270.012H440.009V268.4ZM407.953 268.4H377.135V270.012H407.953V268.4ZM377.135 268.4H346.317V270.012H377.135V268.4ZM346.317 268.4H311.486V270.012H346.317V268.4ZM311.486 268.4H276.656V270.012H311.486V268.4ZM276.656 268.4H241.007V270.012H276.656V268.4ZM241.007 268.4H205.358V270.012H241.007V268.4ZM206.12 268.943L177.854 186.792L176.33 187.317L204.595 269.468L206.12 268.943Z" fill="#808B98" mask="url(#path-65-inside-33)"/>
<mask id="path-67-inside-34" fill="white">
<path d="M632.423 167.081H642.301L666.99 40.7682"/>
</mask>
<path d="M642.301 167.081V167.887H642.965L643.093 167.236L642.301 167.081ZM632.423 167.887H642.301V166.275H632.423V167.887ZM643.093 167.236L667.781 40.9228L666.199 40.6136L641.51 166.927L643.093 167.236Z" fill="#808B98" mask="url(#path-67-inside-34)"/>
<mask id="path-69-inside-35" fill="white">
<path d="M558.407 262.822L577.344 279.819H609.823H642.301L668.308 40.798"/>
</mask>
<path d="M577.344 279.819L576.806 280.419L577.035 280.625H577.344V279.819ZM642.301 279.819V280.625H643.025L643.103 279.906L642.301 279.819ZM557.869 263.422L576.806 280.419L577.883 279.219L558.946 262.223L557.869 263.422ZM577.344 280.625H609.823V279.013H577.344V280.625ZM609.823 280.625H642.301V279.013H609.823V280.625ZM643.103 279.906L669.11 40.8852L667.507 40.7108L641.5 279.732L643.103 279.906Z" fill="#808B98" mask="url(#path-69-inside-35)"/>
<mask id="path-71-inside-36" fill="white">
<path d="M552.676 281.884L577.345 167.081H587.223"/>
</mask>
<path d="M577.345 167.081V166.275H576.693L576.556 166.912L577.345 167.081ZM553.464 282.054L578.133 167.251L576.556 166.912L551.888 281.715L553.464 282.054ZM577.345 167.887H587.223V166.275H577.345V167.887Z" fill="#808B98" mask="url(#path-71-inside-36)"/>
<mask id="path-73-inside-37" fill="white">
<path d="M290.309 245.933H276.655H241.006H205.357L178.012 187.055"/>
</mask>
<path d="M205.357 245.933L204.626 246.272L204.843 246.739H205.357V245.933ZM290.309 245.126H276.655V246.739H290.309V245.126ZM276.655 245.126H241.006V246.739H276.655V245.126ZM241.006 245.126H205.357V246.739H241.006V245.126ZM206.088 245.593L178.743 186.715L177.281 187.394L204.626 246.272L206.088 245.593Z" fill="#808B98" mask="url(#path-73-inside-37)"/>
<mask id="path-75-inside-38" fill="white">
<path d="M317.08 238.29L346.317 198.344L356.196 196.117"/>
</mask>
<path d="M346.317 198.344L346.14 197.557L345.845 197.624L345.667 197.868L346.317 198.344ZM317.73 238.767L346.968 198.82L345.667 197.868L316.429 237.814L317.73 238.767ZM346.495 199.13L356.373 196.903L356.019 195.33L346.14 197.557L346.495 199.13Z" fill="#808B98" mask="url(#path-75-inside-38)"/>
<path d="M104.196 141.622V127.144H133.395V141.622H104.196Z" fill="#808B98" fill-opacity="0.15" stroke="#808B98" stroke-width="0.806146"/>
<path d="M153.959 187.126V172.649H195.186V187.126H153.959Z" fill="#808B98" fill-opacity="0.15" stroke="#808B98" stroke-width="0.806146"/>
<mask id="path-79-inside-39" fill="white">
<path d="M652.289 18.8299C652.289 19.7804 654.118 20.692 657.373 21.3641C660.627 22.0363 665.042 22.4139 669.645 22.4139C674.248 22.4139 678.662 22.0363 681.917 21.3641C685.172 20.692 687 19.7804 687 18.8299C687 17.8793 685.172 16.9677 681.917 16.2956C678.662 15.6234 674.248 15.2458 669.645 15.2458C665.042 15.2458 660.627 15.6234 657.373 16.2956C654.118 16.9677 652.289 17.8793 652.289 18.8299V37.6978C652.289 38.6484 654.118 39.56 657.373 40.2321C660.627 40.9043 665.042 41.2819 669.645 41.2819C674.248 41.2819 678.662 40.9043 681.917 40.2321C685.172 39.56 687 38.6484 687 37.6978V18.8299"/>
</mask>
<path d="M652.289 18.8299C652.289 19.7804 654.118 20.692 657.373 21.3641C660.627 22.0363 665.042 22.4139 669.645 22.4139C674.248 22.4139 678.662 22.0363 681.917 21.3641C685.172 20.692 687 19.7804 687 18.8299C687 17.8793 685.172 16.9677 681.917 16.2956C678.662 15.6234 674.248 15.2458 669.645 15.2458C665.042 15.2458 660.627 15.6234 657.373 16.2956C654.118 16.9677 652.289 17.8793 652.289 18.8299V37.6978C652.289 38.6484 654.118 39.56 657.373 40.2321C660.627 40.9043 665.042 41.2819 669.645 41.2819C674.248 41.2819 678.662 40.9043 681.917 40.2321C685.172 39.56 687 38.6484 687 37.6978V18.8299" fill="#808B98" fill-opacity="0.2"/>
<path d="M687 18.8299H687.806H687ZM652.289 18.8299H651.483H652.289ZM652.289 37.6978H651.483H652.289ZM687 37.6978H687.806H687ZM651.483 18.8299C651.483 19.3447 651.734 19.7701 652.047 20.093C652.357 20.4131 652.775 20.6857 653.251 20.9229C654.205 21.3985 655.553 21.8116 657.21 22.1536L657.536 20.5747C655.937 20.2446 654.744 19.8658 653.97 19.4799C653.582 19.2863 653.34 19.1108 653.205 18.9717C653.073 18.8352 653.096 18.7903 653.096 18.8299H651.483ZM657.21 22.1536C660.534 22.8402 665.006 23.22 669.645 23.22V21.6077C665.077 21.6077 660.721 21.2324 657.536 20.5747L657.21 22.1536ZM669.645 23.22C674.283 23.22 678.755 22.8402 682.08 22.1536L681.754 20.5747C678.569 21.2324 674.212 21.6077 669.645 21.6077V23.22ZM682.08 22.1536C683.736 21.8116 685.085 21.3985 686.039 20.9229C686.514 20.6857 686.933 20.4131 687.243 20.093C687.555 19.7701 687.806 19.3447 687.806 18.8299H686.194C686.194 18.7903 686.216 18.8352 686.084 18.9717C685.95 19.1108 685.708 19.2863 685.319 19.4799C684.545 19.8658 683.352 20.2446 681.754 20.5747L682.08 22.1536ZM687.806 18.8299C687.806 18.315 687.555 17.8896 687.243 17.5667C686.933 17.2466 686.514 16.974 686.039 16.7368C685.085 16.2612 683.736 15.8481 682.08 15.5061L681.754 17.085C683.352 17.4151 684.545 17.7939 685.319 18.1798C685.708 18.3734 685.95 18.5489 686.084 18.688C686.216 18.8245 686.194 18.8694 686.194 18.8299H687.806ZM682.08 15.5061C678.755 14.8195 674.283 14.4397 669.645 14.4397V16.052C674.212 16.052 678.569 16.4273 681.754 17.085L682.08 15.5061ZM669.645 14.4397C665.006 14.4397 660.534 14.8195 657.21 15.5061L657.536 17.085C660.721 16.4273 665.077 16.052 669.645 16.052V14.4397ZM657.21 15.5061C655.553 15.8481 654.205 16.2612 653.251 16.7368C652.775 16.974 652.357 17.2466 652.047 17.5667C651.734 17.8896 651.483 18.315 651.483 18.8299H653.096C653.096 18.8694 653.073 18.8245 653.205 18.688C653.34 18.5489 653.582 18.3734 653.97 18.1798C654.744 17.7939 655.937 17.4151 657.536 17.085L657.21 15.5061ZM651.483 18.8299V37.6978H653.096V18.8299H651.483ZM651.483 37.6978C651.483 38.2126 651.734 38.6381 652.047 38.961C652.357 39.2811 652.775 39.5537 653.251 39.7908C654.205 40.2665 655.553 40.6795 657.21 41.0216L657.536 39.4426C655.937 39.1126 654.744 38.7337 653.97 38.3479C653.582 38.1543 653.34 37.9788 653.205 37.8396C653.073 37.7032 653.096 37.6583 653.096 37.6978H651.483ZM657.21 41.0216C660.534 41.7081 665.006 42.088 669.645 42.088V40.4757C665.077 40.4757 660.721 40.1004 657.536 39.4426L657.21 41.0216ZM669.645 42.088C674.283 42.088 678.755 41.7081 682.08 41.0216L681.754 39.4426C678.569 40.1004 674.212 40.4757 669.645 40.4757V42.088ZM682.08 41.0216C683.736 40.6795 685.085 40.2665 686.039 39.7908C686.514 39.5537 686.933 39.2811 687.243 38.961C687.555 38.6381 687.806 38.2126 687.806 37.6978H686.194C686.194 37.6583 686.216 37.7032 686.084 37.8396C685.95 37.9788 685.708 38.1543 685.319 38.3479C684.545 38.7337 683.352 39.1126 681.754 39.4426L682.08 41.0216ZM687.806 37.6978V18.8299H686.194V37.6978H687.806Z" fill="#808B98" mask="url(#path-79-inside-39)"/>
<path d="M482.456 93.5123V79.0345H514.551V93.5123H482.456Z" fill="#808B98" fill-opacity="0.15" stroke="#808B98" stroke-width="0.806146"/>
<path d="M215.749 125.296V110.818H266.484V125.296H215.749Z" fill="#808B98" fill-opacity="0.15" stroke="#808B98" stroke-width="0.806146"/>
<path d="M286.899 165.521V151.043H335.997V165.521H286.899Z" fill="#808B98" fill-opacity="0.15" stroke="#808B98" stroke-width="0.806146"/>
<path d="M418.344 211.094V196.617H461.892V211.094H418.344Z" fill="#808B98" fill-opacity="0.15" stroke="#808B98" stroke-width="0.806146"/>
<path d="M587.735 174.795V160.317H632.129V174.795H587.735Z" fill="#808B98" fill-opacity="0.15" stroke="#808B98" stroke-width="0.806146"/>
<path d="M356.709 199.11V184.633H397.781V199.11H356.709Z" fill="#808B98" fill-opacity="0.15" stroke="#808B98" stroke-width="0.806146"/>
<path d="M83.3428 116.723L75.1083 131.201H3.96387L12.1984 116.723H83.3428Z" fill="#808B98" fill-opacity="0.15" stroke="#808B98" stroke-width="0.806146"/>
<path d="M290.822 253.646V239.168H332.37V253.646H290.822Z" fill="#808B98" fill-opacity="0.15" stroke="#808B98" stroke-width="0.806146"/>
</g>
</svg>
